<svg width="368" height="265" viewBox="0 0 368 265" fill="none" xmlns="http://www.w3.org/2000/svg">
<g clip-path="url(#clip0_78_227)">
<mask id="path-1-inside-1_78_227" fill="white">
<path d="M0 0H358C363.523 0 368 4.47715 368 10V265H0V0Z"/>
</mask>
<mask id="path-3-inside-2_78_227" fill="white">
<path d="M0 0H368V40H0V0Z"/>
</mask>
<path d="M368 40V39H0V40V41H368V40Z" fill="#E5E7EB" mask="url(#path-3-inside-2_78_227)"/>
<rect x="294" y="15" width="10" height="10" rx="5" fill="#B0B5BF"/>
<rect x="314" y="15" width="10" height="10" rx="5" fill="#B0B5BF"/>
<rect x="334" y="15" width="10" height="10" rx="5" fill="#B0B5BF"/>
<g clip-path="url(#clip1_78_227)">
<path d="M138.812 64.268C138.55 64.268 138.326 64.1747 138.14 63.988C137.953 63.8013 137.86 63.5633 137.86 63.274C137.86 62.9753 137.953 62.7327 138.14 62.546C138.326 62.3593 138.55 62.266 138.812 62.266C139.082 62.266 139.306 62.3593 139.484 62.546C139.67 62.7327 139.764 62.9753 139.764 63.274C139.764 63.5633 139.67 63.8013 139.484 63.988C139.306 64.1747 139.082 64.268 138.812 64.268ZM138.812 69.168C138.55 69.168 138.326 69.0747 138.14 68.888C137.953 68.7013 137.86 68.4633 137.86 68.174C137.86 67.8753 137.953 67.6327 138.14 67.446C138.326 67.2593 138.55 67.166 138.812 67.166C139.082 67.166 139.306 67.2593 139.484 67.446C139.67 67.6327 139.764 67.8753 139.764 68.174C139.764 68.4633 139.67 68.7013 139.484 68.888C139.306 69.0747 139.082 69.168 138.812 69.168ZM145.891 69V63.68C145.891 63.1573 145.774 62.7933 145.541 62.588C145.317 62.3827 145.009 62.28 144.617 62.28H141.187V61.132H144.995C145.462 61.132 145.872 61.2207 146.227 61.398C146.591 61.566 146.871 61.8413 147.067 62.224C147.272 62.6067 147.375 63.1153 147.375 63.75V69H145.891ZM141.145 69V65.206L141.355 64.268H142.629V65.206V69H141.145ZM149.554 69.14L148.532 61.132H149.96L150.772 67.88C151.481 67.8333 152.092 67.7027 152.606 67.488C153.128 67.2733 153.558 66.9793 153.894 66.606C154.23 66.2327 154.477 65.7753 154.636 65.234C154.794 64.6833 154.874 64.058 154.874 63.358L154.846 61.132H156.344L156.358 63.288C156.367 64.5947 156.124 65.682 155.63 66.55C155.144 67.418 154.398 68.0713 153.39 68.51C152.382 68.9393 151.103 69.1493 149.554 69.14ZM150.296 66.046L149.946 65.066C150.412 64.8887 150.776 64.6833 151.038 64.45C151.299 64.2073 151.481 63.8947 151.584 63.512C151.696 63.12 151.756 62.6253 151.766 62.028V61.16H153.18V62C153.17 62.6813 153.072 63.2787 152.886 63.792C152.708 64.3053 152.41 64.744 151.99 65.108C151.579 65.472 151.014 65.7847 150.296 66.046ZM157.721 66.06V64.898V62.77L157.553 61.132H159.037L159.219 62.77V64.898L159.205 65.78L157.721 66.06ZM167.553 69H165.957L163.003 64.534L161.617 69H160.203L161.743 64.184L162.135 63.204L160.847 61.132H162.359L163.549 63.036L164.725 64.8L165.075 63.582L165.789 61.132H167.217L165.593 66.088L167.553 69Z" fill="#0C1719"/>
<path d="M128.83 87.944C128.606 87.944 128.414 87.864 128.254 87.704C128.094 87.544 128.014 87.34 128.014 87.092C128.014 86.836 128.094 86.628 128.254 86.468C128.414 86.308 128.606 86.228 128.83 86.228C129.062 86.228 129.254 86.308 129.406 86.468C129.566 86.628 129.646 86.836 129.646 87.092C129.646 87.34 129.566 87.544 129.406 87.704C129.254 87.864 129.062 87.944 128.83 87.944ZM128.83 92.144C128.606 92.144 128.414 92.064 128.254 91.904C128.094 91.744 128.014 91.54 128.014 91.292C128.014 91.036 128.094 90.828 128.254 90.668C128.414 90.508 128.606 90.428 128.83 90.428C129.062 90.428 129.254 90.508 129.406 90.668C129.566 90.828 129.646 91.036 129.646 91.292C129.646 91.54 129.566 91.744 129.406 91.904C129.254 92.064 129.062 92.144 128.83 92.144ZM131.01 89.48V88.484V86.66L130.866 85.256H132.138L132.294 86.66V88.484L132.282 89.24L131.01 89.48ZM134.146 92.12L133.342 85.256H134.626L135.274 90.968C135.698 90.928 136.078 90.844 136.414 90.716C136.75 90.58 137.034 90.396 137.266 90.164C137.506 89.924 137.686 89.632 137.806 89.288C137.926 88.936 137.978 88.524 137.962 88.052V87.716C137.962 87.436 137.914 87.184 137.818 86.96C137.722 86.736 137.57 86.556 137.362 86.42C137.154 86.276 136.89 86.196 136.57 86.18L135.982 86.144L136.078 85.136L136.774 85.184C137.238 85.208 137.646 85.312 137.998 85.496C138.358 85.672 138.642 85.932 138.85 86.276C139.066 86.612 139.182 87.044 139.198 87.572L139.21 87.908C139.234 88.636 139.126 89.26 138.886 89.78C138.654 90.3 138.31 90.728 137.854 91.064C137.398 91.392 136.854 91.644 136.222 91.82C135.59 91.988 134.898 92.088 134.146 92.12ZM143.125 92V87.44C143.125 86.992 143.029 86.68 142.837 86.504C142.645 86.328 142.381 86.24 142.045 86.24H139.825V85.256H142.369C142.769 85.256 143.121 85.332 143.425 85.484C143.729 85.628 143.969 85.864 144.145 86.192C144.321 86.52 144.409 86.956 144.409 87.5V92H143.125ZM145.7 92V91.016H147.86C148.124 91.016 148.364 90.98 148.58 90.908C148.804 90.828 148.996 90.708 149.156 90.548C149.316 90.388 149.44 90.184 149.528 89.936C149.616 89.68 149.66 89.376 149.66 89.024V88.22C149.66 87.804 149.604 87.448 149.492 87.152C149.388 86.856 149.22 86.632 148.988 86.48C148.764 86.32 148.476 86.24 148.124 86.24H147.044L146.768 87.428C146.688 87.82 146.704 88.12 146.816 88.328C146.928 88.528 147.184 88.668 147.584 88.748L147.356 89.588C146.836 89.548 146.436 89.432 146.156 89.24C145.884 89.04 145.708 88.78 145.628 88.46C145.556 88.132 145.56 87.756 145.64 87.332L146.108 85.256H148.388C148.924 85.256 149.38 85.376 149.756 85.616C150.14 85.856 150.432 86.2 150.632 86.648C150.84 87.096 150.944 87.636 150.944 88.268V88.964C150.944 89.484 150.872 89.936 150.728 90.32C150.592 90.704 150.396 91.02 150.14 91.268C149.884 91.516 149.584 91.7 149.24 91.82C148.904 91.94 148.536 92 148.136 92H145.7ZM158.42 92V87.44C158.42 86.992 158.324 86.68 158.132 86.504C157.94 86.328 157.676 86.24 157.34 86.24H154.976V85.256H157.664C158.064 85.256 158.416 85.332 158.72 85.484C159.024 85.628 159.264 85.864 159.44 86.192C159.616 86.52 159.704 86.956 159.704 87.5V91.112V92H158.42ZM154.484 92V91.016H159.248L159.188 92H154.484ZM154.184 92V86.072V85.256H155.468V86.132V92H154.184ZM161.6 92.12L160.724 85.256H161.948L162.644 91.04C163.252 91 163.776 90.888 164.216 90.704C164.664 90.52 165.032 90.268 165.32 89.948C165.608 89.628 165.82 89.236 165.956 88.772C166.092 88.3 166.16 87.764 166.16 87.164L166.136 85.256H167.42L167.432 87.104C167.44 88.224 167.232 89.156 166.808 89.9C166.392 90.644 165.752 91.204 164.888 91.58C164.024 91.948 162.928 92.128 161.6 92.12ZM162.236 89.468L161.936 88.628C162.336 88.476 162.648 88.3 162.872 88.1C163.096 87.892 163.252 87.624 163.34 87.296C163.436 86.96 163.488 86.536 163.496 86.024V85.28H164.708V86C164.7 86.584 164.616 87.096 164.456 87.536C164.304 87.976 164.048 88.352 163.688 88.664C163.336 88.976 162.852 89.244 162.236 89.468Z" fill="#9EACAE"/>
<rect x="40.25" y="102.25" width="127.5" height="15.5" rx="0.75" stroke="#0C1719" stroke-opacity="0.1" stroke-width="0.5"/>
<path d="M150.356 113.5V109.7C150.356 109.327 150.276 109.067 150.116 108.92C149.956 108.773 149.736 108.7 149.456 108.7H147.606V107.88H149.726C150.06 107.88 150.353 107.943 150.606 108.07C150.86 108.19 151.06 108.387 151.206 108.66C151.353 108.933 151.426 109.297 151.426 109.75V113.5H150.356ZM152.541 113.5V109.05L152.421 107.88H153.481L153.611 109.05V113.5H152.541ZM157.134 113.5V109.7C157.134 109.327 157.054 109.067 156.894 108.92C156.734 108.773 156.514 108.7 156.234 108.7H154.384V107.88H156.504C156.837 107.88 157.131 107.943 157.384 108.07C157.637 108.19 157.837 108.387 157.984 108.66C158.131 108.933 158.204 109.297 158.204 109.75V113.5H157.134ZM161.489 113.5V109.87C161.489 109.61 161.512 109.383 161.559 109.19C161.612 108.99 161.682 108.827 161.769 108.7H159.069V107.88H163.529V108.7H162.769C162.682 108.867 162.622 109.06 162.589 109.28C162.562 109.493 162.549 109.69 162.549 109.87V113.5H161.489Z" fill="#9EACAE"/>
<path d="M115.641 142.944C115.417 142.944 115.225 142.864 115.065 142.704C114.905 142.544 114.825 142.34 114.825 142.092C114.825 141.836 114.905 141.628 115.065 141.468C115.225 141.308 115.417 141.228 115.641 141.228C115.873 141.228 116.065 141.308 116.217 141.468C116.377 141.628 116.457 141.836 116.457 142.092C116.457 142.34 116.377 142.544 116.217 142.704C116.065 142.864 115.873 142.944 115.641 142.944ZM115.641 147.144C115.417 147.144 115.225 147.064 115.065 146.904C114.905 146.744 114.825 146.54 114.825 146.292C114.825 146.036 114.905 145.828 115.065 145.668C115.225 145.508 115.417 145.428 115.641 145.428C115.873 145.428 116.065 145.508 116.217 145.668C116.377 145.828 116.457 146.036 116.457 146.292C116.457 146.54 116.377 146.744 116.217 146.904C116.065 147.064 115.873 147.144 115.641 147.144ZM121.709 147V142.44C121.709 141.992 121.609 141.68 121.409 141.504C121.217 141.328 120.953 141.24 120.617 141.24H117.677V140.256H120.941C121.341 140.256 121.693 140.332 121.997 140.484C122.309 140.628 122.549 140.864 122.717 141.192C122.893 141.52 122.981 141.956 122.981 142.5V147H121.709ZM117.641 147V143.748L117.821 142.944H118.913V143.748V147H117.641ZM128.352 147V142.56C128.352 141.68 127.988 141.24 127.26 141.24H124.14V140.256H127.584C128 140.256 128.36 140.34 128.664 140.508C128.976 140.676 129.212 140.936 129.372 141.288C129.54 141.632 129.624 142.076 129.624 142.62V147H128.352ZM124.14 147V140.772H125.424V147H124.14ZM130.91 147V146.016H133.07C133.334 146.016 133.574 145.98 133.79 145.908C134.014 145.828 134.206 145.708 134.366 145.548C134.526 145.388 134.65 145.184 134.738 144.936C134.826 144.68 134.87 144.376 134.87 144.024V143.22C134.87 142.804 134.814 142.448 134.702 142.152C134.598 141.856 134.43 141.632 134.198 141.48C133.974 141.32 133.686 141.24 133.334 141.24H132.254L131.978 142.428C131.898 142.82 131.914 143.12 132.026 143.328C132.138 143.528 132.394 143.668 132.794 143.748L132.566 144.588C132.046 144.548 131.646 144.432 131.366 144.24C131.094 144.04 130.918 143.78 130.838 143.46C130.766 143.132 130.77 142.756 130.85 142.332L131.318 140.256H133.598C134.134 140.256 134.59 140.376 134.966 140.616C135.35 140.856 135.642 141.2 135.842 141.648C136.05 142.096 136.154 142.636 136.154 143.268V143.964C136.154 144.484 136.082 144.936 135.938 145.32C135.802 145.704 135.606 146.02 135.35 146.268C135.094 146.516 134.794 146.7 134.45 146.82C134.114 146.94 133.746 147 133.346 147H130.91ZM137.868 147.12L136.992 140.256H138.216L138.912 146.04C139.52 146 140.044 145.888 140.484 145.704C140.932 145.52 141.3 145.268 141.588 144.948C141.876 144.628 142.088 144.236 142.224 143.772C142.36 143.3 142.428 142.764 142.428 142.164L142.404 140.256H143.688L143.7 142.104C143.708 143.224 143.5 144.156 143.076 144.9C142.66 145.644 142.02 146.204 141.156 146.58C140.292 146.948 139.196 147.128 137.868 147.12ZM138.504 144.468L138.204 143.628C138.604 143.476 138.916 143.3 139.14 143.1C139.364 142.892 139.52 142.624 139.608 142.296C139.704 141.96 139.756 141.536 139.764 141.024V140.28H140.976V141C140.968 141.584 140.884 142.096 140.724 142.536C140.572 142.976 140.316 143.352 139.956 143.664C139.604 143.976 139.12 144.244 138.504 144.468ZM147.053 147.024L147.173 146.04C147.805 146.176 148.309 146.164 148.685 146.004C149.061 145.844 149.329 145.552 149.489 145.128C149.657 144.696 149.733 144.144 149.717 143.472C149.709 142.904 149.637 142.456 149.501 142.128C149.373 141.792 149.193 141.552 148.961 141.408C148.737 141.264 148.469 141.192 148.157 141.192C147.877 141.192 147.637 141.252 147.437 141.372C147.237 141.484 147.077 141.64 146.957 141.84C146.837 142.04 146.753 142.264 146.705 142.512L146.381 141.912C146.533 141.304 146.793 140.864 147.161 140.592C147.537 140.312 147.949 140.172 148.397 140.172C148.773 140.172 149.113 140.236 149.417 140.364C149.729 140.484 149.997 140.676 150.221 140.94C150.445 141.204 150.617 141.548 150.737 141.972C150.865 142.388 150.933 142.888 150.941 143.472C150.957 144.376 150.813 145.124 150.509 145.716C150.205 146.308 149.761 146.72 149.177 146.952C148.593 147.184 147.885 147.208 147.053 147.024ZM144.653 147L145.517 142.356L144.581 140.256H145.901L146.729 142.404L145.937 147H144.653ZM158.42 147V142.44C158.42 141.992 158.324 141.68 158.132 141.504C157.94 141.328 157.676 141.24 157.34 141.24H154.976V140.256H157.664C158.064 140.256 158.416 140.332 158.72 140.484C159.024 140.628 159.264 140.864 159.44 141.192C159.616 141.52 159.704 141.956 159.704 142.5V146.112V147H158.42ZM154.484 147V146.016H159.248L159.188 147H154.484ZM154.184 147V141.072V140.256H155.468V141.132V147H154.184ZM161.6 147.12L160.724 140.256H161.948L162.644 146.04C163.252 146 163.776 145.888 164.216 145.704C164.664 145.52 165.032 145.268 165.32 144.948C165.608 144.628 165.82 144.236 165.956 143.772C166.092 143.3 166.16 142.764 166.16 142.164L166.136 140.256H167.42L167.432 142.104C167.44 143.224 167.232 144.156 166.808 144.9C166.392 145.644 165.752 146.204 164.888 146.58C164.024 146.948 162.928 147.128 161.6 147.12ZM162.236 144.468L161.936 143.628C162.336 143.476 162.648 143.3 162.872 143.1C163.096 142.892 163.252 142.624 163.34 142.296C163.436 141.96 163.488 141.536 163.496 141.024V140.28H164.708V141C164.7 141.584 164.616 142.096 164.456 142.536C164.304 142.976 164.048 143.352 163.688 143.664C163.336 143.976 162.852 144.244 162.236 144.468Z" fill="#9EACAE"/>
<rect x="40.25" y="157.25" width="127.5" height="15.5" rx="0.75" stroke="#0C1719" stroke-opacity="0.1" stroke-width="0.5"/>
<path d="M142.58 168.5L144.45 163.7H141.44V162.88H145.52V163.77L143.65 168.5H142.58ZM141.44 163.7V161.33H142.4V163.7H141.44ZM151.253 168.5H150.113L148.003 165.31L147.013 168.5H146.003L147.103 165.06L147.383 164.36L146.463 162.88H147.543L148.393 164.24L149.233 165.5L149.483 164.63L149.993 162.88H151.013L149.853 166.42L151.253 168.5ZM152.073 166.4V165.57V164.05L151.953 162.88H153.013L153.143 164.05V165.57L153.133 166.2L152.073 166.4ZM156.665 168.5V164.7C156.665 164.327 156.585 164.067 156.425 163.92C156.265 163.773 156.045 163.7 155.765 163.7H153.915V162.88H156.035C156.369 162.88 156.662 162.943 156.915 163.07C157.169 163.19 157.369 163.387 157.515 163.66C157.662 163.933 157.735 164.297 157.735 164.75V168.5H156.665ZM163.68 168.5H162.54L160.43 165.31L159.44 168.5H158.43L159.53 165.06L159.81 164.36L158.89 162.88H159.97L160.82 164.24L161.66 165.5L161.91 164.63L162.42 162.88H163.44L162.28 166.42L163.68 168.5Z" fill="#9EACAE"/>
<path d="M137.796 197.944C137.572 197.944 137.38 197.864 137.22 197.704C137.06 197.544 136.98 197.34 136.98 197.092C136.98 196.836 137.06 196.628 137.22 196.468C137.38 196.308 137.572 196.228 137.796 196.228C138.028 196.228 138.22 196.308 138.372 196.468C138.532 196.628 138.612 196.836 138.612 197.092C138.612 197.34 138.532 197.544 138.372 197.704C138.22 197.864 138.028 197.944 137.796 197.944ZM137.796 202.144C137.572 202.144 137.38 202.064 137.22 201.904C137.06 201.744 136.98 201.54 136.98 201.292C136.98 201.036 137.06 200.828 137.22 200.668C137.38 200.508 137.572 200.428 137.796 200.428C138.028 200.428 138.22 200.508 138.372 200.668C138.532 200.828 138.612 201.036 138.612 201.292C138.612 201.54 138.532 201.744 138.372 201.904C138.22 202.064 138.028 202.144 137.796 202.144ZM139.496 202.18L139.376 201.292C139.696 201.26 139.94 201.196 140.108 201.1C140.276 200.996 140.392 200.852 140.456 200.668C140.52 200.476 140.552 200.24 140.552 199.96V195.256H143.792C144.192 195.256 144.544 195.332 144.848 195.484C145.152 195.628 145.392 195.864 145.568 196.192C145.744 196.52 145.832 196.956 145.832 197.5V202H144.548V197.44C144.548 196.992 144.452 196.68 144.26 196.504C144.068 196.328 143.804 196.24 143.468 196.24H141.824V199.804C141.824 200.34 141.74 200.776 141.572 201.112C141.412 201.44 141.16 201.688 140.816 201.856C140.48 202.024 140.04 202.132 139.496 202.18ZM150.19 202V197.44C150.19 196.992 150.09 196.68 149.89 196.504C149.698 196.328 149.434 196.24 149.098 196.24H146.854V195.256H149.422C149.822 195.256 150.174 195.332 150.478 195.484C150.79 195.628 151.03 195.864 151.198 196.192C151.374 196.52 151.462 196.956 151.462 197.5V202H150.19ZM146.854 202V201.016H152.29V202H146.854ZM153.312 202V196.66L153.168 195.256H154.44L154.596 196.66V202H153.312ZM155.463 202.18L155.343 201.292C155.663 201.26 155.907 201.196 156.075 201.1C156.243 200.996 156.359 200.852 156.423 200.668C156.487 200.476 156.519 200.24 156.519 199.96V195.256H159.759C160.159 195.256 160.511 195.332 160.815 195.484C161.119 195.628 161.359 195.864 161.535 196.192C161.711 196.52 161.799 196.956 161.799 197.5V202H160.515V197.44C160.515 196.992 160.419 196.68 160.227 196.504C160.035 196.328 159.771 196.24 159.435 196.24H157.791V199.804C157.791 200.34 157.707 200.776 157.539 201.112C157.379 201.44 157.127 201.688 156.783 201.856C156.447 202.024 156.007 202.132 155.463 202.18ZM162.737 202V201.016H164.465C164.857 201.016 165.177 200.94 165.425 200.788C165.673 200.628 165.857 200.4 165.977 200.104C166.097 199.8 166.157 199.444 166.157 199.036V198.22C166.157 197.804 166.097 197.448 165.977 197.152C165.857 196.856 165.673 196.632 165.425 196.48C165.177 196.32 164.857 196.24 164.465 196.24H162.737V195.256H164.777C165.353 195.256 165.837 195.376 166.229 195.616C166.629 195.856 166.929 196.204 167.129 196.66C167.337 197.108 167.441 197.648 167.441 198.28V198.976C167.441 199.616 167.337 200.164 167.129 200.62C166.929 201.068 166.629 201.412 166.229 201.652C165.837 201.884 165.353 202 164.777 202H162.737Z" fill="#9EACAE"/>
<rect x="40.25" y="212.25" width="127.5" height="15.5" rx="0.75" stroke="#0C1719" stroke-opacity="0.1" stroke-width="0.5"/>
<path d="M122.622 223.62C122.436 223.62 122.276 223.553 122.142 223.42C122.009 223.287 121.942 223.117 121.942 222.91C121.942 222.697 122.009 222.523 122.142 222.39C122.276 222.257 122.436 222.19 122.622 222.19C122.816 222.19 122.976 222.257 123.102 222.39C123.236 222.523 123.302 222.697 123.302 222.91C123.302 223.117 123.236 223.287 123.102 223.42C122.976 223.553 122.816 223.62 122.622 223.62ZM125.059 223.62C124.872 223.62 124.712 223.553 124.579 223.42C124.446 223.287 124.379 223.117 124.379 222.91C124.379 222.697 124.446 222.523 124.579 222.39C124.712 222.257 124.872 222.19 125.059 222.19C125.252 222.19 125.412 222.257 125.539 222.39C125.672 222.523 125.739 222.697 125.739 222.91C125.739 223.117 125.672 223.287 125.539 223.42C125.412 223.553 125.252 223.62 125.059 223.62ZM127.496 223.62C127.309 223.62 127.149 223.553 127.016 223.42C126.882 223.287 126.816 223.117 126.816 222.91C126.816 222.697 126.882 222.523 127.016 222.39C127.149 222.257 127.309 222.19 127.496 222.19C127.689 222.19 127.849 222.257 127.976 222.39C128.109 222.523 128.176 222.697 128.176 222.91C128.176 223.117 128.109 223.287 127.976 223.42C127.849 223.553 127.689 223.62 127.496 223.62ZM129.933 223.62C129.746 223.62 129.586 223.553 129.453 223.42C129.319 223.287 129.253 223.117 129.253 222.91C129.253 222.697 129.319 222.523 129.453 222.39C129.586 222.257 129.746 222.19 129.933 222.19C130.126 222.19 130.286 222.257 130.413 222.39C130.546 222.523 130.613 222.697 130.613 222.91C130.613 223.117 130.546 223.287 130.413 223.42C130.286 223.553 130.126 223.62 129.933 223.62ZM131.749 225.5V219.05L131.629 217.88H132.689L132.819 219.05V225.5H131.749ZM133.942 223.5V219.05L133.822 217.88H134.882L135.012 219.05V223.5H133.942ZM136.954 223.5L138.824 218.7H135.814V217.88H139.894V218.77L138.024 223.5H136.954ZM135.814 218.7V216.33H136.774V218.7H135.814ZM145.628 223.5H144.488L142.378 220.31L141.388 223.5H140.378L141.478 220.06L141.758 219.36L140.838 217.88H141.918L142.768 219.24L143.608 220.5L143.858 219.63L144.368 217.88H145.388L144.228 221.42L145.628 223.5ZM149.069 223.5L150.939 218.7H147.929V217.88H152.009V218.77L150.139 223.5H149.069ZM147.929 218.7V216.33H148.889V218.7H147.929ZM157.743 223.5H156.603L154.493 220.31L153.503 223.5H152.493L153.593 220.06L153.873 219.36L152.953 217.88H154.033L154.883 219.24L155.723 220.5L155.973 219.63L156.483 217.88H157.503L156.343 221.42L157.743 223.5ZM160.362 223.5L159.972 221.33V219.54C159.972 219.253 159.932 219.043 159.852 218.91C159.779 218.777 159.635 218.693 159.422 218.66L158.782 218.57L158.922 217.77L159.912 217.91C160.319 217.963 160.605 218.117 160.772 218.37C160.945 218.617 161.032 218.97 161.032 219.43V221.35L161.372 223.5H160.362ZM158.472 223.66L158.082 222.81C158.562 222.65 158.959 222.44 159.272 222.18C159.592 221.92 159.842 221.59 160.022 221.19L160.372 221.79C160.239 222.097 160.085 222.37 159.912 222.61C159.745 222.85 159.542 223.057 159.302 223.23C159.069 223.403 158.792 223.547 158.472 223.66ZM162.307 221.4V220.57V219.05L162.187 217.88H163.247L163.377 219.05V220.57L163.367 221.2L162.307 221.4Z" fill="#9EACAE"/>
<path d="M144.804 259.4V251.66L144.66 250.256H145.932L146.088 251.66V259.4H144.804ZM147.435 257V251.66L147.291 250.256H148.563L148.719 251.66V257H147.435ZM150.018 257V256.016H152.178C152.442 256.016 152.682 255.98 152.898 255.908C153.122 255.828 153.314 255.708 153.474 255.548C153.634 255.388 153.758 255.184 153.846 254.936C153.934 254.68 153.978 254.376 153.978 254.024V253.22C153.978 252.804 153.922 252.448 153.81 252.152C153.706 251.856 153.538 251.632 153.306 251.48C153.082 251.32 152.794 251.24 152.442 251.24H151.362L151.086 252.428C151.006 252.82 151.022 253.12 151.134 253.328C151.246 253.528 151.502 253.668 151.902 253.748L151.674 254.588C151.154 254.548 150.754 254.432 150.474 254.24C150.202 254.04 150.026 253.78 149.946 253.46C149.874 253.132 149.878 252.756 149.958 252.332L150.426 250.256H152.706C153.242 250.256 153.698 250.376 154.074 250.616C154.458 250.856 154.75 251.2 154.95 251.648C155.158 252.096 155.262 252.636 155.262 253.268V253.964C155.262 254.484 155.19 254.936 155.046 255.32C154.91 255.704 154.714 256.02 154.458 256.268C154.202 256.516 153.902 256.7 153.558 256.82C153.222 256.94 152.854 257 152.454 257H150.018ZM157.384 257L159.628 251.24H156.016V250.256H160.912V251.324L158.668 257H157.384ZM156.016 251.24V248.396H157.168V251.24H156.016ZM162.5 257.12L161.696 250.256H162.98L163.628 255.968C164.052 255.928 164.432 255.844 164.768 255.716C165.104 255.58 165.388 255.396 165.62 255.164C165.86 254.924 166.04 254.632 166.16 254.288C166.28 253.936 166.332 253.524 166.316 253.052V252.716C166.316 252.436 166.268 252.184 166.172 251.96C166.076 251.736 165.924 251.556 165.716 251.42C165.508 251.276 165.244 251.196 164.924 251.18L164.336 251.144L164.432 250.136L165.128 250.184C165.592 250.208 166 250.312 166.352 250.496C166.712 250.672 166.996 250.932 167.204 251.276C167.42 251.612 167.536 252.044 167.552 252.572L167.564 252.908C167.588 253.636 167.48 254.26 167.24 254.78C167.008 255.3 166.664 255.728 166.208 256.064C165.752 256.392 165.208 256.644 164.576 256.82C163.944 256.988 163.252 257.088 162.5 257.12Z" fill="#9EACAE"/>
<path d="M321.012 64.268C320.751 64.268 320.527 64.1747 320.34 63.988C320.154 63.8013 320.06 63.5633 320.06 63.274C320.06 62.9753 320.154 62.7327 320.34 62.546C320.527 62.3593 320.751 62.266 321.012 62.266C321.283 62.266 321.507 62.3593 321.684 62.546C321.871 62.7327 321.964 62.9753 321.964 63.274C321.964 63.5633 321.871 63.8013 321.684 63.988C321.507 64.1747 321.283 64.268 321.012 64.268ZM321.012 69.168C320.751 69.168 320.527 69.0747 320.34 68.888C320.154 68.7013 320.06 68.4633 320.06 68.174C320.06 67.8753 320.154 67.6327 320.34 67.446C320.527 67.2593 320.751 67.166 321.012 67.166C321.283 67.166 321.507 67.2593 321.684 67.446C321.871 67.6327 321.964 67.8753 321.964 68.174C321.964 68.4633 321.871 68.7013 321.684 68.888C321.507 69.0747 321.283 69.168 321.012 69.168ZM324.704 69L327.322 62.28H323.108V61.132H328.82V62.378L326.202 69H324.704ZM323.108 62.28V58.962H324.452V62.28H323.108ZM329.566 69.462L329.356 68.286L332.184 67.754C332.688 67.6513 333.099 67.502 333.416 67.306C333.734 67.1007 333.976 66.83 334.144 66.494C334.322 66.158 334.448 65.7473 334.522 65.262C334.597 64.7673 334.639 64.1793 334.648 63.498C334.658 62.8167 334.662 62.028 334.662 61.132H336.146C336.146 62.1027 336.128 62.9707 336.09 63.736C336.053 64.5013 335.969 65.178 335.838 65.766C335.708 66.3447 335.502 66.844 335.222 67.264C334.942 67.684 334.555 68.034 334.06 68.314C333.575 68.594 332.954 68.804 332.198 68.944L329.566 69.462ZM331.764 67.964L330 61.132H331.498L333.192 67.964H331.764ZM341.057 69V63.68C341.057 63.1573 340.94 62.7933 340.707 62.588C340.483 62.3827 340.175 62.28 339.783 62.28H337.165V61.132H340.161C340.628 61.132 341.038 61.2207 341.393 61.398C341.757 61.566 342.037 61.8413 342.233 62.224C342.438 62.6067 342.541 63.1153 342.541 63.75V69H341.057ZM337.165 69V67.852H343.507V69H337.165Z" fill="#0C1719"/>
<path d="M304.83 87.944C304.606 87.944 304.414 87.864 304.254 87.704C304.094 87.544 304.014 87.34 304.014 87.092C304.014 86.836 304.094 86.628 304.254 86.468C304.414 86.308 304.606 86.228 304.83 86.228C305.062 86.228 305.254 86.308 305.406 86.468C305.566 86.628 305.646 86.836 305.646 87.092C305.646 87.34 305.566 87.544 305.406 87.704C305.254 87.864 305.062 87.944 304.83 87.944ZM304.83 92.144C304.606 92.144 304.414 92.064 304.254 91.904C304.094 91.744 304.014 91.54 304.014 91.292C304.014 91.036 304.094 90.828 304.254 90.668C304.414 90.508 304.606 90.428 304.83 90.428C305.062 90.428 305.254 90.508 305.406 90.668C305.566 90.828 305.646 91.036 305.646 91.292C305.646 91.54 305.566 91.744 305.406 91.904C305.254 92.064 305.062 92.144 304.83 92.144ZM307.01 89.48V88.484V86.66L306.866 85.256H308.138L308.294 86.66V88.484L308.282 89.24L307.01 89.48ZM310.146 92.12L309.342 85.256H310.626L311.274 90.968C311.698 90.928 312.078 90.844 312.414 90.716C312.75 90.58 313.034 90.396 313.266 90.164C313.506 89.924 313.686 89.632 313.806 89.288C313.926 88.936 313.978 88.524 313.962 88.052V87.716C313.962 87.436 313.914 87.184 313.818 86.96C313.722 86.736 313.57 86.556 313.362 86.42C313.154 86.276 312.89 86.196 312.57 86.18L311.982 86.144L312.078 85.136L312.774 85.184C313.238 85.208 313.646 85.312 313.998 85.496C314.358 85.672 314.642 85.932 314.85 86.276C315.066 86.612 315.182 87.044 315.198 87.572L315.21 87.908C315.234 88.636 315.126 89.26 314.886 89.78C314.654 90.3 314.31 90.728 313.854 91.064C313.398 91.392 312.854 91.644 312.222 91.82C311.59 91.988 310.898 92.088 310.146 92.12ZM319.125 92V87.44C319.125 86.992 319.029 86.68 318.837 86.504C318.645 86.328 318.381 86.24 318.045 86.24H315.825V85.256H318.369C318.769 85.256 319.121 85.332 319.425 85.484C319.729 85.628 319.969 85.864 320.145 86.192C320.321 86.52 320.409 86.956 320.409 87.5V92H319.125ZM321.7 92V91.016H323.86C324.124 91.016 324.364 90.98 324.58 90.908C324.804 90.828 324.996 90.708 325.156 90.548C325.316 90.388 325.44 90.184 325.528 89.936C325.616 89.68 325.66 89.376 325.66 89.024V88.22C325.66 87.804 325.604 87.448 325.492 87.152C325.388 86.856 325.22 86.632 324.988 86.48C324.764 86.32 324.476 86.24 324.124 86.24H323.044L322.768 87.428C322.688 87.82 322.704 88.12 322.816 88.328C322.928 88.528 323.184 88.668 323.584 88.748L323.356 89.588C322.836 89.548 322.436 89.432 322.156 89.24C321.884 89.04 321.708 88.78 321.628 88.46C321.556 88.132 321.56 87.756 321.64 87.332L322.108 85.256H324.388C324.924 85.256 325.38 85.376 325.756 85.616C326.14 85.856 326.432 86.2 326.632 86.648C326.84 87.096 326.944 87.636 326.944 88.268V88.964C326.944 89.484 326.872 89.936 326.728 90.32C326.592 90.704 326.396 91.02 326.14 91.268C325.884 91.516 325.584 91.7 325.24 91.82C324.904 91.94 324.536 92 324.136 92H321.7ZM334.42 92V87.44C334.42 86.992 334.324 86.68 334.132 86.504C333.94 86.328 333.676 86.24 333.34 86.24H330.976V85.256H333.664C334.064 85.256 334.416 85.332 334.72 85.484C335.024 85.628 335.264 85.864 335.44 86.192C335.616 86.52 335.704 86.956 335.704 87.5V91.112V92H334.42ZM330.484 92V91.016H335.248L335.188 92H330.484ZM330.184 92V86.072V85.256H331.468V86.132V92H330.184ZM337.6 92.12L336.724 85.256H337.948L338.644 91.04C339.252 91 339.776 90.888 340.216 90.704C340.664 90.52 341.032 90.268 341.32 89.948C341.608 89.628 341.82 89.236 341.956 88.772C342.092 88.3 342.16 87.764 342.16 87.164L342.136 85.256H343.42L343.432 87.104C343.44 88.224 343.232 89.156 342.808 89.9C342.392 90.644 341.752 91.204 340.888 91.58C340.024 91.948 338.928 92.128 337.6 92.12ZM338.236 89.468L337.936 88.628C338.336 88.476 338.648 88.3 338.872 88.1C339.096 87.892 339.252 87.624 339.34 87.296C339.436 86.96 339.488 86.536 339.496 86.024V85.28H340.708V86C340.7 86.584 340.616 87.096 340.456 87.536C340.304 87.976 340.048 88.352 339.688 88.664C339.336 88.976 338.852 89.244 338.236 89.468Z" fill="#9EACAE"/>
<rect x="216.25" y="102.25" width="127.5" height="15.5" rx="0.75" stroke="#0C1719" stroke-opacity="0.1" stroke-width="0.5"/>
<path d="M326.356 113.5V109.7C326.356 109.327 326.276 109.067 326.116 108.92C325.956 108.773 325.736 108.7 325.456 108.7H323.606V107.88H325.726C326.06 107.88 326.353 107.943 326.606 108.07C326.86 108.19 327.06 108.387 327.206 108.66C327.353 108.933 327.426 109.297 327.426 109.75V113.5H326.356ZM328.541 113.5V109.05L328.421 107.88H329.481L329.611 109.05V113.5H328.541ZM333.134 113.5V109.7C333.134 109.327 333.054 109.067 332.894 108.92C332.734 108.773 332.514 108.7 332.234 108.7H330.384V107.88H332.504C332.837 107.88 333.131 107.943 333.384 108.07C333.637 108.19 333.837 108.387 333.984 108.66C334.131 108.933 334.204 109.297 334.204 109.75V113.5H333.134ZM337.489 113.5V109.87C337.489 109.61 337.512 109.383 337.559 109.19C337.612 108.99 337.682 108.827 337.769 108.7H335.069V107.88H339.529V108.7H338.769C338.682 108.867 338.622 109.06 338.589 109.28C338.562 109.493 338.549 109.69 338.549 109.87V113.5H337.489Z" fill="#9EACAE"/>
<path d="M291.641 142.944C291.417 142.944 291.225 142.864 291.065 142.704C290.905 142.544 290.825 142.34 290.825 142.092C290.825 141.836 290.905 141.628 291.065 141.468C291.225 141.308 291.417 141.228 291.641 141.228C291.873 141.228 292.065 141.308 292.217 141.468C292.377 141.628 292.457 141.836 292.457 142.092C292.457 142.34 292.377 142.544 292.217 142.704C292.065 142.864 291.873 142.944 291.641 142.944ZM291.641 147.144C291.417 147.144 291.225 147.064 291.065 146.904C290.905 146.744 290.825 146.54 290.825 146.292C290.825 146.036 290.905 145.828 291.065 145.668C291.225 145.508 291.417 145.428 291.641 145.428C291.873 145.428 292.065 145.508 292.217 145.668C292.377 145.828 292.457 146.036 292.457 146.292C292.457 146.54 292.377 146.744 292.217 146.904C292.065 147.064 291.873 147.144 291.641 147.144ZM297.709 147V142.44C297.709 141.992 297.609 141.68 297.409 141.504C297.217 141.328 296.953 141.24 296.617 141.24H293.677V140.256H296.941C297.341 140.256 297.693 140.332 297.997 140.484C298.309 140.628 298.549 140.864 298.717 141.192C298.893 141.52 298.981 141.956 298.981 142.5V147H297.709ZM293.641 147V143.748L293.821 142.944H294.913V143.748V147H293.641ZM304.352 147V142.56C304.352 141.68 303.988 141.24 303.26 141.24H300.14V140.256H303.584C304 140.256 304.36 140.34 304.664 140.508C304.976 140.676 305.212 140.936 305.372 141.288C305.54 141.632 305.624 142.076 305.624 142.62V147H304.352ZM300.14 147V140.772H301.424V147H300.14ZM306.91 147V146.016H309.07C309.334 146.016 309.574 145.98 309.79 145.908C310.014 145.828 310.206 145.708 310.366 145.548C310.526 145.388 310.65 145.184 310.738 144.936C310.826 144.68 310.87 144.376 310.87 144.024V143.22C310.87 142.804 310.814 142.448 310.702 142.152C310.598 141.856 310.43 141.632 310.198 141.48C309.974 141.32 309.686 141.24 309.334 141.24H308.254L307.978 142.428C307.898 142.82 307.914 143.12 308.026 143.328C308.138 143.528 308.394 143.668 308.794 143.748L308.566 144.588C308.046 144.548 307.646 144.432 307.366 144.24C307.094 144.04 306.918 143.78 306.838 143.46C306.766 143.132 306.77 142.756 306.85 142.332L307.318 140.256H309.598C310.134 140.256 310.59 140.376 310.966 140.616C311.35 140.856 311.642 141.2 311.842 141.648C312.05 142.096 312.154 142.636 312.154 143.268V143.964C312.154 144.484 312.082 144.936 311.938 145.32C311.802 145.704 311.606 146.02 311.35 146.268C311.094 146.516 310.794 146.7 310.45 146.82C310.114 146.94 309.746 147 309.346 147H306.91ZM313.868 147.12L312.992 140.256H314.216L314.912 146.04C315.52 146 316.044 145.888 316.484 145.704C316.932 145.52 317.3 145.268 317.588 144.948C317.876 144.628 318.088 144.236 318.224 143.772C318.36 143.3 318.428 142.764 318.428 142.164L318.404 140.256H319.688L319.7 142.104C319.708 143.224 319.5 144.156 319.076 144.9C318.66 145.644 318.02 146.204 317.156 146.58C316.292 146.948 315.196 147.128 313.868 147.12ZM314.504 144.468L314.204 143.628C314.604 143.476 314.916 143.3 315.14 143.1C315.364 142.892 315.52 142.624 315.608 142.296C315.704 141.96 315.756 141.536 315.764 141.024V140.28H316.976V141C316.968 141.584 316.884 142.096 316.724 142.536C316.572 142.976 316.316 143.352 315.956 143.664C315.604 143.976 315.12 144.244 314.504 144.468ZM323.053 147.024L323.173 146.04C323.805 146.176 324.309 146.164 324.685 146.004C325.061 145.844 325.329 145.552 325.489 145.128C325.657 144.696 325.733 144.144 325.717 143.472C325.709 142.904 325.637 142.456 325.501 142.128C325.373 141.792 325.193 141.552 324.961 141.408C324.737 141.264 324.469 141.192 324.157 141.192C323.877 141.192 323.637 141.252 323.437 141.372C323.237 141.484 323.077 141.64 322.957 141.84C322.837 142.04 322.753 142.264 322.705 142.512L322.381 141.912C322.533 141.304 322.793 140.864 323.161 140.592C323.537 140.312 323.949 140.172 324.397 140.172C324.773 140.172 325.113 140.236 325.417 140.364C325.729 140.484 325.997 140.676 326.221 140.94C326.445 141.204 326.617 141.548 326.737 141.972C326.865 142.388 326.933 142.888 326.941 143.472C326.957 144.376 326.813 145.124 326.509 145.716C326.205 146.308 325.761 146.72 325.177 146.952C324.593 147.184 323.885 147.208 323.053 147.024ZM320.653 147L321.517 142.356L320.581 140.256H321.901L322.729 142.404L321.937 147H320.653ZM334.42 147V142.44C334.42 141.992 334.324 141.68 334.132 141.504C333.94 141.328 333.676 141.24 333.34 141.24H330.976V140.256H333.664C334.064 140.256 334.416 140.332 334.72 140.484C335.024 140.628 335.264 140.864 335.44 141.192C335.616 141.52 335.704 141.956 335.704 142.5V146.112V147H334.42ZM330.484 147V146.016H335.248L335.188 147H330.484ZM330.184 147V141.072V140.256H331.468V141.132V147H330.184ZM337.6 147.12L336.724 140.256H337.948L338.644 146.04C339.252 146 339.776 145.888 340.216 145.704C340.664 145.52 341.032 145.268 341.32 144.948C341.608 144.628 341.82 144.236 341.956 143.772C342.092 143.3 342.16 142.764 342.16 142.164L342.136 140.256H343.42L343.432 142.104C343.44 143.224 343.232 144.156 342.808 144.9C342.392 145.644 341.752 146.204 340.888 146.58C340.024 146.948 338.928 147.128 337.6 147.12ZM338.236 144.468L337.936 143.628C338.336 143.476 338.648 143.3 338.872 143.1C339.096 142.892 339.252 142.624 339.34 142.296C339.436 141.96 339.488 141.536 339.496 141.024V140.28H340.708V141C340.7 141.584 340.616 142.096 340.456 142.536C340.304 142.976 340.048 143.352 339.688 143.664C339.336 143.976 338.852 144.244 338.236 144.468Z" fill="#9EACAE"/>
<rect x="216.25" y="157.25" width="127.5" height="15.5" rx="0.75" stroke="#0C1719" stroke-opacity="0.1" stroke-width="0.5"/>
<path d="M318.58 168.5L320.45 163.7H317.44V162.88H321.52V163.77L319.65 168.5H318.58ZM317.44 163.7V161.33H318.4V163.7H317.44ZM327.253 168.5H326.113L324.003 165.31L323.013 168.5H322.003L323.103 165.06L323.383 164.36L322.463 162.88H323.543L324.393 164.24L325.233 165.5L325.483 164.63L325.993 162.88H327.013L325.853 166.42L327.253 168.5ZM328.073 166.4V165.57V164.05L327.953 162.88H329.013L329.143 164.05V165.57L329.133 166.2L328.073 166.4ZM332.665 168.5V164.7C332.665 164.327 332.585 164.067 332.425 163.92C332.265 163.773 332.045 163.7 331.765 163.7H329.915V162.88H332.035C332.369 162.88 332.662 162.943 332.915 163.07C333.169 163.19 333.369 163.387 333.515 163.66C333.662 163.933 333.735 164.297 333.735 164.75V168.5H332.665ZM339.68 168.5H338.54L336.43 165.31L335.44 168.5H334.43L335.53 165.06L335.81 164.36L334.89 162.88H335.97L336.82 164.24L337.66 165.5L337.91 164.63L338.42 162.88H339.44L338.28 166.42L339.68 168.5Z" fill="#9EACAE"/>
<path d="M313.796 197.944C313.572 197.944 313.38 197.864 313.22 197.704C313.06 197.544 312.98 197.34 312.98 197.092C312.98 196.836 313.06 196.628 313.22 196.468C313.38 196.308 313.572 196.228 313.796 196.228C314.028 196.228 314.22 196.308 314.372 196.468C314.532 196.628 314.612 196.836 314.612 197.092C314.612 197.34 314.532 197.544 314.372 197.704C314.22 197.864 314.028 197.944 313.796 197.944ZM313.796 202.144C313.572 202.144 313.38 202.064 313.22 201.904C313.06 201.744 312.98 201.54 312.98 201.292C312.98 201.036 313.06 200.828 313.22 200.668C313.38 200.508 313.572 200.428 313.796 200.428C314.028 200.428 314.22 200.508 314.372 200.668C314.532 200.828 314.612 201.036 314.612 201.292C314.612 201.54 314.532 201.744 314.372 201.904C314.22 202.064 314.028 202.144 313.796 202.144ZM315.496 202.18L315.376 201.292C315.696 201.26 315.94 201.196 316.108 201.1C316.276 200.996 316.392 200.852 316.456 200.668C316.52 200.476 316.552 200.24 316.552 199.96V195.256H319.792C320.192 195.256 320.544 195.332 320.848 195.484C321.152 195.628 321.392 195.864 321.568 196.192C321.744 196.52 321.832 196.956 321.832 197.5V202H320.548V197.44C320.548 196.992 320.452 196.68 320.26 196.504C320.068 196.328 319.804 196.24 319.468 196.24H317.824V199.804C317.824 200.34 317.74 200.776 317.572 201.112C317.412 201.44 317.16 201.688 316.816 201.856C316.48 202.024 316.04 202.132 315.496 202.18ZM326.19 202V197.44C326.19 196.992 326.09 196.68 325.89 196.504C325.698 196.328 325.434 196.24 325.098 196.24H322.854V195.256H325.422C325.822 195.256 326.174 195.332 326.478 195.484C326.79 195.628 327.03 195.864 327.198 196.192C327.374 196.52 327.462 196.956 327.462 197.5V202H326.19ZM322.854 202V201.016H328.29V202H322.854ZM329.312 202V196.66L329.168 195.256H330.44L330.596 196.66V202H329.312ZM331.463 202.18L331.343 201.292C331.663 201.26 331.907 201.196 332.075 201.1C332.243 200.996 332.359 200.852 332.423 200.668C332.487 200.476 332.519 200.24 332.519 199.96V195.256H335.759C336.159 195.256 336.511 195.332 336.815 195.484C337.119 195.628 337.359 195.864 337.535 196.192C337.711 196.52 337.799 196.956 337.799 197.5V202H336.515V197.44C336.515 196.992 336.419 196.68 336.227 196.504C336.035 196.328 335.771 196.24 335.435 196.24H333.791V199.804C333.791 200.34 333.707 200.776 333.539 201.112C333.379 201.44 333.127 201.688 332.783 201.856C332.447 202.024 332.007 202.132 331.463 202.18ZM338.737 202V201.016H340.465C340.857 201.016 341.177 200.94 341.425 200.788C341.673 200.628 341.857 200.4 341.977 200.104C342.097 199.8 342.157 199.444 342.157 199.036V198.22C342.157 197.804 342.097 197.448 341.977 197.152C341.857 196.856 341.673 196.632 341.425 196.48C341.177 196.32 340.857 196.24 340.465 196.24H338.737V195.256H340.777C341.353 195.256 341.837 195.376 342.229 195.616C342.629 195.856 342.929 196.204 343.129 196.66C343.337 197.108 343.441 197.648 343.441 198.28V198.976C343.441 199.616 343.337 200.164 343.129 200.62C342.929 201.068 342.629 201.412 342.229 201.652C341.837 201.884 341.353 202 340.777 202H338.737Z" fill="#9EACAE"/>
<rect x="216.25" y="212.25" width="127.5" height="15.5" rx="0.75" stroke="#0C1719" stroke-opacity="0.1" stroke-width="0.5"/>
<path d="M298.622 223.62C298.436 223.62 298.276 223.553 298.142 223.42C298.009 223.287 297.942 223.117 297.942 222.91C297.942 222.697 298.009 222.523 298.142 222.39C298.276 222.257 298.436 222.19 298.622 222.19C298.816 222.19 298.976 222.257 299.102 222.39C299.236 222.523 299.302 222.697 299.302 222.91C299.302 223.117 299.236 223.287 299.102 223.42C298.976 223.553 298.816 223.62 298.622 223.62ZM301.059 223.62C300.872 223.62 300.712 223.553 300.579 223.42C300.446 223.287 300.379 223.117 300.379 222.91C300.379 222.697 300.446 222.523 300.579 222.39C300.712 222.257 300.872 222.19 301.059 222.19C301.252 222.19 301.412 222.257 301.539 222.39C301.672 222.523 301.739 222.697 301.739 222.91C301.739 223.117 301.672 223.287 301.539 223.42C301.412 223.553 301.252 223.62 301.059 223.62ZM303.496 223.62C303.309 223.62 303.149 223.553 303.016 223.42C302.882 223.287 302.816 223.117 302.816 222.91C302.816 222.697 302.882 222.523 303.016 222.39C303.149 222.257 303.309 222.19 303.496 222.19C303.689 222.19 303.849 222.257 303.976 222.39C304.109 222.523 304.176 222.697 304.176 222.91C304.176 223.117 304.109 223.287 303.976 223.42C303.849 223.553 303.689 223.62 303.496 223.62ZM305.933 223.62C305.746 223.62 305.586 223.553 305.453 223.42C305.319 223.287 305.253 223.117 305.253 222.91C305.253 222.697 305.319 222.523 305.453 222.39C305.586 222.257 305.746 222.19 305.933 222.19C306.126 222.19 306.286 222.257 306.413 222.39C306.546 222.523 306.613 222.697 306.613 222.91C306.613 223.117 306.546 223.287 306.413 223.42C306.286 223.553 306.126 223.62 305.933 223.62ZM307.749 225.5V219.05L307.629 217.88H308.689L308.819 219.05V225.5H307.749ZM309.942 223.5V219.05L309.822 217.88H310.882L311.012 219.05V223.5H309.942ZM312.954 223.5L314.824 218.7H311.814V217.88H315.894V218.77L314.024 223.5H312.954ZM311.814 218.7V216.33H312.774V218.7H311.814ZM321.628 223.5H320.488L318.378 220.31L317.388 223.5H316.378L317.478 220.06L317.758 219.36L316.838 217.88H317.918L318.768 219.24L319.608 220.5L319.858 219.63L320.368 217.88H321.388L320.228 221.42L321.628 223.5ZM325.069 223.5L326.939 218.7H323.929V217.88H328.009V218.77L326.139 223.5H325.069ZM323.929 218.7V216.33H324.889V218.7H323.929ZM333.743 223.5H332.603L330.493 220.31L329.503 223.5H328.493L329.593 220.06L329.873 219.36L328.953 217.88H330.033L330.883 219.24L331.723 220.5L331.973 219.63L332.483 217.88H333.503L332.343 221.42L333.743 223.5ZM336.362 223.5L335.972 221.33V219.54C335.972 219.253 335.932 219.043 335.852 218.91C335.779 218.777 335.635 218.693 335.422 218.66L334.782 218.57L334.922 217.77L335.912 217.91C336.319 217.963 336.605 218.117 336.772 218.37C336.945 218.617 337.032 218.97 337.032 219.43V221.35L337.372 223.5H336.362ZM334.472 223.66L334.082 222.81C334.562 222.65 334.959 222.44 335.272 222.18C335.592 221.92 335.842 221.59 336.022 221.19L336.372 221.79C336.239 222.097 336.085 222.37 335.912 222.61C335.745 222.85 335.542 223.057 335.302 223.23C335.069 223.403 334.792 223.547 334.472 223.66ZM338.307 221.4V220.57V219.05L338.187 217.88H339.247L339.377 219.05V220.57L339.367 221.2L338.307 221.4Z" fill="#9EACAE"/>
<path d="M320.804 259.4V251.66L320.66 250.256H321.932L322.088 251.66V259.4H320.804ZM323.435 257V251.66L323.291 250.256H324.563L324.719 251.66V257H323.435ZM326.018 257V256.016H328.178C328.442 256.016 328.682 255.98 328.898 255.908C329.122 255.828 329.314 255.708 329.474 255.548C329.634 255.388 329.758 255.184 329.846 254.936C329.934 254.68 329.978 254.376 329.978 254.024V253.22C329.978 252.804 329.922 252.448 329.81 252.152C329.706 251.856 329.538 251.632 329.306 251.48C329.082 251.32 328.794 251.24 328.442 251.24H327.362L327.086 252.428C327.006 252.82 327.022 253.12 327.134 253.328C327.246 253.528 327.502 253.668 327.902 253.748L327.674 254.588C327.154 254.548 326.754 254.432 326.474 254.24C326.202 254.04 326.026 253.78 325.946 253.46C325.874 253.132 325.878 252.756 325.958 252.332L326.426 250.256H328.706C329.242 250.256 329.698 250.376 330.074 250.616C330.458 250.856 330.75 251.2 330.95 251.648C331.158 252.096 331.262 252.636 331.262 253.268V253.964C331.262 254.484 331.19 254.936 331.046 255.32C330.91 255.704 330.714 256.02 330.458 256.268C330.202 256.516 329.902 256.7 329.558 256.82C329.222 256.94 328.854 257 328.454 257H326.018ZM333.384 257L335.628 251.24H332.016V250.256H336.912V251.324L334.668 257H333.384ZM332.016 251.24V248.396H333.168V251.24H332.016ZM338.5 257.12L337.696 250.256H338.98L339.628 255.968C340.052 255.928 340.432 255.844 340.768 255.716C341.104 255.58 341.388 255.396 341.62 255.164C341.86 254.924 342.04 254.632 342.16 254.288C342.28 253.936 342.332 253.524 342.316 253.052V252.716C342.316 252.436 342.268 252.184 342.172 251.96C342.076 251.736 341.924 251.556 341.716 251.42C341.508 251.276 341.244 251.196 340.924 251.18L340.336 251.144L340.432 250.136L341.128 250.184C341.592 250.208 342 250.312 342.352 250.496C342.712 250.672 342.996 250.932 343.204 251.276C343.42 251.612 343.536 252.044 343.552 252.572L343.564 252.908C343.588 253.636 343.48 254.26 343.24 254.78C343.008 255.3 342.664 255.728 342.208 256.064C341.752 256.392 341.208 256.644 340.576 256.82C339.944 256.988 339.252 257.088 338.5 257.12Z" fill="#9EACAE"/>
</g>
</g>
<path d="M0 -1H358C364.075 -1 369 3.92487 369 10H367C367 5.02944 362.971 1 358 1H0V-1ZM368 265H0H368ZM0 265V0V265ZM358 -1C364.075 -1 369 3.92487 369 10V265H367V10C367 5.02944 362.971 1 358 1V-1Z" fill="#E5E7EB" mask="url(#path-1-inside-1_78_227)"/>
<defs>
<clipPath id="clip0_78_227">
<path d="M0 0H358C363.523 0 368 4.47715 368 10V265H0V0Z" fill="white"/>
</clipPath>
<clipPath id="clip1_78_227">
<rect width="368" height="225" fill="white" transform="translate(0 40)"/>
</clipPath>
</defs>
</svg>
