<svg width="392" height="106" viewBox="0 0 392 106" fill="none" xmlns="http://www.w3.org/2000/svg">
<path d="M40.32 0V2.56C37.4187 2.64533 35.2 2.98666 33.664 3.584C32.2133 4.096 31.232 5.12 30.72 6.656C30.208 8.10666 29.952 10.4107 29.952 13.568V78.592C29.952 81.2373 30.1227 83.2 30.464 84.48C30.8907 85.76 31.6587 86.6133 32.768 87.04C33.9627 87.4667 35.712 87.68 38.016 87.68H44.288C47.1893 87.68 49.92 86.9973 52.48 85.632C55.04 84.2667 57.344 82.3467 59.392 79.872C61.44 77.312 63.1467 74.2827 64.512 70.784C65.8773 67.2853 66.9013 63.4027 67.584 59.136H70.528C70.272 62.0373 70.144 65.792 70.144 70.4C70.144 72.3627 70.1867 75.2213 70.272 78.976C70.3573 82.7307 70.6133 86.6133 71.04 90.624C66.688 90.4533 61.7813 90.368 56.32 90.368C50.8587 90.2827 45.9947 90.24 41.728 90.24C39.5947 90.24 36.864 90.24 33.536 90.24C30.208 90.24 26.624 90.2827 22.784 90.368C18.944 90.368 15.0613 90.4107 11.136 90.496C7.21067 90.496 3.49867 90.5387 0 90.624V88.064C2.73067 87.8933 4.77867 87.552 6.144 87.04C7.50933 86.528 8.40533 85.504 8.832 83.968C9.344 82.432 9.6 80.128 9.6 77.056V13.568C9.6 10.4107 9.344 8.10666 8.832 6.656C8.40533 5.12 7.46667 4.096 6.016 3.584C4.65067 2.98666 2.64533 2.64533 0 2.56V0C2.13333 0.0853322 4.992 0.170664 8.576 0.255997C12.2453 0.341329 16.128 0.383995 20.224 0.383995C23.9787 0.383995 27.648 0.341329 31.232 0.255997C34.9013 0.170664 37.9307 0.0853322 40.32 0Z" fill="#0C1719"/>
<path d="M89.514 91.52C85.674 91.52 82.474 90.7947 79.914 89.344C77.354 87.8933 75.4767 85.9733 74.282 83.584C73.0873 81.1093 72.49 78.4213 72.49 75.52C72.49 71.8507 73.3007 68.864 74.922 66.56C76.6287 64.256 78.8047 62.3787 81.45 60.928C84.0953 59.4773 86.8687 58.2827 89.77 57.344C92.7567 56.4053 95.5727 55.5093 98.218 54.656C100.949 53.7173 103.125 52.6507 104.746 51.456C106.453 50.176 107.306 48.5547 107.306 46.592V36.608C107.306 34.3893 106.922 32.4267 106.154 30.72C105.471 28.928 104.362 27.5627 102.826 26.624C101.375 25.6853 99.4553 25.216 97.066 25.216C95.3593 25.216 93.6527 25.472 91.946 25.984C90.2393 26.4107 88.8313 27.1787 87.722 28.288C90.1113 29.1413 91.946 30.464 93.226 32.256C94.5913 33.9627 95.274 35.9253 95.274 38.144C95.274 41.0453 94.25 43.3493 92.202 45.056C90.2393 46.7627 87.8927 47.616 85.162 47.616C82.09 47.616 79.7433 46.6773 78.122 44.8C76.586 42.8373 75.818 40.4907 75.818 37.76C75.818 35.2853 76.4153 33.2373 77.61 31.616C78.89 29.9947 80.6393 28.4587 82.858 27.008C85.2473 25.6427 88.106 24.576 91.434 23.808C94.8473 23.04 98.5167 22.656 102.442 22.656C106.367 22.656 109.909 23.0827 113.066 23.936C116.223 24.704 118.869 26.1547 121.002 28.288C122.965 30.2507 124.245 32.6827 124.842 35.584C125.439 38.4 125.738 41.984 125.738 46.336V81.152C125.738 83.2853 125.951 84.7787 126.378 85.632C126.805 86.4 127.53 86.784 128.554 86.784C129.322 86.784 130.047 86.5707 130.73 86.144C131.498 85.7173 132.309 85.2053 133.162 84.608L134.442 86.784C132.65 88.32 130.559 89.5147 128.17 90.368C125.866 91.136 123.263 91.52 120.362 91.52C117.205 91.52 114.687 91.0933 112.81 90.24C110.933 89.3013 109.567 88.064 108.714 86.528C107.946 84.992 107.562 83.2 107.562 81.152C105.514 84.3947 103.039 86.9547 100.138 88.832C97.2367 90.624 93.6953 91.52 89.514 91.52ZM98.602 83.328C100.309 83.328 101.845 82.944 103.21 82.176C104.661 81.3227 106.026 79.9573 107.306 78.08V51.84C106.538 53.12 105.471 54.272 104.106 55.296C102.741 56.32 101.29 57.3867 99.754 58.496C98.218 59.52 96.7247 60.672 95.274 61.952C93.9087 63.232 92.7993 64.8107 91.946 66.688C91.0927 68.5653 90.666 70.8267 90.666 73.472C90.666 76.8 91.3913 79.2747 92.842 80.896C94.2927 82.5173 96.2127 83.328 98.602 83.328Z" fill="#0C1719"/>
<path d="M162.578 24.448V27.136C160.701 27.136 159.037 27.264 157.586 27.52C156.221 27.6907 155.282 28.288 154.77 29.312C154.343 30.336 154.514 32 155.282 34.304L167.442 72.32L165.778 74.112L180.754 24.32L183.314 25.472L163.73 90.88C162.365 90.7947 160.999 90.752 159.634 90.752C158.269 90.752 156.861 90.7947 155.41 90.88L135.186 34.304C133.991 30.8907 132.669 28.8427 131.218 28.16C129.853 27.4773 128.701 27.136 127.762 27.136V24.448C130.493 24.704 133.309 24.9173 136.21 25.088C139.197 25.1733 142.439 25.216 145.938 25.216C148.583 25.216 151.357 25.1307 154.258 24.96C157.245 24.7893 160.018 24.6187 162.578 24.448ZM229.394 24.448V27.008C227.773 27.4347 226.237 28.416 224.786 29.952C223.335 31.488 221.97 34.176 220.69 38.016L203.666 90.88C202.301 90.7947 200.893 90.752 199.442 90.752C198.077 90.752 196.711 90.7947 195.346 90.88L177.298 41.6L180.754 24.32C182.29 24.4053 183.826 24.448 185.362 24.448C186.983 24.3627 188.562 24.32 190.098 24.32L207.634 76.032L206.226 74.624L214.802 47.488C216.253 42.7947 216.807 38.9973 216.466 36.096C216.125 33.1947 215.101 31.0187 213.394 29.568C211.687 28.1173 209.383 27.264 206.482 27.008V24.448C207.847 24.5333 209.298 24.6187 210.834 24.704C212.455 24.704 214.034 24.7467 215.57 24.832C217.191 24.832 218.557 24.832 219.666 24.832C221.373 24.832 223.122 24.7893 224.914 24.704C226.791 24.6187 228.285 24.5333 229.394 24.448Z" fill="#0C1719"/>
<path d="M331.899 23.04V76.672C331.899 80.512 332.496 83.3707 333.691 85.248C334.886 87.04 337.019 87.936 340.091 87.936V90.624C337.446 90.368 334.8 90.24 332.155 90.24C328.571 90.24 325.243 90.368 322.171 90.624C319.099 90.88 316.198 91.3493 313.467 92.032V80.512C311.419 84.7787 308.56 87.8507 304.891 89.728C301.307 91.52 297.296 92.416 292.859 92.416C289.275 92.416 286.374 91.9467 284.155 91.008C281.936 90.0693 280.187 88.8747 278.907 87.424C277.456 85.8027 276.432 83.6693 275.835 81.024C275.238 78.3787 274.939 74.9653 274.939 70.784V38.4C274.939 34.56 274.342 31.744 273.147 29.952C272.038 28.0747 269.904 27.136 266.747 27.136V24.448C269.478 24.704 272.123 24.832 274.683 24.832C278.267 24.832 281.595 24.704 284.667 24.448C287.824 24.1067 290.726 23.6373 293.371 23.04V76.032C293.371 78.1653 293.542 80.0427 293.883 81.664C294.31 83.2853 295.078 84.5653 296.187 85.504C297.296 86.3573 298.918 86.784 301.051 86.784C303.355 86.784 305.403 86.144 307.195 84.864C309.072 83.584 310.566 81.8347 311.675 79.616C312.87 77.312 313.467 74.752 313.467 71.936V38.4C313.467 34.56 312.87 31.744 311.675 29.952C310.566 28.0747 308.432 27.136 305.275 27.136V24.448C308.006 24.704 310.651 24.832 313.211 24.832C316.795 24.832 320.123 24.704 323.195 24.448C326.352 24.1067 329.254 23.6373 331.899 23.04Z" fill="#019FB7"/>
<path d="M366.004 22.656C369.588 22.656 372.703 23.1253 375.348 24.064C378.079 24.9173 380.041 25.7707 381.236 26.624C384.137 28.5867 385.929 27.3067 386.612 22.784H389.3C389.129 25.1733 389.001 28.1173 388.916 31.616C388.831 35.0293 388.788 39.5947 388.788 45.312H386.1C385.673 42.1547 384.863 39.04 383.668 35.968C382.473 32.896 380.724 30.3787 378.42 28.416C376.201 26.4533 373.3 25.472 369.716 25.472C367.241 25.472 365.151 26.1973 363.444 27.648C361.737 29.0133 360.884 31.0187 360.884 33.664C360.884 36.224 361.652 38.4853 363.188 40.448C364.724 42.3253 366.687 44.16 369.076 45.952C371.551 47.6587 374.111 49.4933 376.756 51.456C379.572 53.5893 382.132 55.7227 384.436 57.856C386.74 59.904 388.575 62.1653 389.94 64.64C391.305 67.1147 391.988 70.0587 391.988 73.472C391.988 77.312 390.879 80.6827 388.66 83.584C386.441 86.4 383.497 88.576 379.828 90.112C376.244 91.648 372.233 92.416 367.796 92.416C365.236 92.416 362.932 92.16 360.884 91.648C358.921 91.136 357.215 90.496 355.764 89.728C354.655 89.216 353.588 88.7467 352.564 88.32C351.625 87.808 350.729 87.3813 349.876 87.04C349.023 86.784 348.255 87.0827 347.572 87.936C346.975 88.7893 346.505 89.984 346.164 91.52H343.476C343.647 88.7893 343.775 85.4613 343.86 81.536C343.945 77.6107 343.988 72.4053 343.988 65.92H346.676C347.188 70.528 348.127 74.624 349.492 78.208C350.857 81.7067 352.692 84.48 354.996 86.528C357.385 88.4907 360.372 89.472 363.956 89.472C365.407 89.472 366.815 89.1733 368.18 88.576C369.545 87.9787 370.655 86.9973 371.508 85.632C372.447 84.2667 372.916 82.5173 372.916 80.384C372.916 76.6293 371.679 73.5147 369.204 71.04C366.815 68.5653 363.743 65.8773 359.988 62.976C357.257 60.7573 354.655 58.5813 352.18 56.448C349.791 54.2293 347.828 51.84 346.292 49.28C344.756 46.6347 343.988 43.648 343.988 40.32C343.988 36.48 345.012 33.2373 347.06 30.592C349.108 27.9467 351.796 25.984 355.124 24.704C358.537 23.3387 362.164 22.656 366.004 22.656Z" fill="#0C1719"/>
<path d="M249.962 25.874L227.537 80.6513H250.792V55.1269H261.299V80.6513H270.69V90.6045H261.299V105.374H250.792V90.6045H215.19V82.7724L238.614 25.874H249.962Z" fill="#019FB7"/>
</svg>
