<svg width="368" height="265" viewBox="0 0 368 265" fill="none" xmlns="http://www.w3.org/2000/svg">
<mask id="path-1-inside-1_78_170" fill="white">
<path d="M0 9.99999C0 4.47714 4.47715 0 10 0H358C363.523 0 368 4.47715 368 10V265H0V9.99999Z"/>
</mask>
<path d="M-1 10C-1 3.92487 3.92487 -1 10 -1H358C364.075 -1 369 3.92487 369 10H367C367 5.02944 362.971 1 358 1H10C5.02944 1 1 5.02944 1 10H-1ZM368 265H0H368ZM-1 265V10C-1 3.92487 3.92487 -1 10 -1V1C5.02944 1 1 5.02944 1 10V265H-1ZM358 -1C364.075 -1 369 3.92487 369 10V265H367V10C367 5.02944 362.971 1 358 1V-1Z" fill="#E5E7EB" mask="url(#path-1-inside-1_78_170)"/>
<rect x="280" y="109.5" width="72" height="108" rx="6" fill="white"/>
<rect x="280.5" y="110" width="71" height="107" rx="5.5" stroke="#0C1719" stroke-opacity="0.1"/>
<path fill-rule="evenodd" clip-rule="evenodd" d="M294.806 163.5C294.806 151.795 304.295 142.307 315.999 142.307C327.704 142.307 337.193 151.795 337.193 163.5C337.193 175.204 327.704 184.693 315.999 184.693C304.295 184.693 294.806 175.204 294.806 163.5ZM315.999 145.347C305.974 145.347 297.846 153.474 297.846 163.5C297.846 168.21 299.641 172.502 302.583 175.728C305.41 171.312 310.362 168.38 316.001 168.38C321.639 168.38 326.59 171.311 329.417 175.727C332.359 172.501 334.153 168.21 334.153 163.5C334.153 153.474 326.025 145.347 315.999 145.347ZM327.142 177.832C324.908 173.994 320.754 171.42 316.001 171.42C311.247 171.42 307.092 173.995 304.859 177.833C307.934 180.227 311.8 181.653 315.999 181.653C320.199 181.653 324.066 180.226 327.142 177.832ZM308.48 160.316C308.48 156.162 311.847 152.796 316 152.796C320.153 152.796 323.52 156.162 323.52 160.316C323.52 164.469 320.153 167.836 316 167.836C311.847 167.836 308.48 164.469 308.48 160.316ZM316 155.836C313.526 155.836 311.52 157.841 311.52 160.316C311.52 162.79 313.526 164.796 316 164.796C318.474 164.796 320.48 162.79 320.48 160.316C320.48 157.841 318.474 155.836 316 155.836Z" fill="#9EACAE"/>
<path fill-rule="evenodd" clip-rule="evenodd" d="M141.613 119.999C141.613 96.59 160.59 77.613 183.999 77.613C207.408 77.613 226.385 96.59 226.385 119.999C226.385 143.408 207.408 162.385 183.999 162.385C160.59 162.385 141.613 143.408 141.613 119.999ZM183.999 83.693C163.948 83.693 147.693 99.9479 147.693 119.999C147.693 129.42 151.282 138.004 157.167 144.456C162.821 135.624 172.724 129.76 184.001 129.76C195.277 129.76 205.18 135.622 210.835 144.453C216.717 138.001 220.305 129.419 220.305 119.999C220.305 99.9479 204.05 83.693 183.999 83.693ZM206.284 148.664C201.817 140.989 193.509 135.84 184.001 135.84C174.493 135.84 166.184 140.99 161.718 148.666C167.869 153.454 175.601 156.305 183.999 156.305C192.399 156.305 200.132 153.453 206.284 148.664ZM168.96 113.631C168.96 105.325 175.694 98.5911 184 98.5911C192.306 98.5911 199.04 105.325 199.04 113.631C199.04 121.937 192.306 128.671 184 128.671C175.694 128.671 168.96 121.937 168.96 113.631ZM184 104.671C179.051 104.671 175.04 108.683 175.04 113.631C175.04 118.58 179.051 122.591 184 122.591C188.948 122.591 192.96 118.58 192.96 113.631C192.96 108.683 188.948 104.671 184 104.671Z" fill="#9EACAE"/>
<g clip-path="url(#clip0_78_170)">
<path d="M117.465 231.565C116.685 231.565 116.052 232.198 116.052 232.978V237.543C116.052 238.324 116.685 238.956 117.465 238.956H121.598C122.379 238.956 123.012 238.324 123.012 237.543V232.978C123.012 232.198 122.379 231.565 121.598 231.565H117.465Z" fill="#9EACAE"/>
<path d="M125.241 238.149L123.665 236.606V233.956L125.236 232.378C125.579 232.035 126.166 232.277 126.166 232.762V237.761C126.166 238.242 125.585 238.486 125.241 238.149Z" fill="#9EACAE"/>
<path d="M152.596 230.043C151.515 230.043 150.638 230.919 150.638 232V235.478C150.638 236.559 151.515 237.435 152.596 237.435C153.677 237.435 154.554 236.559 154.554 235.478V232C154.554 230.919 153.677 230.043 152.596 230.043Z" fill="#9EACAE"/>
<path d="M149.768 235.153C149.768 234.972 149.622 234.826 149.442 234.826C149.262 234.826 149.115 234.973 149.115 235.153V235.478C149.115 237.289 150.5 238.777 152.27 238.942V240.152C152.27 240.332 152.416 240.478 152.596 240.478C152.776 240.478 152.922 240.332 152.922 240.152V238.942C154.692 238.777 156.076 237.289 156.076 235.478V235.153C156.076 234.972 155.93 234.826 155.75 234.826C155.57 234.826 155.424 234.973 155.424 235.153V235.478C155.424 237.039 154.158 238.304 152.596 238.304C151.034 238.304 149.768 237.039 149.768 235.478V235.153Z" fill="#9EACAE"/>
<path d="M184.091 230.871C184.439 230.545 185.007 230.791 185.007 231.267V239.254C185.007 239.73 184.439 239.976 184.091 239.651L181.944 237.639C181.803 237.507 181.616 237.434 181.423 237.434H180.113C179.332 237.434 178.699 236.801 178.699 236.02V234.502C178.699 233.722 179.332 233.089 180.113 233.089H181.423C181.616 233.089 181.803 233.016 181.944 232.883L184.091 230.871Z" fill="#9EACAE"/>
<path d="M187.245 231.428C187.38 231.309 187.586 231.322 187.705 231.457C188.598 232.472 189.14 233.803 189.14 235.261C189.14 236.718 188.598 238.05 187.705 239.064C187.586 239.199 187.38 239.213 187.245 239.094C187.11 238.975 187.096 238.769 187.215 238.633C188.008 237.733 188.488 236.554 188.488 235.261C188.488 233.968 188.008 232.788 187.215 231.888C187.096 231.753 187.11 231.547 187.245 231.428Z" fill="#9EACAE"/>
<path d="M186.683 232.784C186.575 232.64 186.371 232.611 186.227 232.719C186.082 232.827 186.053 233.031 186.161 233.175C186.598 233.757 186.856 234.478 186.856 235.261C186.856 236.044 186.598 236.765 186.161 237.347C186.053 237.491 186.082 237.695 186.227 237.803C186.371 237.911 186.575 237.882 186.683 237.738C187.202 237.048 187.509 236.19 187.509 235.261C187.509 234.332 187.202 233.474 186.683 232.784Z" fill="#9EACAE"/>
<path d="M212.959 235.261C212.959 235.921 212.424 236.456 211.763 236.456C211.102 236.456 210.566 235.921 210.566 235.261C210.566 234.6 211.102 234.065 211.763 234.065C212.424 234.065 212.959 234.6 212.959 235.261Z" fill="#9EACAE"/>
<path d="M216.44 235.261C216.44 235.921 215.904 236.456 215.243 236.456C214.582 236.456 214.047 235.921 214.047 235.261C214.047 234.6 214.582 234.065 215.243 234.065C215.904 234.065 216.44 234.6 216.44 235.261Z" fill="#9EACAE"/>
<path d="M218.724 236.456C219.384 236.456 219.92 235.921 219.92 235.261C219.92 234.6 219.384 234.065 218.724 234.065C218.063 234.065 217.527 234.6 217.527 235.261C217.527 235.921 218.063 236.456 218.724 236.456Z" fill="#9EACAE"/>
<mask id="mask0_78_170" style="mask-type:luminance" maskUnits="userSpaceOnUse" x="233" y="222" width="27" height="27">
<path d="M259.618 222.217H233.515V248.304H259.618V222.217Z" fill="white"/>
</mask>
<g mask="url(#mask0_78_170)">
<path d="M256.138 222.217H236.996C235.074 222.217 233.515 223.775 233.515 225.696V244.826C233.515 246.747 235.074 248.304 236.996 248.304H256.138C258.06 248.304 259.618 246.747 259.618 244.826V225.696C259.618 223.775 258.06 222.217 256.138 222.217Z" fill="#CC3333" fill-opacity="0.65"/>
<path d="M247.81 234.983L248.117 236.517C248.196 236.913 248.511 237.22 248.909 237.289L250.158 237.506C250.784 237.615 251.386 237.216 251.529 236.597L251.693 235.886C251.904 234.972 251.526 233.97 250.589 233.603C249.673 233.244 248.293 232.864 246.566 232.869C244.848 232.875 243.474 233.251 242.558 233.605C241.614 233.97 241.23 234.976 241.442 235.896L241.604 236.597C241.747 237.216 242.349 237.615 242.975 237.506L244.224 237.289C244.623 237.22 244.937 236.913 245.016 236.517L245.324 234.983C245.394 234.967 245.481 234.948 245.581 234.929C245.856 234.877 246.214 234.826 246.566 234.826C246.919 234.826 247.278 234.877 247.552 234.929C247.652 234.948 247.739 234.967 247.81 234.983Z" fill="white"/>
</g>
</g>
<rect x="8" y="8.5" width="352" height="47" rx="6" fill="white"/>
<rect x="8.25" y="8.75" width="351.5" height="46.5" rx="5.75" stroke="#0C1719" stroke-opacity="0.1" stroke-width="0.5"/>
<path fill-rule="evenodd" clip-rule="evenodd" d="M32.4571 42.2071C32.0666 42.5976 31.4334 42.5976 31.0429 42.2071L22.2929 33.4571C22.1054 33.2696 22 33.0152 22 32.75C22 32.4848 22.1054 32.2304 22.2929 32.0429L31.0429 23.2929C31.4334 22.9024 32.0666 22.9024 32.4571 23.2929C32.8476 23.6834 32.8476 24.3166 32.4571 24.7071L24.4142 32.75L32.4571 40.7929C32.8476 41.1834 32.8476 41.8166 32.4571 42.2071Z" fill="#9EACAE"/>
<g clip-path="url(#clip1_78_170)">
<path d="M45.696 30H44.2983L47.4389 21.2727H48.9602L52.1009 30H50.7031L48.2358 22.858H48.1676L45.696 30ZM45.9304 26.5824H50.4645V27.6903H45.9304V26.5824ZM53.2589 30V23.4545H54.4904V24.4943H54.5586C54.6779 24.142 54.8881 23.8651 55.1893 23.6634C55.4933 23.4588 55.837 23.3565 56.2205 23.3565C56.3001 23.3565 56.3938 23.3594 56.5018 23.3651C56.6126 23.3707 56.6992 23.3778 56.7617 23.3864V24.6051C56.7106 24.5909 56.6197 24.5753 56.489 24.5582C56.3583 24.5384 56.2276 24.5284 56.0969 24.5284C55.7958 24.5284 55.5273 24.5923 55.2915 24.7202C55.0586 24.8452 54.8739 25.0199 54.7376 25.2443C54.6012 25.4659 54.533 25.7187 54.533 26.0028V30H53.2589ZM57.8643 30V23.4545H59.1385V30H57.8643ZM58.5078 22.4446C58.2862 22.4446 58.0959 22.3707 57.9368 22.223C57.7805 22.0724 57.7024 21.8935 57.7024 21.6861C57.7024 21.4759 57.7805 21.2969 57.9368 21.1491C58.0959 20.9986 58.2862 20.9233 58.5078 20.9233C58.7294 20.9233 58.9183 20.9986 59.0746 21.1491C59.2337 21.2969 59.3132 21.4759 59.3132 21.6861C59.3132 21.8935 59.2337 22.0724 59.0746 22.223C58.9183 22.3707 58.7294 22.4446 58.5078 22.4446ZM63.6737 30.1321C63.0288 30.1321 62.4734 29.9943 62.0075 29.7188C61.5444 29.4403 61.1864 29.0497 60.9336 28.5469C60.6836 28.0412 60.5586 27.4489 60.5586 26.7699C60.5586 26.0994 60.6836 25.5085 60.9336 24.9972C61.1864 24.4858 61.5387 24.0866 61.9904 23.7997C62.445 23.5128 62.9762 23.3693 63.5842 23.3693C63.9535 23.3693 64.3114 23.4304 64.658 23.5526C65.0046 23.6747 65.3157 23.8665 65.5913 24.1278C65.8668 24.3892 66.0842 24.7287 66.2433 25.1463C66.4023 25.5611 66.4819 26.0653 66.4819 26.6591V27.1108H61.2788V26.1562H65.2333C65.2333 25.821 65.1651 25.5241 65.0288 25.2656C64.8924 25.0043 64.7006 24.7983 64.4535 24.6477C64.2092 24.4972 63.9222 24.4219 63.5927 24.4219C63.2347 24.4219 62.9222 24.5099 62.6552 24.6861C62.391 24.8594 62.1864 25.0866 62.0415 25.3679C61.8995 25.6463 61.8285 25.9489 61.8285 26.2756V27.0213C61.8285 27.4588 61.9052 27.831 62.0586 28.1378C62.2148 28.4446 62.4322 28.679 62.7106 28.8409C62.989 29 63.3143 29.0795 63.6864 29.0795C63.9279 29.0795 64.1481 29.0455 64.3469 28.9773C64.5458 28.9062 64.7177 28.8011 64.8626 28.6619C65.0075 28.5227 65.1183 28.3509 65.195 28.1463L66.4009 28.3636C66.3043 28.7187 66.131 29.0298 65.881 29.2969C65.6339 29.5611 65.3228 29.767 64.9478 29.9148C64.5756 30.0597 64.1509 30.1321 63.6737 30.1321ZM69.1697 21.2727V30H67.8956V21.2727H69.1697ZM74.1619 21.2727H75.7599L78.5384 28.0568H78.6406L81.419 21.2727H83.017V30H81.7642V23.6847H81.6832L79.1094 29.9872H78.0696L75.4957 23.6804H75.4148V30H74.1619V21.2727ZM87.6502 30.1321C87.0053 30.1321 86.4499 29.9943 85.984 29.7188C85.521 29.4403 85.163 29.0497 84.9102 28.5469C84.6602 28.0412 84.5352 27.4489 84.5352 26.7699C84.5352 26.0994 84.6602 25.5085 84.9102 24.9972C85.163 24.4858 85.5153 24.0866 85.967 23.7997C86.4215 23.5128 86.9528 23.3693 87.5607 23.3693C87.93 23.3693 88.288 23.4304 88.6346 23.5526C88.9812 23.6747 89.2923 23.8665 89.5678 24.1278C89.8434 24.3892 90.0607 24.7287 90.2198 25.1463C90.3789 25.5611 90.4585 26.0653 90.4585 26.6591V27.1108H85.2553V26.1562H89.2099C89.2099 25.821 89.1417 25.5241 89.0053 25.2656C88.869 25.0043 88.6772 24.7983 88.43 24.6477C88.1857 24.4972 87.8988 24.4219 87.5692 24.4219C87.2113 24.4219 86.8988 24.5099 86.6317 24.6861C86.3675 24.8594 86.163 25.0866 86.0181 25.3679C85.8761 25.6463 85.805 25.9489 85.805 26.2756V27.0213C85.805 27.4588 85.8817 27.831 86.0352 28.1378C86.1914 28.4446 86.4087 28.679 86.6871 28.8409C86.9656 29 87.2908 29.0795 87.663 29.0795C87.9045 29.0795 88.1246 29.0455 88.3235 28.9773C88.5224 28.9062 88.6942 28.8011 88.8391 28.6619C88.984 28.5227 89.0948 28.3509 89.1715 28.1463L90.3775 28.3636C90.2809 28.7187 90.1076 29.0298 89.8576 29.2969C89.6104 29.5611 89.2994 29.767 88.9244 29.9148C88.5522 30.0597 88.1275 30.1321 87.6502 30.1321ZM94.6932 30.1321C94.0483 30.1321 93.4929 29.9943 93.027 29.7188C92.5639 29.4403 92.206 29.0497 91.9531 28.5469C91.7031 28.0412 91.5781 27.4489 91.5781 26.7699C91.5781 26.0994 91.7031 25.5085 91.9531 24.9972C92.206 24.4858 92.5582 24.0866 93.0099 23.7997C93.4645 23.5128 93.9957 23.3693 94.6037 23.3693C94.973 23.3693 95.331 23.4304 95.6776 23.5526C96.0241 23.6747 96.3352 23.8665 96.6108 24.1278C96.8864 24.3892 97.1037 24.7287 97.2628 25.1463C97.4219 25.5611 97.5014 26.0653 97.5014 26.6591V27.1108H92.2983V26.1562H96.2528C96.2528 25.821 96.1847 25.5241 96.0483 25.2656C95.9119 25.0043 95.7202 24.7983 95.473 24.6477C95.2287 24.4972 94.9418 24.4219 94.6122 24.4219C94.2543 24.4219 93.9418 24.5099 93.6747 24.6861C93.4105 24.8594 93.206 25.0866 93.0611 25.3679C92.919 25.6463 92.848 25.9489 92.848 26.2756V27.0213C92.848 27.4588 92.9247 27.831 93.0781 28.1378C93.2344 28.4446 93.4517 28.679 93.7301 28.8409C94.0085 29 94.3338 29.0795 94.706 29.0795C94.9474 29.0795 95.1676 29.0455 95.3665 28.9773C95.5653 28.9062 95.7372 28.8011 95.8821 28.6619C96.027 28.5227 96.1378 28.3509 96.2145 28.1463L97.4205 28.3636C97.3239 28.7187 97.1506 29.0298 96.9006 29.2969C96.6534 29.5611 96.3423 29.767 95.9673 29.9148C95.5952 30.0597 95.1705 30.1321 94.6932 30.1321ZM101.971 23.4545V24.4773H98.3952V23.4545H101.971ZM99.354 21.8864H100.628V28.0781C100.628 28.3253 100.665 28.5114 100.739 28.6364C100.813 28.7585 100.908 28.8423 101.025 28.8878C101.144 28.9304 101.273 28.9517 101.412 28.9517C101.515 28.9517 101.604 28.9446 101.681 28.9304C101.757 28.9162 101.817 28.9048 101.86 28.8963L102.09 29.9489C102.016 29.9773 101.911 30.0057 101.775 30.0341C101.638 30.0653 101.468 30.0824 101.263 30.0852C100.928 30.0909 100.615 30.0312 100.326 29.9062C100.036 29.7812 99.8015 29.5881 99.6225 29.3267C99.4435 29.0653 99.354 28.7372 99.354 28.3423V21.8864ZM103.38 30V23.4545H104.654V30H103.38ZM104.023 22.4446C103.802 22.4446 103.612 22.3707 103.452 22.223C103.296 22.0724 103.218 21.8935 103.218 21.6861C103.218 21.4759 103.296 21.2969 103.452 21.1491C103.612 20.9986 103.802 20.9233 104.023 20.9233C104.245 20.9233 104.434 20.9986 104.59 21.1491C104.749 21.2969 104.829 21.4759 104.829 21.6861C104.829 21.8935 104.749 22.0724 104.59 22.223C104.434 22.3707 104.245 22.4446 104.023 22.4446ZM107.642 26.1136V30H106.368V23.4545H107.591V24.5199H107.672C107.823 24.1733 108.059 23.8949 108.38 23.6847C108.703 23.4744 109.111 23.3693 109.603 23.3693C110.049 23.3693 110.439 23.4631 110.775 23.6506C111.11 23.8352 111.37 24.1108 111.554 24.4773C111.739 24.8437 111.831 25.2969 111.831 25.8366V30H110.557V25.9901C110.557 25.5156 110.434 25.1449 110.186 24.8778C109.939 24.608 109.6 24.473 109.168 24.473C108.873 24.473 108.61 24.5369 108.38 24.6648C108.152 24.7926 107.972 24.9801 107.838 25.2273C107.708 25.4716 107.642 25.767 107.642 26.1136ZM116.284 32.5909C115.765 32.5909 115.317 32.5227 114.942 32.3864C114.57 32.25 114.266 32.0696 114.03 31.8452C113.794 31.6207 113.618 31.375 113.502 31.108L114.597 30.6562C114.674 30.7812 114.776 30.9134 114.904 31.0526C115.034 31.1946 115.211 31.3153 115.432 31.4148C115.657 31.5142 115.945 31.5639 116.297 31.5639C116.78 31.5639 117.179 31.446 117.495 31.2102C117.81 30.9773 117.968 30.6051 117.968 30.0938V28.8068H117.887C117.81 28.946 117.699 29.1009 117.554 29.2713C117.412 29.4418 117.216 29.5895 116.966 29.7145C116.716 29.8395 116.391 29.902 115.99 29.902C115.473 29.902 115.007 29.7812 114.593 29.5398C114.181 29.2955 113.854 28.9361 113.613 28.4616C113.374 27.9844 113.255 27.3977 113.255 26.7017C113.255 26.0057 113.373 25.4091 113.608 24.9119C113.847 24.4148 114.174 24.0341 114.588 23.7699C115.003 23.5028 115.473 23.3693 115.999 23.3693C116.405 23.3693 116.733 23.4375 116.983 23.5739C117.233 23.7074 117.428 23.8636 117.567 24.0426C117.709 24.2216 117.819 24.3793 117.895 24.5156H117.989V23.4545H119.238V30.1449C119.238 30.7074 119.107 31.169 118.846 31.5298C118.584 31.8906 118.23 32.1577 117.784 32.331C117.341 32.5043 116.841 32.5909 116.284 32.5909ZM116.272 28.8452C116.638 28.8452 116.948 28.7599 117.201 28.5895C117.456 28.4162 117.65 28.169 117.78 27.848C117.914 27.5241 117.98 27.1364 117.98 26.6847C117.98 26.2443 117.915 25.8565 117.784 25.5213C117.654 25.1861 117.462 24.9247 117.209 24.7372C116.956 24.5469 116.644 24.4517 116.272 24.4517C115.888 24.4517 115.569 24.5511 115.313 24.75C115.057 24.946 114.864 25.2131 114.733 25.5511C114.605 25.8892 114.542 26.267 114.542 26.6847C114.542 27.1136 114.607 27.4901 114.738 27.8139C114.868 28.1378 115.061 28.3906 115.317 28.5724C115.576 28.7543 115.894 28.8452 116.272 28.8452Z" fill="#9EACAE"/>
<path d="M47.6307 45.1193C47.1307 45.1193 46.6804 45.0199 46.2798 44.821C45.8793 44.6222 45.5582 44.3494 45.3168 44.0028C45.0753 43.6562 44.9432 43.2614 44.9205 42.8182H45.9432C45.983 43.2131 46.1619 43.5398 46.4801 43.7983C46.8011 44.054 47.1847 44.1818 47.6307 44.1818C47.9886 44.1818 48.3068 44.098 48.5852 43.9304C48.8665 43.7628 49.0866 43.5327 49.2457 43.2401C49.4077 42.9446 49.4886 42.6108 49.4886 42.2386C49.4886 41.858 49.4048 41.5185 49.2372 41.2202C49.0724 40.919 48.8452 40.6818 48.5554 40.5085C48.2656 40.3352 47.9347 40.2472 47.5625 40.2443C47.2955 40.2415 47.0213 40.2827 46.7401 40.3679C46.4588 40.4503 46.2273 40.5568 46.0455 40.6875L45.0568 40.5682L45.5852 36.2727H50.1193V37.2102H46.4716L46.1648 39.7841H46.2159C46.3949 39.642 46.6193 39.5241 46.8892 39.4304C47.1591 39.3366 47.4403 39.2898 47.733 39.2898C48.267 39.2898 48.7429 39.4176 49.1605 39.6733C49.581 39.9261 49.9105 40.2727 50.1491 40.7131C50.3906 41.1534 50.5114 41.6562 50.5114 42.2216C50.5114 42.7784 50.3864 43.2756 50.1364 43.7131C49.8892 44.1477 49.5483 44.4915 49.1136 44.7443C48.679 44.9943 48.1847 45.1193 47.6307 45.1193ZM52.9542 43.8835C52.744 43.8835 52.5636 43.8082 52.413 43.6577C52.2624 43.5071 52.1871 43.3267 52.1871 43.1165C52.1871 42.9062 52.2624 42.7259 52.413 42.5753C52.5636 42.4247 52.744 42.3494 52.9542 42.3494C53.1644 42.3494 53.3448 42.4247 53.4954 42.5753C53.646 42.7259 53.7212 42.9062 53.7212 43.1165C53.7212 43.2557 53.6857 43.3835 53.6147 43.5C53.5465 43.6165 53.4542 43.7102 53.3377 43.7812C53.2241 43.8494 53.0962 43.8835 52.9542 43.8835ZM52.9542 39.4688C52.744 39.4688 52.5636 39.3935 52.413 39.2429C52.2624 39.0923 52.1871 38.9119 52.1871 38.7017C52.1871 38.4915 52.2624 38.3111 52.413 38.1605C52.5636 38.0099 52.744 37.9347 52.9542 37.9347C53.1644 37.9347 53.3448 38.0099 53.4954 38.1605C53.646 38.3111 53.7212 38.4915 53.7212 38.7017C53.7212 38.8409 53.6857 38.9688 53.6147 39.0852C53.5465 39.2017 53.4542 39.2955 53.3377 39.3665C53.2241 39.4347 53.0962 39.4688 52.9542 39.4688ZM55.5089 45V44.233L58.3896 41.0795C58.7276 40.7102 59.006 40.3892 59.2248 40.1165C59.4435 39.8409 59.6055 39.5824 59.7106 39.3409C59.8185 39.0966 59.8725 38.8409 59.8725 38.5739C59.8725 38.267 59.7987 38.0014 59.6509 37.777C59.506 37.5526 59.3072 37.3793 59.0543 37.2571C58.8015 37.1349 58.5174 37.0739 58.2021 37.0739C57.8668 37.0739 57.5742 37.1435 57.3242 37.2827C57.0771 37.419 56.8853 37.6108 56.7489 37.858C56.6154 38.1051 56.5487 38.3949 56.5487 38.7273H55.543C55.543 38.2159 55.6609 37.767 55.8967 37.3807C56.1325 36.9943 56.4535 36.6932 56.8597 36.4773C57.2688 36.2614 57.7276 36.1534 58.2362 36.1534C58.7475 36.1534 59.2006 36.2614 59.5955 36.4773C59.9904 36.6932 60.3001 36.9844 60.5245 37.3509C60.7489 37.7173 60.8612 38.125 60.8612 38.5739C60.8612 38.8949 60.8029 39.2088 60.6864 39.5156C60.5728 39.8196 60.3739 40.1591 60.0898 40.5341C59.8086 40.9062 59.418 41.3608 58.918 41.8977L56.9577 43.9943V44.0625H61.0146V45H55.5089ZM65.6211 45.1193C64.979 45.1193 64.4322 44.9446 63.9805 44.5952C63.5288 44.2429 63.1836 43.733 62.945 43.0653C62.7063 42.3949 62.587 41.5852 62.587 40.6364C62.587 39.6932 62.7063 38.8878 62.945 38.2202C63.1864 37.5497 63.533 37.0384 63.9847 36.6861C64.4393 36.331 64.9847 36.1534 65.6211 36.1534C66.2575 36.1534 66.8015 36.331 67.2532 36.6861C67.7077 37.0384 68.0543 37.5497 68.293 38.2202C68.5344 38.8878 68.6552 39.6932 68.6552 40.6364C68.6552 41.5852 68.5359 42.3949 68.2972 43.0653C68.0586 43.733 67.7134 44.2429 67.2617 44.5952C66.81 44.9446 66.2631 45.1193 65.6211 45.1193ZM65.6211 44.1818C66.2575 44.1818 66.7518 43.875 67.104 43.2614C67.4563 42.6477 67.6325 41.7727 67.6325 40.6364C67.6325 39.8807 67.5515 39.2372 67.3896 38.706C67.2305 38.1747 67.0004 37.7699 66.6992 37.4915C66.4009 37.2131 66.0415 37.0739 65.6211 37.0739C64.9904 37.0739 64.4975 37.3849 64.1424 38.0071C63.7873 38.6264 63.6097 39.5028 63.6097 40.6364C63.6097 41.392 63.6893 42.0341 63.8484 42.5625C64.0075 43.0909 64.2362 43.4929 64.5344 43.7685C64.8356 44.044 65.1978 44.1818 65.6211 44.1818Z" fill="#C7CFD1"/>
</g>
<g clip-path="url(#clip2_78_170)">
<path d="M288 23C293.523 23 298 27.4772 298 33C298 38.5228 293.523 43 288 43C286.382 43 284.818 42.6146 283.413 41.888L279.587 42.9553C278.922 43.141 278.233 42.7525 278.047 42.0876C277.985 41.8676 277.985 41.6349 278.047 41.4151L279.115 37.5922C278.386 36.186 278 34.6203 278 33C278 27.4772 282.477 23 288 23ZM288 24.5C283.306 24.5 279.5 28.3056 279.5 33C279.5 34.4696 279.873 35.8834 280.573 37.1375L280.724 37.4072L279.611 41.3914L283.598 40.2792L283.867 40.4295C285.12 41.1281 286.532 41.5 288 41.5C292.694 41.5 296.5 37.6944 296.5 33C296.5 28.3056 292.694 24.5 288 24.5ZM284.75 34H289.248C289.662 34 289.998 34.3358 289.998 34.75C289.998 35.1297 289.716 35.4435 289.35 35.4932L289.248 35.5H284.75C284.336 35.5 284 35.1642 284 34.75C284 34.3703 284.282 34.0565 284.648 34.0068L284.75 34H289.248H284.75ZM284.75 30.5H291.254C291.669 30.5 292.004 30.8358 292.004 31.25C292.004 31.6297 291.722 31.9435 291.356 31.9932L291.254 32H284.75C284.336 32 284 31.6642 284 31.25C284 30.8703 284.282 30.5565 284.648 30.5068L284.75 30.5H291.254H284.75Z" fill="#9EACAE"/>
<path d="M328 34.999L337 35C338.054 35 338.918 35.8155 338.995 36.8507L339 37V38.5C338.999 42 335.284 43 332.5 43C329.778 43 326.165 42.044 326.005 38.7296L326 38.5V36.999C326 35.9452 326.816 35.0809 327.851 35.0045L328 34.999ZM339.22 35H344C345.054 35 345.918 35.8164 345.995 36.8508L346 37V38C345.999 41.062 343.142 42 341 42C340.32 42 339.569 41.904 338.86 41.678C339.196 41.292 339.467 40.851 339.662 40.351C340.205 40.476 340.715 40.5 341 40.5L341.267 40.494C342.252 40.4509 344.353 40.1306 344.493 38.205L344.5 38V37C344.5 36.7547 344.322 36.5504 344.09 36.5081L344 36.5H339.949C339.865 35.9986 339.655 35.5432 339.354 35.1598L339.22 35H344H339.22ZM328 36.499L327.899 36.509C327.775 36.5343 327.69 36.6018 327.646 36.645C327.603 36.689 327.535 36.7733 327.51 36.898L327.5 36.999V38.5C327.5 39.509 327.95 40.222 328.917 40.742C329.743 41.1869 330.92 41.4563 332.183 41.4951L332.5 41.5L332.817 41.4951C334.08 41.4563 335.256 41.1869 336.083 40.742C336.989 40.2545 337.442 39.5974 337.495 38.6849L337.5 38.499V37C337.5 36.7547 337.322 36.5504 337.09 36.5081L337 36.5L328 36.499ZM332.5 24C334.985 24 337 26.015 337 28.5C337 30.985 334.985 33 332.5 33C330.015 33 328 30.985 328 28.5C328 26.015 330.015 24 332.5 24ZM341.5 26C343.433 26 345 27.567 345 29.5C345 31.433 343.433 33 341.5 33C339.567 33 338 31.433 338 29.5C338 27.567 339.567 26 341.5 26ZM332.5 25.5C330.846 25.5 329.5 26.846 329.5 28.5C329.5 30.154 330.846 31.5 332.5 31.5C334.154 31.5 335.5 30.154 335.5 28.5C335.5 26.846 334.154 25.5 332.5 25.5ZM341.5 27.5C340.397 27.5 339.5 28.397 339.5 29.5C339.5 30.603 340.397 31.5 341.5 31.5C342.603 31.5 343.5 30.603 343.5 29.5C343.5 28.397 342.603 27.5 341.5 27.5Z" fill="#9EACAE"/>
</g>
<defs>
<clipPath id="clip0_78_170">
<rect width="161.839" height="40" fill="white" transform="translate(103 217)"/>
</clipPath>
<clipPath id="clip1_78_170">
<rect width="230" height="31" fill="white" transform="translate(44 18)"/>
</clipPath>
<clipPath id="clip2_78_170">
<rect width="72" height="24" fill="white" transform="translate(276 21)"/>
</clipPath>
</defs>
</svg>
