<svg width="368" height="265" viewBox="0 0 368 265" fill="none" xmlns="http://www.w3.org/2000/svg">
<mask id="path-1-inside-1_78_144" fill="white">
<path d="M0 9.99999C0 4.47714 4.47715 0 10 0H358C363.523 0 368 4.47715 368 10V265H0V9.99999Z"/>
</mask>
<path d="M-1 10C-1 3.92487 3.92487 -1 10 -1H358C364.075 -1 369 3.92487 369 10H367C367 5.02944 362.971 1 358 1H10C5.02944 1 1 5.02944 1 10H-1ZM368 265H0H368ZM-1 265V10C-1 3.92487 3.92487 -1 10 -1V1C5.02944 1 1 5.02944 1 10V265H-1ZM358 -1C364.075 -1 369 3.92487 369 10V265H367V10C367 5.02944 362.971 1 358 1V-1Z" fill="#E5E7EB" mask="url(#path-1-inside-1_78_144)"/>
<rect x="8" y="8" width="352" height="249" rx="8" fill="white"/>
<rect x="8.25" y="8.25" width="351.5" height="248.5" rx="7.75" stroke="#0C1719" stroke-opacity="0.1" stroke-width="0.5"/>
<path d="M133.024 32.268C132.763 32.268 132.539 32.1747 132.352 31.988C132.166 31.8013 132.072 31.5633 132.072 31.274C132.072 30.9753 132.166 30.7327 132.352 30.546C132.539 30.3593 132.763 30.266 133.024 30.266C133.295 30.266 133.519 30.3593 133.696 30.546C133.883 30.7327 133.976 30.9753 133.976 31.274C133.976 31.5633 133.883 31.8013 133.696 31.988C133.519 32.1747 133.295 32.268 133.024 32.268ZM133.024 37.168C132.763 37.168 132.539 37.0747 132.352 36.888C132.166 36.7013 132.072 36.4633 132.072 36.174C132.072 35.8753 132.166 35.6327 132.352 35.446C132.539 35.2593 132.763 35.166 133.024 35.166C133.295 35.166 133.519 35.2593 133.696 35.446C133.883 35.6327 133.976 35.8753 133.976 36.174C133.976 36.4633 133.883 36.7013 133.696 36.888C133.519 37.0747 133.295 37.168 133.024 37.168ZM135.568 39.8V30.77L135.4 29.132H136.884L137.066 30.77V39.8H135.568ZM138.637 34.06V32.898V30.77L138.469 29.132H139.953L140.135 30.77V32.898L140.121 33.78L138.637 34.06ZM142.379 37.14L141.357 29.132H142.785L143.597 35.88C144.306 35.8333 144.918 35.7027 145.431 35.488C145.954 35.2733 146.383 34.9793 146.719 34.606C147.055 34.2327 147.302 33.7753 147.461 33.234C147.62 32.6833 147.699 32.058 147.699 31.358L147.671 29.132H149.169L149.183 31.288C149.192 32.5947 148.95 33.682 148.455 34.55C147.97 35.418 147.223 36.0713 146.215 36.51C145.207 36.9393 143.928 37.1493 142.379 37.14ZM143.121 34.046L142.771 33.066C143.238 32.8887 143.602 32.6833 143.863 32.45C144.124 32.2073 144.306 31.8947 144.409 31.512C144.521 31.12 144.582 30.6253 144.591 30.028V29.16H146.005V30C145.996 30.6813 145.898 31.2787 145.711 31.792C145.534 32.3053 145.235 32.744 144.815 33.108C144.404 33.472 143.84 33.7847 143.121 34.046ZM150.546 37V30.77L150.378 29.132H151.862L152.044 30.77V37H150.546ZM156.976 37V31.68C156.976 31.1573 156.864 30.7933 156.64 30.588C156.416 30.3827 156.108 30.28 155.716 30.28H153.126V29.132H156.094C156.56 29.132 156.971 29.2207 157.326 29.398C157.68 29.566 157.96 29.8413 158.166 30.224C158.371 30.6067 158.474 31.1153 158.474 31.75V37H156.976ZM160.035 34.06V32.898V30.77L159.867 29.132H161.351L161.533 30.77V32.898L161.519 33.78L160.035 34.06ZM165.624 37L165.078 33.962V31.456C165.078 31.0547 165.022 30.7607 164.91 30.574C164.808 30.3873 164.607 30.2707 164.308 30.224L163.412 30.098L163.608 28.978L164.994 29.174C165.564 29.2487 165.965 29.4633 166.198 29.818C166.441 30.1633 166.562 30.658 166.562 31.302V33.99L167.038 37H165.624ZM162.978 37.224L162.432 36.034C163.104 35.81 163.66 35.516 164.098 35.152C164.546 34.788 164.896 34.326 165.148 33.766L165.638 34.606C165.452 35.0353 165.237 35.418 164.994 35.754C164.761 36.09 164.476 36.3793 164.14 36.622C163.814 36.8647 163.426 37.0653 162.978 37.224ZM170.311 37.21L170.171 36.174C170.544 36.1367 170.829 36.062 171.025 35.95C171.221 35.8287 171.356 35.6607 171.431 35.446C171.505 35.222 171.543 34.9467 171.543 34.62V29.132H175.323C175.789 29.132 176.2 29.2207 176.555 29.398C176.909 29.566 177.189 29.8413 177.395 30.224C177.6 30.6067 177.703 31.1153 177.703 31.75V37H176.205V31.68C176.205 31.1573 176.093 30.7933 175.869 30.588C175.645 30.3827 175.337 30.28 174.945 30.28H173.027V34.438C173.027 35.0633 172.929 35.572 172.733 35.964C172.546 36.3467 172.252 36.636 171.851 36.832C171.459 37.028 170.945 37.154 170.311 37.21ZM178.727 37.462L178.517 36.286L181.345 35.754C181.849 35.6513 182.26 35.502 182.577 35.306C182.894 35.1007 183.137 34.83 183.305 34.494C183.482 34.158 183.608 33.7473 183.683 33.262C183.758 32.7673 183.8 32.1793 183.809 31.498C183.818 30.8167 183.823 30.028 183.823 29.132H185.307C185.307 30.1027 185.288 30.9707 185.251 31.736C185.214 32.5013 185.13 33.178 184.999 33.766C184.868 34.3447 184.663 34.844 184.383 35.264C184.103 35.684 183.716 36.034 183.221 36.314C182.736 36.594 182.115 36.804 181.359 36.944L178.727 37.462ZM180.925 35.964L179.161 29.132H180.659L182.353 35.964H180.925ZM186.676 34.06V32.898V30.77L186.508 29.132H187.992L188.174 30.77V32.898L188.16 33.78L186.676 34.06ZM193.287 37V31.68C193.287 31.1573 193.171 30.7933 192.937 30.588C192.713 30.3827 192.405 30.28 192.013 30.28H189.395V29.132H192.391C192.858 29.132 193.269 29.2207 193.623 29.398C193.987 29.566 194.267 29.8413 194.463 30.224C194.669 30.6067 194.771 31.1153 194.771 31.75V37H193.287ZM189.395 37V35.852H195.737V37H189.395ZM196.37 37.21L196.23 36.174C196.604 36.1367 196.888 36.062 197.084 35.95C197.28 35.8287 197.416 35.6607 197.49 35.446C197.565 35.222 197.602 34.9467 197.602 34.62V29.132H201.382C201.849 29.132 202.26 29.2207 202.614 29.398C202.969 29.566 203.249 29.8413 203.454 30.224C203.66 30.6067 203.762 31.1153 203.762 31.75V37H202.264V31.68C202.264 31.1573 202.152 30.7933 201.928 30.588C201.704 30.3827 201.396 30.28 201.004 30.28H199.086V34.438C199.086 35.0633 198.988 35.572 198.792 35.964C198.606 36.3467 198.312 36.636 197.91 36.832C197.518 37.028 197.005 37.154 196.37 37.21ZM212.699 37V31.68C212.699 31.1573 212.587 30.7933 212.363 30.588C212.139 30.3827 211.831 30.28 211.439 30.28H208.681V29.132H211.817C212.284 29.132 212.695 29.2207 213.049 29.398C213.404 29.566 213.684 29.8413 213.889 30.224C214.095 30.6067 214.197 31.1153 214.197 31.75V35.964V37H212.699ZM208.107 37V35.852H213.665L213.595 37H208.107ZM207.757 37V30.084V29.132H209.255V30.154V37H207.757ZM215.289 37V35.852H217.305C217.762 35.852 218.135 35.7633 218.425 35.586C218.714 35.3993 218.929 35.1333 219.069 34.788C219.209 34.4333 219.279 34.018 219.279 33.542V32.59C219.279 32.1047 219.209 31.6893 219.069 31.344C218.929 30.9987 218.714 30.7373 218.425 30.56C218.135 30.3733 217.762 30.28 217.305 30.28H215.289V29.132H217.669C218.341 29.132 218.905 29.272 219.363 29.552C219.829 29.832 220.179 30.238 220.413 30.77C220.655 31.2927 220.777 31.9227 220.777 32.66V33.472C220.777 34.2187 220.655 34.858 220.413 35.39C220.179 35.9127 219.829 36.314 219.363 36.594C218.905 36.8647 218.341 37 217.669 37H215.289ZM222.731 37.14L221.919 30.28L223.333 29.566L224.047 35.796C224.439 35.7587 224.798 35.698 225.125 35.614C225.451 35.5207 225.741 35.39 225.993 35.222C226.254 35.054 226.469 34.844 226.637 34.592C226.814 34.34 226.945 34.0367 227.029 33.682C227.113 33.318 227.145 32.898 227.127 32.422V32.044C227.127 31.6987 227.071 31.3953 226.959 31.134C226.847 30.8727 226.683 30.6673 226.469 30.518C226.254 30.3593 225.993 30.28 225.685 30.28H221.919L221.779 29.132H225.811C226.688 29.132 227.36 29.3933 227.827 29.916C228.303 30.4387 228.555 31.1387 228.583 32.016L228.597 32.45C228.625 33.3087 228.499 34.032 228.219 34.62C227.939 35.208 227.533 35.6793 227.001 36.034C226.469 36.3887 225.839 36.6547 225.111 36.832C224.383 37 223.589 37.1027 222.731 37.14ZM234.533 37V31.68C234.533 31.1573 234.416 30.7933 234.183 30.588C233.959 30.3827 233.651 30.28 233.259 30.28H229.829V29.132H233.637C234.104 29.132 234.514 29.2207 234.869 29.398C235.233 29.566 235.513 29.8413 235.709 30.224C235.914 30.6067 236.017 31.1153 236.017 31.75V37H234.533ZM229.787 37V33.206L229.997 32.268H231.271V33.206V37H229.787Z" fill="#0C1719"/>
<path d="M64.1013 56V55.292C64.8373 54.572 65.4653 53.932 65.9853 53.372C66.5133 52.812 66.9173 52.308 67.1973 51.86C67.4773 51.404 67.6173 50.976 67.6173 50.576C67.6173 50.152 67.5053 49.816 67.2813 49.568C67.0573 49.312 66.7213 49.184 66.2733 49.184C65.9693 49.184 65.6853 49.268 65.4213 49.436C65.1653 49.604 64.9333 49.812 64.7253 50.06L64.0413 49.388C64.3773 49.02 64.7293 48.732 65.0973 48.524C65.4733 48.316 65.9173 48.212 66.4293 48.212C66.9093 48.212 67.3253 48.308 67.6773 48.5C68.0293 48.684 68.3013 48.952 68.4933 49.304C68.6933 49.648 68.7933 50.052 68.7933 50.516C68.7933 50.98 68.6613 51.452 68.3973 51.932C68.1413 52.404 67.7893 52.896 67.3413 53.408C66.9013 53.92 66.4093 54.464 65.8653 55.04C66.0653 55.024 66.2813 55.008 66.5133 54.992C66.7453 54.976 66.9573 54.968 67.1493 54.968H69.1653V56H64.1013ZM72.4996 56.144C71.7156 56.144 71.0956 55.8 70.6396 55.112C70.1916 54.424 69.9676 53.436 69.9676 52.148C69.9676 50.86 70.1916 49.884 70.6396 49.22C71.0956 48.548 71.7156 48.212 72.4996 48.212C73.2756 48.212 73.8916 48.548 74.3476 49.22C74.8036 49.892 75.0316 50.868 75.0316 52.148C75.0316 53.436 74.8036 54.424 74.3476 55.112C73.8916 55.8 73.2756 56.144 72.4996 56.144ZM72.4996 55.184C72.7636 55.184 72.9996 55.084 73.2076 54.884C73.4156 54.684 73.5756 54.364 73.6876 53.924C73.8076 53.476 73.8676 52.884 73.8676 52.148C73.8676 51.412 73.8076 50.828 73.6876 50.396C73.5756 49.956 73.4156 49.644 73.2076 49.46C72.9996 49.268 72.7636 49.172 72.4996 49.172C72.2276 49.172 71.9876 49.268 71.7796 49.46C71.5796 49.644 71.4196 49.956 71.2996 50.396C71.1876 50.828 71.1316 51.412 71.1316 52.148C71.1316 52.884 71.1876 53.476 71.2996 53.924C71.4196 54.364 71.5796 54.684 71.7796 54.884C71.9876 55.084 72.2276 55.184 72.4996 55.184ZM75.7619 56V55.292C76.4979 54.572 77.1259 53.932 77.6459 53.372C78.1739 52.812 78.5779 52.308 78.8579 51.86C79.1379 51.404 79.2779 50.976 79.2779 50.576C79.2779 50.152 79.1659 49.816 78.9419 49.568C78.7179 49.312 78.3819 49.184 77.9339 49.184C77.6299 49.184 77.3459 49.268 77.0819 49.436C76.8259 49.604 76.5939 49.812 76.3859 50.06L75.7019 49.388C76.0379 49.02 76.3899 48.732 76.7579 48.524C77.1339 48.316 77.5779 48.212 78.0899 48.212C78.5699 48.212 78.9859 48.308 79.3379 48.5C79.6899 48.684 79.9619 48.952 80.1539 49.304C80.3539 49.648 80.4539 50.052 80.4539 50.516C80.4539 50.98 80.3219 51.452 80.0579 51.932C79.8019 52.404 79.4499 52.896 79.0019 53.408C78.5619 53.92 78.0699 54.464 77.5259 55.04C77.7259 55.024 77.9419 55.008 78.1739 54.992C78.4059 54.976 78.6179 54.968 78.8099 54.968H80.8259V56H75.7619ZM83.9802 56.144C83.5642 56.144 83.1962 56.096 82.8762 56C82.5642 55.896 82.2882 55.764 82.0482 55.604C81.8082 55.444 81.5962 55.272 81.4122 55.088L81.9882 54.308C82.2202 54.532 82.4802 54.728 82.7682 54.896C83.0642 55.064 83.4202 55.148 83.8362 55.148C84.1322 55.148 84.3962 55.084 84.6282 54.956C84.8682 54.828 85.0562 54.648 85.1922 54.416C85.3282 54.176 85.3962 53.892 85.3962 53.564C85.3962 53.076 85.2602 52.7 84.9882 52.436C84.7162 52.164 84.3522 52.028 83.8962 52.028C83.6482 52.028 83.4322 52.064 83.2482 52.136C83.0722 52.208 82.8682 52.32 82.6362 52.472L82.0362 52.088L82.2762 48.356H86.2482V49.388H83.3322L83.1522 51.416C83.3202 51.328 83.4882 51.26 83.6562 51.212C83.8242 51.164 84.0162 51.14 84.2322 51.14C84.6642 51.14 85.0602 51.228 85.4202 51.404C85.7882 51.572 86.0802 51.832 86.2962 52.184C86.5122 52.536 86.6202 52.984 86.6202 53.528C86.6202 54.088 86.4962 54.564 86.2482 54.956C86.0002 55.34 85.6722 55.636 85.2642 55.844C84.8642 56.044 84.4362 56.144 83.9802 56.144ZM92.8369 56V51.44C92.8369 50.992 92.7409 50.68 92.5489 50.504C92.3569 50.328 92.0929 50.24 91.7569 50.24H89.5369V49.256H92.0809C92.4809 49.256 92.8329 49.332 93.1369 49.484C93.4409 49.628 93.6809 49.864 93.8569 50.192C94.0329 50.52 94.1209 50.956 94.1209 51.5V56H92.8369ZM101.255 56H99.8871L97.3551 52.172L96.1671 56H94.9551L96.2751 51.872L96.6111 51.032L95.5071 49.256H96.8031L97.8231 50.888L98.8311 52.4L99.1311 51.356L99.7431 49.256H100.967L99.5751 53.504L101.255 56ZM102.239 56V50.66L102.095 49.256H103.367L103.523 50.66V56H102.239ZM104.558 56V55.016H106.502V51.26C106.502 50.892 106.43 50.632 106.286 50.48C106.142 50.328 105.942 50.236 105.686 50.204L104.87 50.084L105.038 49.124L106.274 49.292C106.762 49.364 107.134 49.568 107.39 49.904C107.646 50.232 107.774 50.672 107.774 51.224V56H104.558ZM109.106 53.48V52.484V50.66L108.962 49.256H110.234L110.39 50.66V52.484L110.378 53.24L109.106 53.48ZM114.476 56.12L113.6 49.256H114.824L115.52 55.04C116.128 55 116.652 54.888 117.092 54.704C117.54 54.52 117.908 54.268 118.196 53.948C118.484 53.628 118.696 53.236 118.832 52.772C118.968 52.3 119.036 51.764 119.036 51.164L119.012 49.256H120.296L120.308 51.104C120.316 52.224 120.108 53.156 119.684 53.9C119.268 54.644 118.628 55.204 117.764 55.58C116.9 55.948 115.804 56.128 114.476 56.12ZM115.112 53.468L114.812 52.628C115.212 52.476 115.524 52.3 115.748 52.1C115.972 51.892 116.128 51.624 116.216 51.296C116.312 50.96 116.364 50.536 116.372 50.024V49.28H117.584V50C117.576 50.584 117.492 51.096 117.332 51.536C117.18 51.976 116.924 52.352 116.564 52.664C116.212 52.976 115.728 53.244 115.112 53.468ZM124.08 56V51.644C124.08 51.332 124.108 51.06 124.164 50.828C124.228 50.588 124.312 50.392 124.416 50.24H121.176V49.256H126.528V50.24H125.616C125.512 50.44 125.44 50.672 125.4 50.936C125.368 51.192 125.352 51.428 125.352 51.644V56H124.08ZM127.693 56V50.66L127.549 49.256H128.821L128.977 50.66V56H127.693ZM134.404 56V51.56C134.404 50.68 134.04 50.24 133.312 50.24H130.192V49.256H133.636C134.052 49.256 134.412 49.34 134.716 49.508C135.028 49.676 135.264 49.936 135.424 50.288C135.592 50.632 135.676 51.076 135.676 51.62V56H134.404ZM130.192 56V49.772H131.476V56H130.192ZM140.046 56V51.44C140.046 50.992 139.946 50.68 139.746 50.504C139.554 50.328 139.29 50.24 138.954 50.24H136.71V49.256H139.278C139.678 49.256 140.03 49.332 140.334 49.484C140.646 49.628 140.886 49.864 141.054 50.192C141.23 50.52 141.318 50.956 141.318 51.5V56H140.046ZM136.71 56V55.016H142.146V56H136.71ZM144.635 57.56V56.804H150.347V57.56H144.635ZM150.395 57.56V56.804H156.107V57.56H150.395ZM156.155 57.56V56.804H161.867V57.56H156.155ZM161.915 57.56V56.804H167.627V57.56H161.915ZM167.675 57.56V56.804H173.387V57.56H167.675ZM173.435 57.56V56.804H179.147V57.56H173.435ZM186.229 56V51.44C186.229 50.992 186.133 50.68 185.941 50.504C185.749 50.328 185.485 50.24 185.149 50.24H182.785V49.256H185.473C185.873 49.256 186.225 49.332 186.529 49.484C186.833 49.628 187.073 49.864 187.249 50.192C187.425 50.52 187.513 50.956 187.513 51.5V55.112V56H186.229ZM182.293 56V55.016H187.057L186.997 56H182.293ZM181.993 56V50.072V49.256H183.277V50.132V56H181.993ZM188.833 56V50.66L188.689 49.256H189.961L190.117 50.66V56H188.833ZM191.464 53.48V52.484V50.66L191.32 49.256H192.592L192.748 50.66V52.484L192.736 53.24L191.464 53.48ZM197.131 56V51.44C197.131 50.992 197.031 50.68 196.831 50.504C196.639 50.328 196.375 50.24 196.039 50.24H193.795V49.256H196.363C196.763 49.256 197.115 49.332 197.419 49.484C197.731 49.628 197.971 49.864 198.139 50.192C198.315 50.52 198.403 50.956 198.403 51.5V56H197.131ZM193.795 56V55.016H199.231V56H193.795ZM205.452 56V51.44C205.452 50.992 205.352 50.68 205.152 50.504C204.96 50.328 204.696 50.24 204.36 50.24H202.116V49.256H204.684C205.084 49.256 205.436 49.332 205.74 49.484C206.052 49.628 206.292 49.864 206.46 50.192C206.636 50.52 206.724 50.956 206.724 51.5V56H205.452ZM202.116 56V55.016H207.552V56H202.116ZM208.574 53.48V52.484V50.66L208.43 49.256H209.702L209.858 50.66V52.484L209.846 53.24L208.574 53.48ZM214.241 56V51.44C214.241 50.992 214.141 50.68 213.941 50.504C213.749 50.328 213.485 50.24 213.149 50.24H210.905V49.256H213.473C213.873 49.256 214.225 49.332 214.529 49.484C214.841 49.628 215.081 49.864 215.249 50.192C215.425 50.52 215.513 50.956 215.513 51.5V56H214.241ZM210.905 56V55.016H216.341V56H210.905ZM223.16 56H221.792L219.26 52.172L218.072 56H216.86L218.18 51.872L218.516 51.032L217.412 49.256H218.708L219.728 50.888L220.736 52.4L221.036 51.356L221.648 49.256H222.872L221.48 53.504L223.16 56ZM227.289 56L229.533 50.24H225.921V49.256H230.817V50.324L228.573 56H227.289ZM225.921 50.24V47.396H227.073V50.24H225.921ZM231.421 56.18L231.301 55.292C231.621 55.26 231.865 55.196 232.033 55.1C232.201 54.996 232.317 54.852 232.381 54.668C232.445 54.476 232.477 54.24 232.477 53.96V49.256H235.717C236.117 49.256 236.469 49.332 236.773 49.484C237.077 49.628 237.317 49.864 237.493 50.192C237.669 50.52 237.757 50.956 237.757 51.5V56H236.473V51.44C236.473 50.992 236.377 50.68 236.185 50.504C235.993 50.328 235.729 50.24 235.393 50.24H233.749V53.804C233.749 54.34 233.665 54.776 233.497 55.112C233.337 55.44 233.085 55.688 232.741 55.856C232.405 56.024 231.965 56.132 231.421 56.18ZM242.115 56V51.44C242.115 50.992 242.015 50.68 241.815 50.504C241.623 50.328 241.359 50.24 241.023 50.24H238.779V49.256H241.347C241.747 49.256 242.099 49.332 242.403 49.484C242.715 49.628 242.955 49.864 243.123 50.192C243.299 50.52 243.387 50.956 243.387 51.5V56H242.115ZM238.779 56V55.016H244.215V56H238.779ZM251.576 56V51.44C251.576 50.992 251.48 50.68 251.288 50.504C251.096 50.328 250.832 50.24 250.496 50.24H248.132V49.256H250.82C251.22 49.256 251.572 49.332 251.876 49.484C252.18 49.628 252.42 49.864 252.596 50.192C252.772 50.52 252.86 50.956 252.86 51.5V55.112V56H251.576ZM247.64 56V55.016H252.404L252.344 56H247.64ZM247.34 56V50.072V49.256H248.624V50.132V56H247.34ZM253.7 56.18L253.58 55.292C253.9 55.26 254.144 55.196 254.312 55.1C254.48 54.996 254.596 54.852 254.66 54.668C254.724 54.476 254.756 54.24 254.756 53.96V49.256H257.996C258.396 49.256 258.748 49.332 259.052 49.484C259.356 49.628 259.596 49.864 259.772 50.192C259.948 50.52 260.036 50.956 260.036 51.5V56H258.752V51.44C258.752 50.992 258.656 50.68 258.464 50.504C258.272 50.328 258.008 50.24 257.672 50.24H256.028V53.804C256.028 54.34 255.944 54.776 255.776 55.112C255.616 55.44 255.364 55.688 255.02 55.856C254.684 56.024 254.244 56.132 253.7 56.18ZM265.438 56V51.56C265.438 50.68 265.074 50.24 264.346 50.24H261.226V49.256H264.67C265.086 49.256 265.446 49.34 265.75 49.508C266.062 49.676 266.298 49.936 266.458 50.288C266.626 50.632 266.71 51.076 266.71 51.62V56H265.438ZM261.226 56V49.772H262.51V56H261.226ZM267.731 56V55.016H269.675V51.26C269.675 50.892 269.603 50.632 269.459 50.48C269.315 50.328 269.115 50.236 268.859 50.204L268.043 50.084L268.211 49.124L269.447 49.292C269.935 49.364 270.307 49.568 270.563 49.904C270.819 50.232 270.947 50.672 270.947 51.224V56H267.731ZM272.28 56V50.66L272.136 49.256H273.408L273.564 50.66V56H272.28ZM280.289 58.4V51.44C280.289 50.992 280.189 50.68 279.989 50.504C279.797 50.328 279.537 50.24 279.209 50.24H276.809V49.256H279.521C279.921 49.256 280.273 49.332 280.577 49.484C280.889 49.628 281.129 49.864 281.297 50.192C281.473 50.52 281.561 50.956 281.561 51.5V58.4H280.289ZM285.795 56V51.44C285.795 50.992 285.699 50.68 285.507 50.504C285.315 50.328 285.051 50.24 284.715 50.24H282.495V49.256H285.039C285.439 49.256 285.791 49.332 286.095 49.484C286.399 49.628 286.639 49.864 286.815 50.192C286.991 50.52 287.079 50.956 287.079 51.5V56H285.795ZM287.974 56.396L287.794 55.388L290.218 54.932C290.65 54.844 291.002 54.716 291.274 54.548C291.546 54.372 291.754 54.14 291.898 53.852C292.05 53.564 292.158 53.212 292.222 52.796C292.286 52.372 292.322 51.868 292.33 51.284C292.338 50.7 292.342 50.024 292.342 49.256H293.614C293.614 50.088 293.598 50.832 293.566 51.488C293.534 52.144 293.462 52.724 293.35 53.228C293.238 53.724 293.062 54.152 292.822 54.512C292.582 54.872 292.25 55.172 291.826 55.412C291.41 55.652 290.878 55.832 290.23 55.952L287.974 56.396ZM289.858 55.112L288.346 49.256H289.63L291.082 55.112H289.858ZM294.475 56V55.016H296.419V51.26C296.419 50.892 296.347 50.632 296.203 50.48C296.059 50.328 295.859 50.236 295.603 50.204L294.787 50.084L294.955 49.124L296.191 49.292C296.679 49.364 297.051 49.568 297.307 49.904C297.563 50.232 297.691 50.672 297.691 51.224V56H294.475ZM299.6 56.12L298.724 49.256H299.948L300.644 55.04C301.252 55 301.776 54.888 302.216 54.704C302.664 54.52 303.032 54.268 303.32 53.948C303.608 53.628 303.82 53.236 303.956 52.772C304.092 52.3 304.16 51.764 304.16 51.164L304.136 49.256H305.42L305.432 51.104C305.44 52.224 305.232 53.156 304.808 53.9C304.392 54.644 303.752 55.204 302.888 55.58C302.024 55.948 300.928 56.128 299.6 56.12ZM300.236 53.468L299.936 52.628C300.336 52.476 300.648 52.3 300.872 52.1C301.096 51.892 301.252 51.624 301.34 51.296C301.436 50.96 301.488 50.536 301.496 50.024V49.28H302.708V50C302.7 50.584 302.616 51.096 302.456 51.536C302.304 51.976 302.048 52.352 301.688 52.664C301.336 52.976 300.852 53.244 300.236 53.468Z" fill="#9EACAE"/>
<path d="M221.477 91.56V90.804H227.189V91.56H221.477ZM227.237 91.56V90.804H232.949V91.56H227.237ZM232.997 91.56V90.804H238.709V91.56H232.997ZM238.757 91.56V90.804H244.469V91.56H238.757ZM244.517 91.56V90.804H250.229V91.56H244.517ZM250.277 91.56V90.804H255.989V91.56H250.277ZM256.037 91.56V90.804H261.749V91.56H256.037ZM261.797 91.56V90.804H267.509V91.56H261.797ZM267.557 91.56V90.804H273.269V91.56H267.557ZM273.317 91.56V90.804H279.029V91.56H273.317ZM279.077 91.56V90.804H284.789V91.56H279.077ZM284.837 91.56V90.804H290.549V91.56H284.837ZM290.597 91.56V90.804H296.309V91.56H290.597ZM296.357 91.56V90.804H302.069V91.56H296.357ZM302.117 91.56V90.804H307.829V91.56H302.117ZM307.877 91.56V90.804H313.589V91.56H307.877ZM313.637 91.56V90.804H319.349V91.56H313.637ZM322.999 85.944C322.775 85.944 322.583 85.864 322.423 85.704C322.263 85.544 322.183 85.34 322.183 85.092C322.183 84.836 322.263 84.628 322.423 84.468C322.583 84.308 322.775 84.228 322.999 84.228C323.231 84.228 323.423 84.308 323.575 84.468C323.735 84.628 323.815 84.836 323.815 85.092C323.815 85.34 323.735 85.544 323.575 85.704C323.423 85.864 323.231 85.944 322.999 85.944ZM322.999 90.144C322.775 90.144 322.583 90.064 322.423 89.904C322.263 89.744 322.183 89.54 322.183 89.292C322.183 89.036 322.263 88.828 322.423 88.668C322.583 88.508 322.775 88.428 322.999 88.428C323.231 88.428 323.423 88.508 323.575 88.668C323.735 88.828 323.815 89.036 323.815 89.292C323.815 89.54 323.735 89.744 323.575 89.904C323.423 90.064 323.231 90.144 322.999 90.144ZM325.179 92.4V84.66L325.035 83.256H326.307L326.463 84.66V92.4H325.179ZM327.81 87.48V86.484V84.66L327.666 83.256H328.938L329.094 84.66V86.484L329.082 87.24L327.81 87.48ZM333.478 90V85.44C333.478 84.992 333.378 84.68 333.178 84.504C332.986 84.328 332.722 84.24 332.386 84.24H330.142V83.256H332.71C333.11 83.256 333.462 83.332 333.766 83.484C334.078 83.628 334.318 83.864 334.486 84.192C334.662 84.52 334.75 84.956 334.75 85.5V90H333.478ZM330.142 90V89.016H335.578V90H330.142Z" fill="#9EACAE"/>
<path d="M36.0924 98.24V98.77H34.2024V98.24H36.0924ZM34.8671 104V100.55C34.8671 100.283 34.8904 100.05 34.9371 99.85C34.9904 99.65 35.0604 99.4933 35.1471 99.38H32.5871V98.29H37.2771V99.38H36.4971C36.4238 99.5467 36.3738 99.74 36.3471 99.96C36.3204 100.173 36.3071 100.37 36.3071 100.55V104H34.8671ZM41.447 104V100.15C41.447 99.6367 41.2237 99.38 40.777 99.38H37.987V98.29H41.167C41.507 98.29 41.807 98.3567 42.067 98.49C42.327 98.6233 42.5304 98.8333 42.677 99.12C42.8237 99.4 42.897 99.7667 42.897 100.22V104H41.447ZM37.987 104V98.94H39.437V104H37.987ZM49.0943 104H47.5543L45.6743 101.09L44.7843 104H43.4143L44.5243 100.57L44.8243 99.8L43.9043 98.29H45.3543L46.1543 99.59L46.8743 100.68L47.1443 99.77L47.5443 98.29H48.9143L47.7143 101.93L49.0943 104ZM53.6081 104V100.55C53.6081 100.283 53.6315 100.05 53.6781 99.85C53.7315 99.65 53.8015 99.4933 53.8881 99.38H51.3281V98.29H56.0181V99.38H55.2381C55.1648 99.5467 55.1148 99.74 55.0881 99.96C55.0615 100.173 55.0481 100.37 55.0481 100.55V104H53.6081ZM59.828 104L56.598 98.29H58.058L61.278 104H59.828ZM56.498 104V102.92H60.498L60.908 104H56.498ZM59.918 101.76L59.098 100.53L59.998 98.29H61.428L59.918 101.76ZM64.234 104.01L64.364 102.93C64.8573 103.037 65.2407 103.033 65.514 102.92C65.7873 102.8 65.9773 102.583 66.084 102.27C66.1973 101.957 66.2507 101.567 66.244 101.1C66.2373 100.68 66.1907 100.34 66.104 100.08C66.0173 99.82 65.894 99.6333 65.734 99.52C65.574 99.4 65.3707 99.34 65.124 99.34C64.944 99.34 64.7807 99.3767 64.634 99.45C64.4873 99.5233 64.3673 99.63 64.274 99.77C64.1807 99.91 64.1207 100.077 64.094 100.27L63.764 99.65C63.8973 99.1433 64.114 98.7767 64.414 98.55C64.7207 98.3167 65.0573 98.2 65.424 98.2C65.7773 98.2 66.0873 98.26 66.354 98.38C66.6273 98.4933 66.8573 98.67 67.044 98.91C67.2307 99.15 67.3707 99.4533 67.464 99.82C67.564 100.187 67.614 100.613 67.614 101.1C67.6207 101.833 67.4907 102.447 67.224 102.94C66.964 103.433 66.5807 103.78 66.074 103.98C65.5673 104.173 64.954 104.183 64.234 104.01ZM62.034 104L62.734 100.15L61.934 98.29H63.434L64.104 100.22L63.484 104H62.034Z" fill="#9EACAE"/>
<path d="M32.2371 105.25H68.004V105.75H32.2371V105.25Z" fill="#9EACAE"/>
<path d="M220.652 105.77C220.239 105.09 219.916 104.383 219.682 103.65C219.449 102.91 219.332 102.1 219.332 101.22C219.332 100.34 219.449 99.53 219.682 98.79C219.916 98.05 220.239 97.3433 220.652 96.67L221.282 96.95C220.902 97.5833 220.619 98.2667 220.432 99C220.252 99.7333 220.162 100.473 220.162 101.22C220.162 101.967 220.252 102.707 220.432 103.44C220.619 104.167 220.902 104.85 221.282 105.49L220.652 105.77ZM224.136 99.03L223.586 98.78L224.456 97.03L225.156 97.36L224.136 99.03ZM222.546 99.03L221.996 98.78L222.866 97.03L223.566 97.36L222.546 99.03ZM229.656 104V100.2C229.656 99.8267 229.576 99.5667 229.416 99.42C229.256 99.2733 229.036 99.2 228.756 99.2H226.786V98.38H229.026C229.36 98.38 229.653 98.4433 229.906 98.57C230.16 98.69 230.36 98.8867 230.506 99.16C230.653 99.4333 230.726 99.7967 230.726 100.25V103.26V104H229.656ZM226.376 104V103.18H230.346L230.296 104H226.376ZM226.126 104V99.06V98.38H227.196V99.11V104H226.126ZM236.656 104H235.516L233.406 100.81L232.416 104H231.406L232.506 100.56L232.786 99.86L231.866 98.38H232.946L233.796 99.74L234.636 101L234.886 100.13L235.396 98.38H236.416L235.256 101.92L236.656 104ZM240.715 104V100.2C240.715 99.8267 240.632 99.5667 240.465 99.42C240.305 99.2733 240.085 99.2 239.805 99.2H237.355V98.38H240.075C240.409 98.38 240.702 98.4433 240.955 98.57C241.215 98.69 241.415 98.8867 241.555 99.16C241.702 99.4333 241.775 99.7967 241.775 100.25V104H240.715ZM237.325 104V101.29L237.475 100.62H238.385V101.29V104H237.325ZM244.792 99.03L244.242 98.78L245.112 97.03L245.812 97.36L244.792 99.03ZM243.202 99.03L242.652 98.78L243.522 97.03L244.222 97.36L243.202 99.03ZM248.633 104V99.55L248.513 98.38H249.573L249.703 99.55V104H248.633ZM255.656 104H254.516L252.406 100.81L251.416 104H250.406L251.506 100.56L251.786 99.86L250.866 98.38H251.946L252.796 99.74L253.636 101L253.886 100.13L254.396 98.38H255.416L254.256 101.92L255.656 104ZM255.885 105.6L258.365 96.9H259.065L256.585 105.6H255.885ZM259.742 104V99.55L259.622 98.38H260.682L260.812 99.55V104H259.742ZM265.677 99.03L265.127 98.78L265.997 97.03L266.697 97.36L265.677 99.03ZM264.087 99.03L263.537 98.78L264.407 97.03L265.107 97.36L264.087 99.03ZM270.956 104V100.2C270.956 99.8267 270.873 99.5667 270.706 99.42C270.546 99.2733 270.326 99.2 270.046 99.2H267.596V98.38H270.316C270.65 98.38 270.943 98.4433 271.196 98.57C271.456 98.69 271.656 98.8867 271.796 99.16C271.943 99.4333 272.016 99.7967 272.016 100.25V104H270.956ZM267.566 104V101.29L267.716 100.62H268.626V101.29V104H267.566ZM273.573 104.1L272.843 98.38H273.863L274.443 103.2C274.949 103.167 275.386 103.073 275.753 102.92C276.126 102.767 276.433 102.557 276.673 102.29C276.913 102.023 277.089 101.697 277.203 101.31C277.316 100.917 277.373 100.47 277.373 99.97L277.353 98.38H278.423L278.433 99.92C278.439 100.853 278.266 101.63 277.913 102.25C277.566 102.87 277.033 103.337 276.313 103.65C275.593 103.957 274.679 104.107 273.573 104.1ZM274.103 101.89L273.853 101.19C274.186 101.063 274.446 100.917 274.633 100.75C274.819 100.577 274.949 100.353 275.023 100.08C275.103 99.8 275.146 99.4467 275.153 99.02V98.4H276.163V99C276.156 99.4867 276.086 99.9133 275.953 100.28C275.826 100.647 275.613 100.96 275.313 101.22C275.019 101.48 274.616 101.703 274.103 101.89ZM284.236 104H283.096L280.986 100.81L279.996 104H278.986L280.086 100.56L280.366 99.86L279.446 98.38H280.526L281.376 99.74L282.216 101L282.466 100.13L282.976 98.38H283.996L282.836 101.92L284.236 104ZM288.296 104V100.2C288.296 99.8267 288.213 99.5667 288.046 99.42C287.886 99.2733 287.666 99.2 287.386 99.2H284.936V98.38H287.656C287.989 98.38 288.283 98.4433 288.536 98.57C288.796 98.69 288.996 98.8867 289.136 99.16C289.283 99.4333 289.356 99.7967 289.356 100.25V104H288.296ZM284.906 104V101.29L285.056 100.62H285.966V101.29V104H284.906ZM292.372 99.03L291.822 98.78L292.692 97.03L293.392 97.36L292.372 99.03ZM290.782 99.03L290.232 98.78L291.102 97.03L291.802 97.36L290.782 99.03ZM296.834 100.62C296.647 100.62 296.487 100.553 296.354 100.42C296.22 100.287 296.154 100.117 296.154 99.91C296.154 99.6967 296.22 99.5233 296.354 99.39C296.487 99.2567 296.647 99.19 296.834 99.19C297.027 99.19 297.187 99.2567 297.314 99.39C297.447 99.5233 297.514 99.6967 297.514 99.91C297.514 100.117 297.447 100.287 297.314 100.42C297.187 100.553 297.027 100.62 296.834 100.62ZM296.834 104.12C296.647 104.12 296.487 104.053 296.354 103.92C296.22 103.787 296.154 103.617 296.154 103.41C296.154 103.197 296.22 103.023 296.354 102.89C296.487 102.757 296.647 102.69 296.834 102.69C297.027 102.69 297.187 102.757 297.314 102.89C297.447 103.023 297.514 103.197 297.514 103.41C297.514 103.617 297.447 103.787 297.314 103.92C297.187 104.053 297.027 104.12 296.834 104.12ZM298.65 106V99.55L298.53 98.38H299.59L299.72 99.55V106H298.65ZM301.663 104L303.533 99.2H300.523V98.38H304.603V99.27L302.733 104H301.663ZM300.523 99.2V96.83H301.483V99.2H300.523ZM308.746 104V100.2C308.746 99.8267 308.663 99.5667 308.496 99.42C308.336 99.2733 308.116 99.2 307.836 99.2H305.386V98.38H308.106C308.44 98.38 308.733 98.4433 308.986 98.57C309.246 98.69 309.446 98.8867 309.586 99.16C309.733 99.4333 309.806 99.7967 309.806 100.25V104H308.746ZM305.356 104V101.29L305.506 100.62H306.416V101.29V104H305.356ZM311.702 104L313.572 99.2H310.562V98.38H314.642V99.27L312.772 104H311.702ZM310.562 99.2V96.83H311.522V99.2H310.562ZM315.886 105.77L315.256 105.49C315.636 104.85 315.916 104.167 316.096 103.44C316.282 102.707 316.376 101.967 316.376 101.22C316.376 100.473 316.282 99.7333 316.096 99C315.916 98.2667 315.636 97.5833 315.256 96.95L315.886 96.67C316.299 97.3433 316.622 98.05 316.856 98.79C317.089 99.53 317.206 100.34 317.206 101.22C317.206 102.1 317.089 102.91 316.856 103.65C316.622 104.383 316.299 105.09 315.886 105.77Z" fill="#9EACAE"/>
<path d="M221.641 136.56V135.804H227.353V136.56H221.641ZM227.401 136.56V135.804H233.113V136.56H227.401ZM233.161 136.56V135.804H238.873V136.56H233.161ZM238.921 136.56V135.804H244.633V136.56H238.921ZM244.681 136.56V135.804H250.393V136.56H244.681ZM250.441 136.56V135.804H256.153V136.56H250.441ZM256.201 136.56V135.804H261.913V136.56H256.201ZM261.961 136.56V135.804H267.673V136.56H261.961ZM267.721 136.56V135.804H273.433V136.56H267.721ZM273.481 136.56V135.804H279.193V136.56H273.481ZM279.241 136.56V135.804H284.953V136.56H279.241ZM285.001 136.56V135.804H290.713V136.56H285.001ZM290.761 136.56V135.804H296.473V136.56H290.761ZM296.521 136.56V135.804H302.233V136.56H296.521ZM302.281 136.56V135.804H307.993V136.56H302.281ZM308.041 136.56V135.804H313.753V136.56H308.041ZM317.403 130.944C317.179 130.944 316.987 130.864 316.827 130.704C316.667 130.544 316.587 130.34 316.587 130.092C316.587 129.836 316.667 129.628 316.827 129.468C316.987 129.308 317.179 129.228 317.403 129.228C317.635 129.228 317.827 129.308 317.979 129.468C318.139 129.628 318.219 129.836 318.219 130.092C318.219 130.34 318.139 130.544 317.979 130.704C317.827 130.864 317.635 130.944 317.403 130.944ZM317.403 135.144C317.179 135.144 316.987 135.064 316.827 134.904C316.667 134.744 316.587 134.54 316.587 134.292C316.587 134.036 316.667 133.828 316.827 133.668C316.987 133.508 317.179 133.428 317.403 133.428C317.635 133.428 317.827 133.508 317.979 133.668C318.139 133.828 318.219 134.036 318.219 134.292C318.219 134.54 318.139 134.744 317.979 134.904C317.827 135.064 317.635 135.144 317.403 135.144ZM319.583 137.4V129.66L319.439 128.256H320.711L320.867 129.66V137.4H319.583ZM322.215 132.48V131.484V129.66L322.071 128.256H323.343L323.499 129.66V131.484L323.487 132.24L322.215 132.48ZM327.882 135V130.44C327.882 129.992 327.782 129.68 327.582 129.504C327.39 129.328 327.126 129.24 326.79 129.24H324.546V128.256H327.114C327.514 128.256 327.866 128.332 328.17 128.484C328.482 128.628 328.722 128.864 328.89 129.192C329.066 129.52 329.154 129.956 329.154 130.5V135H327.882ZM324.546 135V134.016H329.982V135H324.546ZM331.988 135L334.232 129.24H330.62V128.256H335.516V129.324L333.272 135H331.988ZM330.62 129.24V126.396H331.772V129.24H330.62Z" fill="#9EACAE"/>
<path d="M33.2023 146.9V146.02V144.46L33.0923 143.29H34.5323L34.6523 144.46V146.02L34.6423 146.65L33.2023 146.9ZM35.3702 149V147.92H36.8402V145.03C36.8402 144.777 36.7902 144.603 36.6902 144.51C36.5969 144.41 36.4636 144.35 36.2902 144.33L35.5902 144.24L35.7702 143.17L37.0202 143.33C37.4336 143.383 37.7469 143.56 37.9602 143.86C38.1736 144.153 38.2802 144.53 38.2802 144.99V149H35.3702ZM39.7488 149.1L38.9988 143.29H40.3688L40.9188 147.91C41.4188 147.877 41.8388 147.787 42.1788 147.64C42.5188 147.487 42.7888 147.287 42.9888 147.04C43.1955 146.793 43.3422 146.5 43.4288 146.16C43.5155 145.82 43.5588 145.447 43.5588 145.04L43.5388 143.29H44.9888L44.9988 144.97C45.0055 145.89 44.8255 146.663 44.4588 147.29C44.0922 147.91 43.5222 148.373 42.7488 148.68C41.9755 148.987 40.9755 149.127 39.7488 149.1ZM40.5788 146.82L40.2388 145.92C40.5455 145.84 40.7755 145.727 40.9288 145.58C41.0888 145.427 41.1955 145.22 41.2488 144.96C41.3022 144.7 41.3288 144.367 41.3288 143.96V143.3H42.6988V143.93C42.6922 144.403 42.6255 144.83 42.4988 145.21C42.3788 145.583 42.1655 145.903 41.8588 146.17C41.5588 146.437 41.1322 146.653 40.5788 146.82ZM49.6081 149V145.55C49.6081 145.283 49.6315 145.05 49.6781 144.85C49.7315 144.65 49.8015 144.493 49.8881 144.38H47.3281V143.29H52.0181V144.38H51.2381C51.1648 144.547 51.1148 144.74 51.0881 144.96C51.0615 145.173 51.0481 145.37 51.0481 145.55V149H49.6081ZM55.828 149L52.598 143.29H54.058L57.278 149H55.828ZM52.498 149V147.92H56.498L56.908 149H52.498ZM55.918 146.76L55.098 145.53L55.998 143.29H57.428L55.918 146.76ZM60.234 149.01L60.364 147.93C60.8573 148.037 61.2407 148.033 61.514 147.92C61.7873 147.8 61.9773 147.583 62.084 147.27C62.1973 146.957 62.2507 146.567 62.244 146.1C62.2373 145.68 62.1907 145.34 62.104 145.08C62.0173 144.82 61.894 144.633 61.734 144.52C61.574 144.4 61.3707 144.34 61.124 144.34C60.944 144.34 60.7807 144.377 60.634 144.45C60.4873 144.523 60.3673 144.63 60.274 144.77C60.1807 144.91 60.1207 145.077 60.094 145.27L59.764 144.65C59.8973 144.143 60.114 143.777 60.414 143.55C60.7207 143.317 61.0573 143.2 61.424 143.2C61.7773 143.2 62.0873 143.26 62.354 143.38C62.6273 143.493 62.8573 143.67 63.044 143.91C63.2307 144.15 63.3707 144.453 63.464 144.82C63.564 145.187 63.614 145.613 63.614 146.1C63.6207 146.833 63.4907 147.447 63.224 147.94C62.964 148.433 62.5807 148.78 62.074 148.98C61.5673 149.173 60.954 149.183 60.234 149.01ZM58.034 149L58.734 145.15L57.934 143.29H59.434L60.104 145.22L59.484 149H58.034Z" fill="#9EACAE"/>
<path d="M32.6023 150.25H64.004V150.75H32.6023V150.25Z" fill="#9EACAE"/>
<path d="M224.353 150.77C223.94 150.09 223.617 149.383 223.383 148.65C223.15 147.91 223.033 147.1 223.033 146.22C223.033 145.34 223.15 144.53 223.383 143.79C223.617 143.05 223.94 142.343 224.353 141.67L224.983 141.95C224.603 142.583 224.32 143.267 224.133 144C223.953 144.733 223.863 145.473 223.863 146.22C223.863 146.967 223.953 147.707 224.133 148.44C224.32 149.167 224.603 149.85 224.983 150.49L224.353 150.77ZM227.838 144.03L227.288 143.78L228.158 142.03L228.858 142.36L227.838 144.03ZM226.248 144.03L225.698 143.78L226.568 142.03L227.268 142.36L226.248 144.03ZM232.407 149V145.2C232.407 144.827 232.324 144.567 232.157 144.42C231.997 144.273 231.777 144.2 231.497 144.2H229.627V143.38H231.767C232.101 143.38 232.394 143.443 232.647 143.57C232.907 143.69 233.107 143.887 233.247 144.16C233.394 144.433 233.467 144.797 233.467 145.25V149H232.407ZM229.627 149V148.18H234.157V149H229.627ZM239.839 149H238.699L236.589 145.81L235.599 149H234.589L235.689 145.56L235.969 144.86L235.049 143.38H236.129L236.979 144.74L237.819 146L238.069 145.13L238.579 143.38H239.599L238.439 146.92L239.839 149ZM243.899 149V145.2C243.899 144.827 243.816 144.567 243.649 144.42C243.489 144.273 243.269 144.2 242.989 144.2H240.539V143.38H243.259C243.592 143.38 243.886 143.443 244.139 143.57C244.399 143.69 244.599 143.887 244.739 144.16C244.886 144.433 244.959 144.797 244.959 145.25V149H243.899ZM240.509 149V146.29L240.659 145.62H241.569V146.29V149H240.509ZM247.975 144.03L247.425 143.78L248.295 142.03L248.995 142.36L247.975 144.03ZM246.385 144.03L245.835 143.78L246.705 142.03L247.405 142.36L246.385 144.03ZM251.817 149V144.55L251.697 143.38H252.757L252.887 144.55V149H251.817ZM258.839 149H257.699L255.589 145.81L254.599 149H253.589L254.689 145.56L254.969 144.86L254.049 143.38H255.129L255.979 144.74L256.819 146L257.069 145.13L257.579 143.38H258.599L257.439 146.92L258.839 149ZM259.069 150.6L261.549 141.9H262.249L259.769 150.6H259.069ZM262.926 149V144.55L262.806 143.38H263.866L263.996 144.55V149H262.926ZM268.86 144.03L268.31 143.78L269.18 142.03L269.88 142.36L268.86 144.03ZM267.27 144.03L266.72 143.78L267.59 142.03L268.29 142.36L267.27 144.03ZM271.38 149.1L270.65 143.38H271.67L272.25 148.2C272.757 148.167 273.193 148.073 273.56 147.92C273.933 147.767 274.24 147.557 274.48 147.29C274.72 147.023 274.897 146.697 275.01 146.31C275.123 145.917 275.18 145.47 275.18 144.97L275.16 143.38H276.23L276.24 144.92C276.247 145.853 276.073 146.63 275.72 147.25C275.373 147.87 274.84 148.337 274.12 148.65C273.4 148.957 272.487 149.107 271.38 149.1ZM271.91 146.89L271.66 146.19C271.993 146.063 272.253 145.917 272.44 145.75C272.627 145.577 272.757 145.353 272.83 145.08C272.91 144.8 272.953 144.447 272.96 144.02V143.4H273.97V144C273.963 144.487 273.893 144.913 273.76 145.28C273.633 145.647 273.42 145.96 273.12 146.22C272.827 146.48 272.423 146.703 271.91 146.89ZM277.214 146.9V146.07V144.55L277.094 143.38H278.154L278.284 144.55V146.07L278.274 146.7L277.214 146.9ZM284.236 149H283.096L280.986 145.81L279.996 149H278.986L280.086 145.56L280.366 144.86L279.446 143.38H280.526L281.376 144.74L282.216 146L282.466 145.13L282.976 143.38H283.996L282.836 146.92L284.236 149ZM288.296 149V145.2C288.296 144.827 288.213 144.567 288.046 144.42C287.886 144.273 287.666 144.2 287.386 144.2H284.936V143.38H287.656C287.989 143.38 288.283 143.443 288.536 143.57C288.796 143.69 288.996 143.887 289.136 144.16C289.283 144.433 289.356 144.797 289.356 145.25V149H288.296ZM284.906 149V146.29L285.056 145.62H285.966V146.29V149H284.906ZM292.372 144.03L291.822 143.78L292.692 142.03L293.392 142.36L292.372 144.03ZM290.782 144.03L290.232 143.78L291.102 142.03L291.802 142.36L290.782 144.03ZM296.834 145.62C296.647 145.62 296.487 145.553 296.354 145.42C296.22 145.287 296.154 145.117 296.154 144.91C296.154 144.697 296.22 144.523 296.354 144.39C296.487 144.257 296.647 144.19 296.834 144.19C297.027 144.19 297.187 144.257 297.314 144.39C297.447 144.523 297.514 144.697 297.514 144.91C297.514 145.117 297.447 145.287 297.314 145.42C297.187 145.553 297.027 145.62 296.834 145.62ZM296.834 149.12C296.647 149.12 296.487 149.053 296.354 148.92C296.22 148.787 296.154 148.617 296.154 148.41C296.154 148.197 296.22 148.023 296.354 147.89C296.487 147.757 296.647 147.69 296.834 147.69C297.027 147.69 297.187 147.757 297.314 147.89C297.447 148.023 297.514 148.197 297.514 148.41C297.514 148.617 297.447 148.787 297.314 148.92C297.187 149.053 297.027 149.12 296.834 149.12ZM298.65 151V144.55L298.53 143.38H299.59L299.72 144.55V151H298.65ZM301.663 149L303.533 144.2H300.523V143.38H304.603V144.27L302.733 149H301.663ZM300.523 144.2V141.83H301.483V144.2H300.523ZM308.746 149V145.2C308.746 144.827 308.663 144.567 308.496 144.42C308.336 144.273 308.116 144.2 307.836 144.2H305.386V143.38H308.106C308.44 143.38 308.733 143.443 308.986 143.57C309.246 143.69 309.446 143.887 309.586 144.16C309.733 144.433 309.806 144.797 309.806 145.25V149H308.746ZM305.356 149V146.29L305.506 145.62H306.416V146.29V149H305.356ZM311.702 149L313.572 144.2H310.562V143.38H314.642V144.27L312.772 149H311.702ZM310.562 144.2V141.83H311.522V144.2H310.562ZM315.886 150.77L315.256 150.49C315.636 149.85 315.916 149.167 316.096 148.44C316.282 147.707 316.376 146.967 316.376 146.22C316.376 145.473 316.282 144.733 316.096 144C315.916 143.267 315.636 142.583 315.256 141.95L315.886 141.67C316.299 142.343 316.622 143.05 316.856 143.79C317.089 144.53 317.206 145.34 317.206 146.22C317.206 147.1 317.089 147.91 316.856 148.65C316.622 149.383 316.299 150.09 315.886 150.77Z" fill="#9EACAE"/>
<path d="M125.632 181.3V180.67H130.392V181.3H125.632ZM130.432 181.3V180.67H135.192V181.3H130.432ZM135.232 181.3V180.67H139.992V181.3H135.232ZM140.032 181.3V180.67H144.792V181.3H140.032ZM144.832 181.3V180.67H149.592V181.3H144.832ZM149.632 181.3V180.67H154.392V181.3H149.632ZM154.432 181.3V180.67H159.192V181.3H154.432ZM161.214 180.15L161.114 179.41C161.381 179.383 161.584 179.33 161.724 179.25C161.864 179.163 161.961 179.043 162.014 178.89C162.067 178.73 162.094 178.533 162.094 178.3V174.38H164.794C165.127 174.38 165.421 174.443 165.674 174.57C165.927 174.69 166.127 174.887 166.274 175.16C166.421 175.433 166.494 175.797 166.494 176.25V180H165.424V176.2C165.424 175.827 165.344 175.567 165.184 175.42C165.024 175.273 164.804 175.2 164.524 175.2H163.154V178.17C163.154 178.617 163.084 178.98 162.944 179.26C162.811 179.533 162.601 179.74 162.314 179.88C162.034 180.02 161.667 180.11 161.214 180.15ZM167.336 180V179.18H168.956V176.05C168.956 175.743 168.896 175.527 168.776 175.4C168.656 175.273 168.489 175.197 168.276 175.17L167.596 175.07L167.736 174.27L168.766 174.41C169.172 174.47 169.482 174.64 169.696 174.92C169.909 175.193 170.016 175.56 170.016 176.02V180H167.336ZM171.606 180.1L170.876 174.38H171.896L172.476 179.2C172.983 179.167 173.419 179.073 173.786 178.92C174.159 178.767 174.466 178.557 174.706 178.29C174.946 178.023 175.123 177.697 175.236 177.31C175.349 176.917 175.406 176.47 175.406 175.97L175.386 174.38H176.456L176.466 175.92C176.473 176.853 176.299 177.63 175.946 178.25C175.599 178.87 175.066 179.337 174.346 179.65C173.626 179.957 172.713 180.107 171.606 180.1ZM172.136 177.89L171.886 177.19C172.219 177.063 172.479 176.917 172.666 176.75C172.853 176.577 172.983 176.353 173.056 176.08C173.136 175.8 173.179 175.447 173.186 175.02V174.4H174.196V175C174.189 175.487 174.119 175.913 173.986 176.28C173.859 176.647 173.646 176.96 173.346 177.22C173.053 177.48 172.649 177.703 172.136 177.89ZM179.97 180V176.2C179.97 175.827 179.886 175.567 179.72 175.42C179.56 175.273 179.34 175.2 179.06 175.2H177.19V174.38H179.33C179.663 174.38 179.956 174.443 180.21 174.57C180.47 174.69 180.67 174.887 180.81 175.16C180.956 175.433 181.03 175.797 181.03 176.25V180H179.97ZM177.19 180V179.18H181.72V180H177.19ZM184.374 177.9V177.07V175.55L184.254 174.38H185.314L185.444 175.55V177.07L185.434 177.7L184.374 177.9ZM188.506 175.03L187.956 174.78L188.826 173.03L189.526 173.36L188.506 175.03ZM186.916 175.03L186.366 174.78L187.236 173.03L187.936 173.36L186.916 175.03ZM190.546 180V175.55L190.426 174.38H191.486L191.616 175.55V180H190.546ZM194.559 180.02L194.659 179.2C195.185 179.313 195.605 179.303 195.919 179.17C196.232 179.037 196.455 178.793 196.589 178.44C196.729 178.08 196.792 177.62 196.779 177.06C196.772 176.587 196.712 176.213 196.599 175.94C196.492 175.66 196.342 175.46 196.149 175.34C195.962 175.22 195.739 175.16 195.479 175.16C195.245 175.16 195.045 175.21 194.879 175.31C194.712 175.403 194.579 175.533 194.479 175.7C194.379 175.867 194.309 176.053 194.269 176.26L193.999 175.76C194.125 175.253 194.342 174.887 194.649 174.66C194.962 174.427 195.305 174.31 195.679 174.31C195.992 174.31 196.275 174.363 196.529 174.47C196.789 174.57 197.012 174.73 197.199 174.95C197.385 175.17 197.529 175.457 197.629 175.81C197.735 176.157 197.792 176.573 197.799 177.06C197.812 177.813 197.692 178.437 197.439 178.93C197.185 179.423 196.815 179.767 196.329 179.96C195.842 180.153 195.252 180.173 194.559 180.02ZM192.559 180L193.279 176.13L192.499 174.38H193.599L194.289 176.17L193.629 180H192.559ZM200.92 180V176.37C200.92 176.11 200.943 175.883 200.99 175.69C201.043 175.49 201.113 175.327 201.2 175.2H198.5V174.38H202.96V175.2H202.2C202.113 175.367 202.053 175.56 202.02 175.78C201.993 175.993 201.98 176.19 201.98 176.37V180H200.92ZM203.61 180V179.18H205.05C205.377 179.18 205.644 179.117 205.85 178.99C206.057 178.857 206.21 178.667 206.31 178.42C206.41 178.167 206.46 177.87 206.46 177.53V176.85C206.46 176.503 206.41 176.207 206.31 175.96C206.21 175.713 206.057 175.527 205.85 175.4C205.644 175.267 205.377 175.2 205.05 175.2H203.61V174.38H205.31C205.79 174.38 206.194 174.48 206.52 174.68C206.854 174.88 207.104 175.17 207.27 175.55C207.444 175.923 207.53 176.373 207.53 176.9V177.48C207.53 178.013 207.444 178.47 207.27 178.85C207.104 179.223 206.854 179.51 206.52 179.71C206.194 179.903 205.79 180 205.31 180H203.61ZM210.298 180V175.55L210.178 174.38H211.238L211.368 175.55V180H210.298ZM217.321 180H216.181L214.071 176.81L213.081 180H212.071L213.171 176.56L213.451 175.86L212.531 174.38H213.611L214.461 175.74L215.301 177L215.551 176.13L216.061 174.38H217.081L215.921 177.92L217.321 180ZM218.62 180.1L217.89 174.38H218.91L219.49 179.2C219.997 179.167 220.433 179.073 220.8 178.92C221.173 178.767 221.48 178.557 221.72 178.29C221.96 178.023 222.137 177.697 222.25 177.31C222.363 176.917 222.42 176.47 222.42 175.97L222.4 174.38H223.47L223.48 175.92C223.487 176.853 223.313 177.63 222.96 178.25C222.613 178.87 222.08 179.337 221.36 179.65C220.64 179.957 219.727 180.107 218.62 180.1ZM219.15 177.89L218.9 177.19C219.233 177.063 219.493 176.917 219.68 176.75C219.867 176.577 219.997 176.353 220.07 176.08C220.15 175.8 220.193 175.447 220.2 175.02V174.4H221.21V175C221.203 175.487 221.133 175.913 221 176.28C220.873 176.647 220.66 176.96 220.36 177.22C220.067 177.48 219.663 177.703 219.15 177.89ZM224.454 177.9V177.07V175.55L224.334 174.38H225.394L225.524 175.55V177.07L225.514 177.7L224.454 177.9ZM226.386 180V179.18H228.006V176.05C228.006 175.743 227.946 175.527 227.826 175.4C227.706 175.273 227.54 175.197 227.326 175.17L226.646 175.07L226.786 174.27L227.816 174.41C228.223 174.47 228.533 174.64 228.746 174.92C228.96 175.193 229.066 175.56 229.066 176.02V180H226.386ZM234.379 180V176.2C234.379 175.827 234.299 175.567 234.139 175.42C233.979 175.273 233.759 175.2 233.479 175.2H231.629V174.38H233.749C234.082 174.38 234.375 174.443 234.629 174.57C234.882 174.69 235.082 174.887 235.229 175.16C235.375 175.433 235.449 175.797 235.449 176.25V180H234.379ZM237.044 180.1L236.314 174.38H237.334L237.914 179.2C238.421 179.167 238.857 179.073 239.224 178.92C239.597 178.767 239.904 178.557 240.144 178.29C240.384 178.023 240.561 177.697 240.674 177.31C240.787 176.917 240.844 176.47 240.844 175.97L240.824 174.38H241.894L241.904 175.92C241.911 176.853 241.737 177.63 241.384 178.25C241.037 178.87 240.504 179.337 239.784 179.65C239.064 179.957 238.151 180.107 237.044 180.1ZM237.574 177.89L237.324 177.19C237.657 177.063 237.917 176.917 238.104 176.75C238.291 176.577 238.421 176.353 238.494 176.08C238.574 175.8 238.617 175.447 238.624 175.02V174.4H239.634V175C239.627 175.487 239.557 175.913 239.424 176.28C239.297 176.647 239.084 176.96 238.784 177.22C238.491 177.48 238.087 177.703 237.574 177.89ZM247.708 180H246.568L244.458 176.81L243.468 180H242.458L243.558 176.56L243.838 175.86L242.918 174.38H243.998L244.848 175.74L245.688 177L245.938 176.13L246.448 174.38H247.468L246.308 177.92L247.708 180ZM252.129 180L251.739 177.83V176.04C251.739 175.753 251.699 175.543 251.619 175.41C251.546 175.277 251.403 175.193 251.189 175.16L250.549 175.07L250.689 174.27L251.679 174.41C252.086 174.463 252.373 174.617 252.539 174.87C252.713 175.117 252.799 175.47 252.799 175.93V177.85L253.139 180H252.129ZM250.239 180.16L249.849 179.31C250.329 179.15 250.726 178.94 251.039 178.68C251.359 178.42 251.609 178.09 251.789 177.69L252.139 178.29C252.006 178.597 251.853 178.87 251.679 179.11C251.513 179.35 251.309 179.557 251.069 179.73C250.836 179.903 250.559 180.047 250.239 180.16ZM254.075 180V175.55L253.955 174.38H255.015L255.145 175.55V180H254.075ZM256.727 180V176.37C256.727 176.11 256.75 175.883 256.797 175.69C256.85 175.49 256.92 175.327 257.007 175.2H256.047V174.38H258.757V175.2H257.987C257.894 175.367 257.837 175.56 257.817 175.78C257.797 175.993 257.787 176.19 257.787 176.37V180H256.727ZM261.541 177.9V177.07V175.55L261.421 174.38H262.481L262.611 175.55V177.07L262.601 177.7L261.541 177.9ZM263.474 180V179.18H265.094V176.05C265.094 175.743 265.034 175.527 264.914 175.4C264.794 175.273 264.627 175.197 264.414 175.17L263.734 175.07L263.874 174.27L264.904 174.41C265.31 174.47 265.62 174.64 265.834 174.92C266.047 175.193 266.154 175.56 266.154 176.02V180H263.474ZM269.794 180V176.2C269.794 175.827 269.711 175.567 269.544 175.42C269.384 175.273 269.164 175.2 268.884 175.2H267.014V174.38H269.154C269.487 174.38 269.781 174.443 270.034 174.57C270.294 174.69 270.494 174.887 270.634 175.16C270.781 175.433 270.854 175.797 270.854 176.25V180H269.794ZM267.014 180V179.18H271.544V180H267.014ZM277.678 180V176.2C277.678 175.827 277.598 175.567 277.438 175.42C277.278 175.273 277.058 175.2 276.778 175.2H274.808V174.38H277.048C277.381 174.38 277.675 174.443 277.928 174.57C278.181 174.69 278.381 174.887 278.528 175.16C278.675 175.433 278.748 175.797 278.748 176.25V179.26V180H277.678ZM274.398 180V179.18H278.368L278.318 180H274.398ZM274.148 180V175.06V174.38H275.218V175.11V180H274.148ZM279.848 177.9V177.07V175.55L279.728 174.38H280.788L280.918 175.55V177.07L280.908 177.7L279.848 177.9ZM284.21 180V176.37C284.21 176.11 284.233 175.883 284.28 175.69C284.333 175.49 284.403 175.327 284.49 175.2H281.79V174.38H286.25V175.2H285.49C285.403 175.367 285.343 175.56 285.31 175.78C285.283 175.993 285.27 176.19 285.27 176.37V180H284.21ZM289.391 180V176.37C289.391 176.11 289.414 175.883 289.461 175.69C289.514 175.49 289.584 175.327 289.671 175.2H286.971V174.38H291.431V175.2H290.671C290.584 175.367 290.524 175.56 290.491 175.78C290.464 175.993 290.451 176.19 290.451 176.37V180H289.391ZM295.482 180L292.212 174.38H293.292L296.562 180H295.482ZM292.052 180V179.18H295.932L296.242 180H292.052ZM295.112 177.71L294.512 176.79L295.522 174.38H296.582L295.112 177.71ZM300.793 180V176.2C300.793 175.827 300.71 175.567 300.543 175.42C300.383 175.273 300.163 175.2 299.883 175.2H297.433V174.38H300.153C300.487 174.38 300.78 174.443 301.033 174.57C301.293 174.69 301.493 174.887 301.633 175.16C301.78 175.433 301.853 175.797 301.853 176.25V180H300.793ZM297.403 180V177.29L297.553 176.62H298.463V177.29V180H297.403ZM302.93 180V175.55L302.81 174.38H303.87L304 175.55V180H302.93ZM310.331 175.944C310.107 175.944 309.915 175.864 309.755 175.704C309.595 175.544 309.515 175.34 309.515 175.092C309.515 174.836 309.595 174.628 309.755 174.468C309.915 174.308 310.107 174.228 310.331 174.228C310.563 174.228 310.755 174.308 310.907 174.468C311.067 174.628 311.147 174.836 311.147 175.092C311.147 175.34 311.067 175.544 310.907 175.704C310.755 175.864 310.563 175.944 310.331 175.944ZM310.331 180.144C310.107 180.144 309.915 180.064 309.755 179.904C309.595 179.744 309.515 179.54 309.515 179.292C309.515 179.036 309.595 178.828 309.755 178.668C309.915 178.508 310.107 178.428 310.331 178.428C310.563 178.428 310.755 178.508 310.907 178.668C311.067 178.828 311.147 179.036 311.147 179.292C311.147 179.54 311.067 179.744 310.907 179.904C310.755 180.064 310.563 180.144 310.331 180.144ZM313.495 180L315.739 174.24H312.127V173.256H317.023V174.324L314.779 180H313.495ZM312.127 174.24V171.396H313.279V174.24H312.127ZM318.107 177.48V176.484V174.66L317.963 173.256H319.235L319.391 174.66V176.484L319.379 177.24L318.107 177.48ZM326.534 180H325.166L322.634 176.172L321.446 180H320.234L321.554 175.872L321.89 175.032L320.786 173.256H322.082L323.102 174.888L324.11 176.4L324.41 175.356L325.022 173.256H326.246L324.854 177.504L326.534 180ZM327.517 180V174.66L327.373 173.256H328.645L328.801 174.66V180H327.517ZM334.037 180V175.44C334.037 174.992 333.937 174.68 333.737 174.504C333.545 174.328 333.281 174.24 332.945 174.24H330.005V173.256H333.269C333.669 173.256 334.021 173.332 334.325 173.484C334.637 173.628 334.877 173.864 335.045 174.192C335.221 174.52 335.309 174.956 335.309 175.5V180H334.037ZM329.969 180V176.748L330.149 175.944H331.241V176.748V180H329.969Z" fill="#9EACAE"/>
<path d="M106.186 214V210.2C106.186 209.827 106.106 209.567 105.946 209.42C105.786 209.273 105.566 209.2 105.286 209.2H103.316V208.38H105.556C105.89 208.38 106.183 208.443 106.436 208.57C106.69 208.69 106.89 208.887 107.036 209.16C107.183 209.433 107.256 209.797 107.256 210.25V213.26V214H106.186ZM102.906 214V213.18H106.876L106.826 214H102.906ZM102.656 214V209.06V208.38H103.726V209.11V214H102.656ZM108.356 211.9V211.07V209.55L108.236 208.38H109.296L109.426 209.55V211.07L109.416 211.7L108.356 211.9ZM110.509 214V213.18H112.309C112.529 213.18 112.729 213.15 112.909 213.09C113.095 213.023 113.255 212.923 113.389 212.79C113.522 212.657 113.625 212.487 113.699 212.28C113.772 212.067 113.809 211.813 113.809 211.52V210.85C113.809 210.503 113.762 210.207 113.669 209.96C113.582 209.713 113.442 209.527 113.249 209.4C113.062 209.267 112.822 209.2 112.529 209.2H111.629L111.399 210.19C111.332 210.517 111.345 210.767 111.439 210.94C111.532 211.107 111.745 211.223 112.079 211.29L111.889 211.99C111.455 211.957 111.122 211.86 110.889 211.7C110.662 211.533 110.515 211.317 110.449 211.05C110.389 210.777 110.392 210.463 110.459 210.11L110.849 208.38H112.749C113.195 208.38 113.575 208.48 113.889 208.68C114.209 208.88 114.452 209.167 114.619 209.54C114.792 209.913 114.879 210.363 114.879 210.89V211.47C114.879 211.903 114.819 212.28 114.699 212.6C114.585 212.92 114.422 213.183 114.209 213.39C113.995 213.597 113.745 213.75 113.459 213.85C113.179 213.95 112.872 214 112.539 214H110.509ZM115.427 214.15L115.327 213.41C115.594 213.383 115.797 213.33 115.937 213.25C116.077 213.163 116.174 213.043 116.227 212.89C116.28 212.73 116.307 212.533 116.307 212.3V208.38H119.007C119.34 208.38 119.634 208.443 119.887 208.57C120.14 208.69 120.34 208.887 120.487 209.16C120.634 209.433 120.707 209.797 120.707 210.25V214H119.637V210.2C119.637 209.827 119.557 209.567 119.397 209.42C119.237 209.273 119.017 209.2 118.737 209.2H117.367V212.17C117.367 212.617 117.297 212.98 117.157 213.26C117.024 213.533 116.814 213.74 116.527 213.88C116.247 214.02 115.88 214.11 115.427 214.15ZM121.809 214V209.55L121.689 208.38H122.749L122.879 209.55V214H121.809ZM124.481 214.1L123.751 208.38H124.771L125.351 213.2C125.858 213.167 126.295 213.073 126.661 212.92C127.035 212.767 127.341 212.557 127.581 212.29C127.821 212.023 127.998 211.697 128.111 211.31C128.225 210.917 128.281 210.47 128.281 209.97L128.261 208.38H129.331L129.341 209.92C129.348 210.853 129.175 211.63 128.821 212.25C128.475 212.87 127.941 213.337 127.221 213.65C126.501 213.957 125.588 214.107 124.481 214.1ZM125.011 211.89L124.761 211.19C125.095 211.063 125.355 210.917 125.541 210.75C125.728 210.577 125.858 210.353 125.931 210.08C126.011 209.8 126.055 209.447 126.061 209.02V208.4H127.071V209C127.065 209.487 126.995 209.913 126.861 210.28C126.735 210.647 126.521 210.96 126.221 211.22C125.928 211.48 125.525 211.703 125.011 211.89ZM132.135 214.02L132.235 213.2C132.762 213.313 133.182 213.303 133.495 213.17C133.808 213.037 134.032 212.793 134.165 212.44C134.305 212.08 134.368 211.62 134.355 211.06C134.348 210.587 134.288 210.213 134.175 209.94C134.068 209.66 133.918 209.46 133.725 209.34C133.538 209.22 133.315 209.16 133.055 209.16C132.822 209.16 132.622 209.21 132.455 209.31C132.288 209.403 132.155 209.533 132.055 209.7C131.955 209.867 131.885 210.053 131.845 210.26L131.575 209.76C131.702 209.253 131.918 208.887 132.225 208.66C132.538 208.427 132.882 208.31 133.255 208.31C133.568 208.31 133.852 208.363 134.105 208.47C134.365 208.57 134.588 208.73 134.775 208.95C134.962 209.17 135.105 209.457 135.205 209.81C135.312 210.157 135.368 210.573 135.375 211.06C135.388 211.813 135.268 212.437 135.015 212.93C134.762 213.423 134.392 213.767 133.905 213.96C133.418 214.153 132.828 214.173 132.135 214.02ZM130.135 214L130.855 210.13L130.075 208.38H131.175L131.865 210.17L131.205 214H130.135ZM141.608 214V210.2C141.608 209.827 141.528 209.567 141.368 209.42C141.208 209.273 140.988 209.2 140.708 209.2H138.738V208.38H140.978C141.311 208.38 141.604 208.443 141.858 208.57C142.111 208.69 142.311 208.887 142.458 209.16C142.604 209.433 142.678 209.797 142.678 210.25V213.26V214H141.608ZM138.328 214V213.18H142.298L142.248 214H138.328ZM138.078 214V209.06V208.38H139.148V209.11V214H138.078ZM143.777 211.9V211.07V209.55L143.657 208.38H144.717L144.847 209.55V211.07L144.837 211.7L143.777 211.9ZM148.14 214V210.37C148.14 210.11 148.163 209.883 148.21 209.69C148.263 209.49 148.333 209.327 148.42 209.2H145.72V208.38H150.18V209.2H149.42C149.333 209.367 149.273 209.56 149.24 209.78C149.213 209.993 149.2 210.19 149.2 210.37V214H148.14ZM151.971 214L153.841 209.2H150.831V208.38H154.911V209.27L153.041 214H151.971ZM150.831 209.2V206.83H151.791V209.2H150.831ZM155.814 211.9V211.07V209.55L155.694 208.38H156.754L156.884 209.55V211.07L156.874 211.7L155.814 211.9ZM159.229 215.3V214.67H163.989V215.3H159.229ZM164.029 215.3V214.67H168.789V215.3H164.029ZM168.829 215.3V214.67H173.589V215.3H168.829ZM173.629 215.3V214.67H178.389V215.3H173.629ZM178.429 215.3V214.67H183.189V215.3H178.429ZM183.229 215.3V214.67H187.989V215.3H183.229ZM188.029 215.3V214.67H192.789V215.3H188.029ZM192.829 215.3V214.67H197.589V215.3H192.829ZM197.629 215.3V214.67H202.389V215.3H197.629ZM202.429 215.3V214.67H207.189V215.3H202.429ZM207.229 215.3V214.67H211.989V215.3H207.229ZM217.891 214V210.2C217.891 209.827 217.811 209.567 217.651 209.42C217.491 209.273 217.271 209.2 216.991 209.2H215.021V208.38H217.261C217.594 208.38 217.887 208.443 218.141 208.57C218.394 208.69 218.594 208.887 218.741 209.16C218.887 209.433 218.961 209.797 218.961 210.25V213.26V214H217.891ZM214.611 214V213.18H218.581L218.531 214H214.611ZM214.361 214V209.06V208.38H215.431V209.11V214H214.361ZM223.3 214V210.2C223.3 209.827 223.217 209.567 223.05 209.42C222.89 209.273 222.67 209.2 222.39 209.2H219.94V208.38H222.66C222.994 208.38 223.287 208.443 223.54 208.57C223.8 208.69 224 208.887 224.14 209.16C224.287 209.433 224.36 209.797 224.36 210.25V214H223.3ZM219.91 214V211.29L220.06 210.62H220.97V211.29V214H219.91ZM226.256 214L228.126 209.2H225.116V208.38H229.196V209.27L227.326 214H226.256ZM225.116 209.2V206.83H226.076V209.2H225.116ZM231.902 214V209.55L231.782 208.38H232.842L232.972 209.55V214H231.902ZM236.264 214V210.37C236.264 210.11 236.288 209.883 236.334 209.69C236.388 209.49 236.458 209.327 236.544 209.2H233.844V208.38H238.304V209.2H237.544C237.458 209.367 237.398 209.56 237.364 209.78C237.338 209.993 237.324 210.19 237.324 210.37V214H236.264ZM240.095 214L241.965 209.2H238.955V208.38H243.035V209.27L241.165 214H240.095ZM238.955 209.2V206.83H239.915V209.2H238.955ZM243.938 214V209.55L243.818 208.38H244.878L245.008 209.55V214H243.938ZM245.871 214V213.18H247.491V210.05C247.491 209.743 247.431 209.527 247.311 209.4C247.191 209.273 247.024 209.197 246.811 209.17L246.131 209.07L246.271 208.27L247.301 208.41C247.708 208.47 248.018 208.64 248.231 208.92C248.444 209.193 248.551 209.56 248.551 210.02V214H245.871ZM254.943 214V210.2C254.943 209.827 254.863 209.567 254.703 209.42C254.543 209.273 254.323 209.2 254.043 209.2H252.073V208.38H254.313C254.647 208.38 254.94 208.443 255.193 208.57C255.447 208.69 255.647 208.887 255.793 209.16C255.94 209.433 256.013 209.797 256.013 210.25V213.26V214H254.943ZM251.663 214V213.18H255.633L255.583 214H251.663ZM251.413 214V209.06V208.38H252.483V209.11V214H251.413ZM260.353 214V210.2C260.353 209.827 260.27 209.567 260.103 209.42C259.943 209.273 259.723 209.2 259.443 209.2H256.993V208.38H259.713C260.046 208.38 260.34 208.443 260.593 208.57C260.853 208.69 261.053 208.887 261.193 209.16C261.34 209.433 261.413 209.797 261.413 210.25V214H260.353ZM256.963 214V211.29L257.113 210.62H258.023V211.29V214H256.963ZM262.489 211.9V211.07V209.55L262.369 208.38H263.429L263.559 209.55V211.07L263.549 211.7L262.489 211.9ZM264.682 211.9V211.07V209.55L264.562 208.38H265.622L265.752 209.55V211.07L265.742 211.7L264.682 211.9ZM270.274 214V210.3C270.274 209.567 269.971 209.2 269.364 209.2H266.764V208.38H269.634C269.981 208.38 270.281 208.45 270.534 208.59C270.794 208.73 270.991 208.947 271.124 209.24C271.264 209.527 271.334 209.897 271.334 210.35V214H270.274ZM266.764 214V208.81H267.834V214H266.764ZM276.928 216V210.2C276.928 209.827 276.844 209.567 276.678 209.42C276.518 209.273 276.301 209.2 276.028 209.2H274.028V208.38H276.288C276.621 208.38 276.914 208.443 277.168 208.57C277.428 208.69 277.628 208.887 277.768 209.16C277.914 209.433 277.988 209.797 277.988 210.25V216H276.928ZM279.936 214L281.806 209.2H278.796V208.38H282.876V209.27L281.006 214H279.936ZM278.796 209.2V206.83H279.756V209.2H278.796ZM287.019 214V210.2C287.019 209.827 286.936 209.567 286.769 209.42C286.609 209.273 286.389 209.2 286.109 209.2H283.659V208.38H286.379C286.713 208.38 287.006 208.443 287.259 208.57C287.519 208.69 287.719 208.887 287.859 209.16C288.006 209.433 288.079 209.797 288.079 210.25V214H287.019ZM283.629 214V211.29L283.779 210.62H284.689V211.29V214H283.629ZM290.976 214.02L291.076 213.2C291.602 213.313 292.022 213.303 292.336 213.17C292.649 213.037 292.872 212.793 293.006 212.44C293.146 212.08 293.209 211.62 293.196 211.06C293.189 210.587 293.129 210.213 293.016 209.94C292.909 209.66 292.759 209.46 292.566 209.34C292.379 209.22 292.156 209.16 291.896 209.16C291.662 209.16 291.462 209.21 291.296 209.31C291.129 209.403 290.996 209.533 290.896 209.7C290.796 209.867 290.726 210.053 290.686 210.26L290.416 209.76C290.542 209.253 290.759 208.887 291.066 208.66C291.379 208.427 291.722 208.31 292.096 208.31C292.409 208.31 292.692 208.363 292.946 208.47C293.206 208.57 293.429 208.73 293.616 208.95C293.802 209.17 293.946 209.457 294.046 209.81C294.152 210.157 294.209 210.573 294.216 211.06C294.229 211.813 294.109 212.437 293.856 212.93C293.602 213.423 293.232 213.767 292.746 213.96C292.259 214.153 291.669 214.173 290.976 214.02ZM288.976 214L289.696 210.13L288.916 208.38H290.016L290.706 210.17L290.046 214H288.976ZM297.696 214V210.2C297.696 209.827 297.613 209.567 297.446 209.42C297.286 209.273 297.066 209.2 296.786 209.2H294.916V208.38H297.056C297.39 208.38 297.683 208.443 297.936 208.57C298.196 208.69 298.396 208.887 298.536 209.16C298.683 209.433 298.756 209.797 298.756 210.25V214H297.696ZM294.916 214V213.18H299.446V214H294.916ZM300.299 214V209.55L300.179 208.38H301.239L301.369 209.55V214H300.299ZM307.7 209.944C307.476 209.944 307.284 209.864 307.124 209.704C306.964 209.544 306.884 209.34 306.884 209.092C306.884 208.836 306.964 208.628 307.124 208.468C307.284 208.308 307.476 208.228 307.7 208.228C307.932 208.228 308.124 208.308 308.276 208.468C308.436 208.628 308.516 208.836 308.516 209.092C308.516 209.34 308.436 209.544 308.276 209.704C308.124 209.864 307.932 209.944 307.7 209.944ZM307.7 214.144C307.476 214.144 307.284 214.064 307.124 213.904C306.964 213.744 306.884 213.54 306.884 213.292C306.884 213.036 306.964 212.828 307.124 212.668C307.284 212.508 307.476 212.428 307.7 212.428C307.932 212.428 308.124 212.508 308.276 212.668C308.436 212.828 308.516 213.036 308.516 213.292C308.516 213.54 308.436 213.744 308.276 213.904C308.124 214.064 307.932 214.144 307.7 214.144ZM310.864 214L313.108 208.24H309.496V207.256H314.392V208.324L312.148 214H310.864ZM309.496 208.24V205.396H310.648V208.24H309.496ZM315.476 211.48V210.484V208.66L315.332 207.256H316.604L316.76 208.66V210.484L316.748 211.24L315.476 211.48ZM323.903 214H322.535L320.003 210.172L318.815 214H317.603L318.923 209.872L319.259 209.032L318.155 207.256H319.451L320.471 208.888L321.479 210.4L321.779 209.356L322.391 207.256H323.615L322.223 211.504L323.903 214ZM324.886 214V208.66L324.742 207.256H326.014L326.17 208.66V214H324.886ZM331.406 214V209.44C331.406 208.992 331.306 208.68 331.106 208.504C330.914 208.328 330.65 208.24 330.314 208.24H327.374V207.256H330.638C331.038 207.256 331.39 207.332 331.694 207.484C332.006 207.628 332.246 207.864 332.414 208.192C332.59 208.52 332.678 208.956 332.678 209.5V214H331.406ZM327.338 214V210.748L327.518 209.944H328.61V210.748V214H327.338ZM333.969 214V208.66L333.825 207.256H335.097L335.253 208.66V214H333.969Z" fill="#9EACAE"/>
</svg>
