<svg width="100" height="100" viewBox="0 0 100 100" fill="none" xmlns="http://www.w3.org/2000/svg">
<rect width="100" height="100" rx="20" fill="#EEF2F3"/>
<path d="M54 15C58.7399 15.3682 62.9881 16.4725 66.7441 18.3164C71.4374 20.6204 75.1067 24.3323 77.752 29.4521C80.3974 34.5721 81.7197 41.3567 81.7197 49.8047C81.7197 58.2525 80.3973 65.0363 77.752 70.1562C75.1067 75.1909 71.4374 78.8601 66.7441 81.1641C62.9881 83.0079 58.7398 84.1113 54 84.4795V81.0137C55.8974 79.8373 57.5427 77.6694 58.9355 74.5088C61.2395 69.4742 62.3916 61.2392 62.3916 49.8047C62.3916 38.37 61.2395 30.1353 58.9355 25.1006C57.5425 21.8858 55.8977 19.6797 54 18.4834V15ZM46 19.0479C44.4332 20.3198 43.0278 22.3371 41.7842 25.1006C39.4802 30.1353 38.3281 38.3701 38.3281 49.8047C38.3281 61.2392 39.4802 69.4742 41.7842 74.5088C43.0276 77.2258 44.4335 79.2083 46 80.459V84.4092C41.6712 83.9815 37.7053 82.9006 34.1035 81.1641C29.4104 78.86 25.6984 75.1908 22.9678 70.1562C20.3225 65.0363 19 58.2524 19 49.8047C19 41.3567 20.3224 34.5721 22.9678 29.4521C25.6984 24.3323 29.4104 20.6204 34.1035 18.3164C37.7053 16.5798 41.6711 15.498 46 15.0703V19.0479Z" fill="url(#paint0_linear_432_122)"/>
<defs>
<linearGradient id="paint0_linear_432_122" x1="14.264" y1="29.8283" x2="77.264" y2="29.8283" gradientUnits="userSpaceOnUse">
<stop offset="0.508418" stop-color="#0C1719"/>
<stop offset="0.576053" stop-color="#0C1719"/>
<stop offset="0.577086" stop-color="#009FB7"/>
<stop offset="0.641623" stop-color="#009FB7"/>
</linearGradient>
</defs>
</svg>
