<svg width="154" height="24" viewBox="0 0 154 24" fill="none" xmlns="http://www.w3.org/2000/svg">
<path fill-rule="evenodd" clip-rule="evenodd" d="M7.049 22.639V2.714H0V0.0549994H16.637V2.714H9.933V22.639H7.049ZM19.152 22.651H21.92V14.33C21.92 13.36 21.92 11.89 22.386 11.014C22.764 10.263 23.438 8.918 25.561 8.918C28.707 8.918 28.971 11.953 28.971 13.36V22.651H31.767V12.829C31.767 10.546 31.353 9.699 31.062 9.073C30.217 7.166 28.014 6.267 25.577 6.367C24.309 6.42 22.884 6.739 21.921 8.033V0.0669994H19.153L19.152 22.651ZM37.082 15.297C37.024 18.55 38.152 20.959 41.276 20.959C42.441 20.959 44.482 19.958 44.715 17.704H47.453C47.365 18.488 47.249 19.769 46.2 20.989C45.56 21.772 44.102 23.085 41.16 23.085C36.977 23.085 34.372 20.02 34.372 15.046C34.372 11.95 34.954 9.385 37.256 7.664C38.654 6.601 40.402 6.506 41.247 6.506C47.219 6.506 47.656 12.732 47.598 15.297H37.082ZM44.802 13.232C44.832 11.73 44.271 8.602 41.19 8.602C39.414 8.602 37.257 9.76 37.199 13.232H44.802ZM50.233 22.616H55.273V4.466L59.871 22.617H65.114L69.898 4.622V22.617H75.404L75.375 0L66.33 0.0679998L62.844 14.793L58.649 0.0679998L50.234 0.0319996L50.233 22.616ZM87.802 12.482C81.509 12.2 77.809 13.764 77.809 18.05C77.809 20.834 79.383 22.93 82.966 22.93C85.967 22.93 87.773 20.364 87.773 20.364V22.616H92.901V12.294C92.901 10.604 92.551 9.135 91.619 8.165C90.076 6.539 87.278 6.351 85.968 6.351C83.317 6.351 81.045 7.071 79.908 8.322C78.997 9.326 78.836 10.413 78.791 11.168L83.657 11.165C83.691 9.833 84.791 9.121 85.721 9.121C87.275 9.12 87.958 10.504 87.802 12.482ZM83.2 17.517C83.2 18.675 83.898 19.644 85.209 19.644C85.792 19.644 86.812 19.393 87.365 18.143C87.802 17.142 87.802 15.859 87.773 15.202C85.442 15.235 83.2 15.266 83.2 17.517ZM95.97 22.616H101.418V15.953C101.418 14.264 101.886 11.602 105.235 11.602C105.614 11.602 105.759 11.54 106.401 11.602V7.122C105.148 7.091 102.41 6.796 101.156 8.832V6.912H95.97V22.616ZM125.053 22.616L119.689 13.544L124.327 6.913H118.821L113.855 13.963L119.025 22.615H125.053V22.616ZM108.451 0.0319996V22.616H113.812V0.0319996H108.451ZM142.749 22.616H148.197V15.953C148.197 14.264 148.665 11.602 152.015 11.602C152.394 11.602 152.539 11.54 153.18 11.602V7.122C151.927 7.091 149.189 6.796 147.935 8.832V6.912H142.749V22.616ZM130.083 17.79C129.891 17.18 129.941 16.531 129.941 15.954H140.439C140.439 13.201 140.263 11.7 139.621 10.355C138.632 8.134 136.541 6.351 132.658 6.351C127.476 6.351 124.88 9.761 124.88 15.016C124.88 20.208 128.197 23.334 132.658 23.334C136.253 23.334 139.728 21.46 140.411 17.632H135.195C134.851 19.179 133.621 19.831 132.658 19.831C131.264 19.831 130.429 18.887 130.083 17.79ZM135.28 12.763C135.28 11.644 134.588 9.791 132.657 9.791C130.396 9.791 129.941 12.072 130.007 12.763H135.28Z" fill="#0C1719" fill-opacity="0.5"/>
</svg>
