<svg width="112" height="19" viewBox="0 0 112 19" fill="none" xmlns="http://www.w3.org/2000/svg">
<path d="M111.683 15.3018V6.73648C111.683 4.75374 109.95 3.14876 107.744 3.14876H96.7172V7.42923H106.957V14.6091H96.7172V18.8914H107.744C109.95 18.8913 111.683 17.2844 111.683 15.3018ZM94.6695 9.9488V3.14734H83.6426V0H78.9169V7.43001H89.9434V9.6025L85.3113 12.4994C84.6493 12.9086 83.6426 13.2237 83.6426 15.4902V18.8919H88.3687V15.8678L92.5271 13.2549C93.6609 12.5621 94.6695 12.247 94.6695 9.9488ZM77.2781 15.3018V6.73648C77.2781 4.75374 75.5446 3.14876 73.3392 3.14876H62.3127V7.42923H72.5519V14.6091H62.3127V18.8914H73.3392C75.5446 18.8913 77.2781 17.2844 77.2781 15.3018ZM60.2646 9.9488V3.14734H49.2381V0H44.512V7.43001H55.539V9.6025L50.9069 12.4994C50.2446 12.9086 49.2381 13.2237 49.2381 15.4902V18.8919H53.9638V15.8678L58.122 13.2549C59.2561 12.5621 60.2646 12.247 60.2646 9.9488ZM42.5582 12.5938V3.14797H35.4701V7.20927H37.8321V12.5938H42.5582ZM17.9213 15.2993V3.14577H29.7366C31.9421 3.14577 33.6742 4.75154 33.6742 6.73475V15.2995C33.6742 17.2831 31.9421 18.8888 29.7366 18.8888H21.86C19.6544 18.8888 17.9213 17.2832 17.9213 15.2993ZM22.6474 14.6069H28.9492V7.42781H22.6474V14.6069ZM15.7528 18.8913V6.73821C15.7528 4.75374 14.0195 3.14876 11.8139 3.14876H7.87544V7.43112H11.0265V14.6086H4.72577V3.14876H0V15.3015C0 17.2863 1.73148 18.8913 3.93843 18.8913H15.7528Z" fill="#0C1719" fill-opacity="0.5"/>
</svg>
