<svg width="113" height="24" viewBox="0 0 113 24" fill="none" xmlns="http://www.w3.org/2000/svg">
<path d="M17.2428 0H27.8447V5.0097H25.9806V23.5339H17.5923L8.73788 9.90289V18.6407H10.602V23.6504H0V18.6407H1.86409V5.0097H0V0H11.1845L19.1068 12.1165V4.89319H17.2428V0Z" fill="#0C1719" fill-opacity="0.5"/>
<path d="M38.6799 6.29126C40.1956 6.29126 41.476 6.52427 42.5257 6.99029C43.5731 7.45631 44.3898 8.03883 44.9723 8.73786C45.5548 9.43688 46.0208 10.2524 46.2538 11.1845C46.4869 12.1165 46.6045 13.0485 46.6045 13.9806V16.1942H36.8181V16.4272C36.8181 17.1262 37.0511 17.7087 37.4006 18.0582C37.8666 18.4077 38.5657 18.6407 39.6142 18.6407C40.8958 18.6407 42.1762 18.5231 43.2259 18.2901C44.3909 18.0582 45.2065 17.8252 46.022 17.591V22.4842C45.6713 22.7172 45.2065 22.8337 44.7393 23.0668C44.2744 23.1833 43.6919 23.4163 43.1094 23.5316C42.5268 23.6493 41.8266 23.7646 41.0111 23.8823C40.1944 24 39.3789 24 38.4468 24C37.0488 24 35.7661 23.767 34.7187 23.4174C33.6701 23.0679 32.6216 22.4854 31.806 21.7864C30.9905 21.0873 30.408 20.1565 29.9408 18.9914C29.4759 17.9429 29.3583 16.5437 29.3583 15.1468C29.3583 13.631 29.5913 12.3507 29.9408 11.3021C30.4068 10.1371 30.9893 9.32154 31.806 8.50601C32.6216 7.80698 33.5536 7.22446 34.7187 6.87495C36.0002 6.52427 37.2818 6.29126 38.6799 6.29126ZM38.6799 11.6505C38.0973 11.6505 37.6325 11.767 37.3983 12.1165C37.0488 12.466 36.9323 12.932 36.9323 13.6311V13.8641H40.4274V13.6311C40.4274 12.932 40.3109 12.466 39.9626 12.1165C39.6119 11.8835 39.2624 11.6505 38.6799 11.6505Z" fill="#0C1719" fill-opacity="0.5"/>
<path d="M57.7865 6.75732V11.767H56.3884L57.437 17.9418H57.7865L60.1166 6.75732H65.9418L68.3884 17.9418H68.7391L69.7865 11.767H68.3884V6.75732H77.3593V11.767H76.0778L73.1651 23.6505H64.1943L63.1457 18.5243H62.7962L61.7488 23.6505H52.7779L49.7476 11.767H48.4661V6.75732H57.7865Z" fill="#0C1719" fill-opacity="0.5"/>
<path d="M79.6894 18.8739C81.204 19.1069 82.4855 19.2245 83.4176 19.3399C84.3496 19.4552 85.1651 19.4564 85.7477 19.4564C86.6797 19.4564 87.2622 19.3399 87.4952 19.2245C87.7282 19.1069 87.9612 18.8739 87.9612 18.642C87.9612 18.409 87.8436 18.176 87.4952 18.0595C87.1457 17.9418 86.5632 17.8265 85.6311 17.5935C83.5329 17.3605 81.903 16.6614 80.7379 15.7294C79.5729 14.7962 78.9904 13.5158 78.9904 11.7682C78.9904 10.9527 79.1069 10.2537 79.4552 9.55466C79.6882 8.85563 80.1554 8.27311 80.8533 7.80709C81.4358 7.34107 82.2513 6.87505 83.301 6.64204C84.2331 6.40903 85.3981 6.17603 86.7962 6.17603C88.3108 6.17603 89.5912 6.29253 90.8739 6.40903C92.0389 6.52554 93.0863 6.75855 93.903 7.10806V11.1846C92.971 11.0681 91.9224 10.9516 90.9904 10.835C90.0583 10.7185 89.0098 10.7185 88.1943 10.7185C87.3799 10.7185 86.7974 10.835 86.4467 10.9515C86.0972 11.0681 85.8642 11.3011 85.8642 11.5341C85.8642 11.6506 85.8641 11.7671 85.9818 11.8836C86.0983 12.0001 86.2148 12.0001 86.3314 12.1166C86.4479 12.2331 86.7974 12.2331 87.0304 12.3496C87.3811 12.3496 87.7306 12.4661 88.1954 12.4661C90.5255 12.6991 92.2731 13.2816 93.3217 14.2137C94.4867 15.1469 94.9527 16.4273 94.9527 18.1748C94.9527 19.9224 94.3702 21.437 93.0875 22.369C91.8059 23.4175 89.9418 23.8847 87.2622 23.8847C85.7476 23.8847 84.3496 23.7671 83.068 23.6517C81.7853 23.534 80.7379 23.3022 79.9224 22.9515V18.8739H79.6894Z" fill="#0C1719" fill-opacity="0.5"/>
<path d="M97.6311 1.51456L104.388 0H110.214V18.5242H112.777V23.5339H98.5631V18.5242H101.476V5.0097H97.6311V1.51456Z" fill="#0C1719" fill-opacity="0.5"/>
</svg>
