<svg width="74" height="32" viewBox="0 0 74 32" fill="none" xmlns="http://www.w3.org/2000/svg">
<g clip-path="url(#clip0_85_716)">
<path d="M47.5497 23.4213V10.1578C47.5497 7.25041 45.7009 5.31092 42.8151 5.31092C40.8139 5.31092 39.1952 6.08743 37.5812 7.9864L37.1978 6.24194C37.0809 5.77464 36.8097 5.54278 36.2729 5.54278H35.119C34.6552 5.54278 34.2316 5.85189 34.2316 6.35603V23.4213C34.2316 23.885 34.6552 24.2715 35.119 24.2715H36.8873C37.3511 24.2715 37.7346 23.885 37.7346 23.4213V12.9106C37.7346 10.3124 39.5421 8.33603 41.851 8.33603C43.4332 8.33603 44.0467 9.11255 44.0467 10.9343V23.4213C44.0467 23.885 44.4703 24.2715 44.9304 24.2715H46.7025C47.1663 24.2715 47.5497 23.885 47.5497 23.4213Z" fill="#0C1719" fill-opacity="0.5"/>
<path d="M63.9182 14.9274C63.9182 7.83185 60.8388 5.31096 56.9524 5.31096C52.6779 5.31096 49.8688 8.99482 49.8688 14.8096C49.8688 21.1727 52.835 24.4666 58.0699 24.4666C60.3386 24.4666 61.6496 24.1169 62.84 23.5759C63.301 23.3809 63.4946 22.9945 63.3412 22.5271L62.9167 21.2868C62.7633 20.8599 62.4566 20.5507 61.8796 20.7459C60.7621 21.0918 59.7242 21.4046 58.2598 21.4046C54.8736 21.4046 53.6794 19.3878 53.5251 15.7811H63.071C63.5348 15.7811 63.9182 15.3948 63.9182 14.9274ZM60.3385 13.1462H53.5251C53.9095 9.11259 55.6806 8.14105 57.0655 8.14105C59.4539 8.14105 60.2618 10.662 60.3385 13.1462Z" fill="#0C1719" fill-opacity="0.5"/>
<path d="M73.9784 23.1491L73.7849 21.9456C73.7082 21.4819 73.3238 21.25 72.9002 21.3273C72.5533 21.4046 72.0165 21.4819 71.7061 21.4819C70.8224 21.4819 70.3978 21.0145 70.3978 19.9693V8.29557H72.5935C73.0536 8.29557 73.4005 7.9092 73.4005 7.4418V6.39659C73.4005 5.93287 73.0536 5.54282 72.5935 5.54282H70.3978V0.659145C70.3978 -0.0401096 69.8975 -0.0806236 69.3205 0.0739822L67.5896 0.581797C67.1651 0.695889 66.935 1.08235 66.935 1.58649V5.54282H64.8572C64.3569 5.54282 64.0492 5.93287 64.0492 6.39659V7.4418C64.0492 7.9092 64.3569 8.29557 64.8572 8.29557H66.935V20.5507C66.935 23.1491 68.2068 24.4666 70.9392 24.4666C71.8632 24.4666 72.7871 24.3525 73.4005 24.1574C73.942 24.0028 74.0551 23.6127 73.9784 23.1491Z" fill="#0C1719" fill-opacity="0.5"/>
<path d="M0 16.2744C0 7.65518 6.93684 0.670156 15.4924 0.670156C24.047 0.670156 30.98 7.65518 30.98 16.2744C30.98 24.8934 24.047 31.8785 15.4924 31.8785C6.93684 31.8785 0 24.8934 0 16.2744Z" fill="#0C1719" fill-opacity="0.5"/>
<mask id="mask0_85_716" style="mask-type:luminance" maskUnits="userSpaceOnUse" x="0" y="0" width="31" height="32">
<path d="M0 16.2744C0 24.8934 6.9331 31.8785 15.4924 31.8785C24.0432 31.8785 30.9763 24.8934 30.9763 16.2744C30.9763 7.65518 24.0432 0.670156 15.4924 0.670156C6.9331 0.670156 0 7.65518 0 16.2744Z" fill="white"/>
</mask>
<g mask="url(#mask0_85_716)">
<mask id="mask1_85_716" style="mask-type:luminance" maskUnits="userSpaceOnUse" x="-568" y="-1416" width="982" height="1497">
<path d="M-567.385 80.8772H413.57V-1415.24H-567.385V80.8772Z" fill="white"/>
</mask>
<g mask="url(#mask1_85_716)">
<path d="M22.042 7.52637C22.1692 7.02223 21.8877 6.70567 21.4791 6.70567H19.6013C19.1964 6.70567 18.8523 6.92651 18.7578 7.36819L16.4415 16.8852C16.2226 17.7685 16.0693 18.5561 15.9412 19.1228C15.9122 18.4604 15.8168 17.831 15.6597 17.2018L13.0339 7.40126C12.9095 6.95968 12.5953 6.70567 12.1567 6.70567H10.0928C9.68793 6.70567 9.37377 7.02223 9.53087 7.4933L13.5342 20.1312C13.6913 20.6059 13.9101 20.7937 14.3777 20.7937H15.4409C15.3792 21.1101 15.0678 22.4939 14.9116 22.6853C14.5347 24.0101 13.8774 24.9229 12.7851 25.4896L12.3465 25.7104C11.9996 25.8981 11.7808 26.3398 11.9706 26.6857L12.628 27.9775C12.8141 28.3565 13.22 28.4853 13.5669 28.3271L14.2533 28.0106C15.9122 27.2524 17.1325 25.8025 17.7563 23.4728" fill="#E9F0F2"/>
</g>
</g>
<path d="M64.9189 27.0612C65.2771 27.1973 65.8101 27.0869 66.0036 27.466C65.8362 28.3971 65.9195 29.3908 66.2777 30.204C66.2374 30.826 65.9017 31.2639 65.639 31.8602H62.4352C62.6288 31.2346 62.6578 30.9695 62.8261 30.561L62.9317 30.447L63.1618 30.3881C63.4909 30.366 63.4648 30.4359 63.6331 30.366C63.6948 29.803 63.3881 28.5553 63.3881 28.5553L62.6035 28.5516C62.6035 27.8672 62.4932 27.2378 62.077 26.7336C62.5006 26.649 62.8336 27.2158 63.3189 27.1789C63.5414 27.1973 63.8856 27.1053 63.9183 27.4255C63.8267 28.5075 64.0352 29.4754 64.3597 30.3807C64.7693 30.447 65.0106 30.3329 65.6053 30.3881C65.4632 29.836 65.3715 28.5222 65.3575 28.5553C65.3575 28.5553 64.7693 28.5738 64.4766 28.5516C64.6196 27.9187 64.4364 27.2231 64.1596 26.66C64.47 26.66 64.6702 26.9287 64.9189 27.0612Z" fill="#0C1719" fill-opacity="0.5"/>
<path d="M69.2804 27.2158C69.6535 27.293 71.4471 27.2562 71.4471 27.2562L71.6107 28.4891H71.2348C71.3265 29.0412 71.4499 29.7183 71.6837 30.204C71.3807 30.7009 71.1731 31.2824 71.0412 31.8602H70.7383L70.7345 28.5075L68.4771 28.5039C68.4444 27.8561 68.291 27.1716 67.9216 26.6526C68.1994 26.4503 68.334 26.8772 68.608 26.9913C68.8643 27.098 69.0101 27.1606 69.2804 27.2158Z" fill="#0C1719" fill-opacity="0.5"/>
<path d="M53.8067 27.3445L53.8834 27.4623C53.8581 28.3382 54.0667 29.1184 53.1241 29.5711L54.2491 31.1977L53.3027 32C52.6378 31.0984 51.0817 29.3944 51.0817 29.3944L50.9031 30.4653L51.7653 30.4837L51.8597 31.8602L50.3626 31.8527L50.2784 31.7755C50.6029 30.5573 50.53 29.3686 50.3626 28.11L50.8367 26.9433H50.9648L52.8828 29.3833C53.0474 29.4937 53.1895 29.2141 53.2812 29.0963C53.3504 28.9307 53.3578 28.7467 53.1643 28.673L52.4807 28.6289C52.4554 28.0179 52.2797 27.4623 51.8383 27.0169L51.8822 26.8992C52.3713 27.4107 53.1418 27.2525 53.8067 27.3445Z" fill="#0C1719" fill-opacity="0.5"/>
<path d="M40.7148 27.271C41.0729 27.1127 40.985 27.466 40.971 27.6757C41 28.2057 41.3507 30.2115 41.3909 30.5537C41.4021 30.6678 40.8354 31.8491 40.8354 31.8491H39.2719C39.2719 31.8491 39.6889 31.0284 39.8311 30.5905H40.5474V28.5995C39.4954 28.7356 39.8788 27.9591 39.6702 27.5469C39.6123 27.2452 39.3121 26.9876 39.3121 26.7005C39.8461 26.7152 40.1051 27.4218 40.7148 27.271Z" fill="#0C1719" fill-opacity="0.5"/>
<path d="M60.8389 27.0943C61.1204 27.4328 61.7553 27.0943 61.9124 27.5433C61.8544 28.559 61.9816 29.5011 62.2818 30.366C62.0293 30.8371 61.8142 31.1058 61.6384 31.8602H61.3794L61.3831 28.5921C61.3831 28.5921 61.0062 28.5811 60.6378 28.5921C60.7435 27.6537 60.3021 27.0023 60.1113 26.6932C60.4882 26.6011 60.5761 26.9949 60.8389 27.0943Z" fill="#0C1719" fill-opacity="0.5"/>
<path d="M47.2392 28.5701C47.2795 29.2178 47.4253 29.7918 47.6264 30.3733C47.3739 30.8444 47.1588 31.1021 46.983 31.8564H46.7829C46.5089 30.1415 47.0859 28.2241 46.118 26.8036C46.7025 26.5607 46.7427 27.3997 47.2795 27.282H49.5144L49.6715 27.3482L49.7819 27.5212C49.723 28.5369 49.851 29.4974 50.1503 30.366C49.8987 30.8334 49.679 31.0469 49.5079 31.8528H49.1899L49.1937 28.5774H47.3197" fill="#0C1719" fill-opacity="0.5"/>
<path d="M66.8078 27.0943C67.0921 27.4328 67.7242 27.0943 67.8851 27.5432C67.8851 27.5432 67.9804 28.3639 68.3049 28.9749C68.0272 29.3319 67.7467 29.5122 67.5746 30.2666H67.3558L67.352 28.5921C67.352 28.5921 66.9574 28.6105 66.6067 28.5921C66.7124 27.6537 66.2738 27.0023 66.084 26.6932C66.4571 26.6011 66.632 26.9949 66.8078 27.0943Z" fill="#0C1719" fill-opacity="0.5"/>
<path d="M72.3999 27.0943C72.6851 27.4328 73.3172 27.0943 73.4771 27.5432C73.4771 27.5432 73.5725 28.3639 73.8979 28.9749C73.6202 29.3319 73.3752 29.5122 73.2004 30.2666H72.9516L72.9591 28.5921C72.9591 28.5921 72.5392 28.5811 72.1988 28.5921C72.3054 27.6537 71.8668 27.0023 71.677 26.6932C72.0492 26.6011 72.1511 26.9802 72.3999 27.0943Z" fill="#0C1719" fill-opacity="0.5"/>
<path d="M42.2708 28.5921C42.2708 28.5921 41.9641 28.5885 41.6247 28.5921C41.7304 27.6537 41.2918 27.0023 41.1019 26.6932C41.475 26.6011 41.6359 27.0206 41.8257 27.1017C42.2671 27.3593 42.7421 27.098 42.903 27.5433C42.845 28.559 42.9685 29.5011 43.2686 30.366C43.0199 30.8371 42.6841 31.1058 42.5083 31.8602H42.2746" fill="#0C1719" fill-opacity="0.5"/>
<path d="M38.4499 28.5994C38.4499 28.5994 38.0123 28.5958 37.7523 28.5994C37.8589 27.661 37.4166 27.0096 37.2268 26.7005C37.6027 26.6084 37.7233 26.9507 37.9534 27.1016C38.2349 27.4401 38.8707 27.1016 39.0278 27.5506C38.9689 28.5664 39.0858 29.5122 39.3888 30.377C39.1372 30.848 38.896 31.1204 38.7202 31.8712H38.4499" fill="#0C1719" fill-opacity="0.5"/>
<path d="M36.5366 28.6215H34.8664C34.5232 28.8901 34.5924 29.5048 34.7495 29.9095C35.2246 30.5831 34.7832 31.1498 34.6261 31.7644L34.556 31.849H32.9896L33.5076 30.5132H34.1725C34.0444 30.0715 33.9387 29.1073 34.1725 28.6215C34.0921 28.5773 33.9276 28.5627 33.8004 28.581C33.7854 27.9075 33.6975 27.3445 33.3908 26.8072C33.6171 26.4134 33.8331 27.1089 34.1071 27.1273C34.9833 27.3298 35.9886 27.2451 37.0219 27.2709C37.121 27.2966 37.194 27.3665 37.2519 27.5616C37.194 28.5773 37.3211 29.5268 37.6251 30.3917C37.3726 30.8628 37.1538 31.1351 36.9817 31.8859H36.5366" fill="#0C1719" fill-opacity="0.5"/>
<path d="M46.103 27.5396C46.0441 28.5553 46.1759 29.4974 46.4789 30.3623C46.2274 30.8334 46.0076 31.1058 45.8365 31.8602H45.5223L45.5186 28.5885H43.3855C43.4257 27.9591 43.3341 27.3114 42.9581 26.8551C42.9909 26.7226 43.2246 26.7704 43.3163 26.8146C43.5828 27.0943 43.7726 27.1569 44.0317 27.2599H45.8328C45.9497 27.3004 46.0413 27.3961 46.103 27.5396Z" fill="#0C1719" fill-opacity="0.5"/>
<path d="M59.2389 28.6363H57.5837C57.2405 28.9049 57.3097 29.4459 57.4668 29.847C57.9419 30.5242 57.4996 31.1646 57.3434 31.7755L57.2732 31.8602H55.7069C55.7069 31.8602 56.0501 30.8959 56.225 30.4506L56.8899 30.4543C56.7618 30.0126 56.6561 29.122 56.8899 28.6363C56.8094 28.5957 56.6523 28.6068 56.5279 28.6216C56.5139 27.9517 56.4148 27.3592 56.1081 26.8219C56.3344 26.4281 56.5504 27.1237 56.8244 27.142C57.6754 27.3702 58.7162 27.2267 59.684 27.2672C59.7869 27.293 59.8411 27.4107 59.9253 27.5727C59.8673 28.5884 59.988 29.5489 60.2872 30.4138C60.0385 30.8849 59.8196 31.1204 59.6476 31.8749L59.2427 31.8785" fill="#0C1719" fill-opacity="0.5"/>
</g>
<defs>
<clipPath id="clip0_85_716">
<rect width="74" height="32" fill="white"/>
</clipPath>
</defs>
</svg>
